<svg width="340" height="340" xmlns="http://www.w3.org/2000/svg"><style>

    .dartboard_33ccivsyJcHe7HeA7AlN {
        fill: #f0d8b8;
    }
    .dartboard_22J0FkbDeb49CMqAs85b {
        fill: #000000;
    }
    .dartboard_PJMfPJWEWw1RUbrrBukP {
        fill: #28a040;
    }
    .dartboard_l7Bx09ipXTDuWXhvWBA0 {
        fill: #f81810;
    }
    text.dartboard_33ccivsyJcHe7HeA7AlN {
        fill: #ffffff;
    }
    text.dartboard_22J0FkbDeb49CMqAs85b {
        fill: #000000;
    }
    text {
        font-family: Arial, sans-serif;
        font-weight: bold;
        font-size: 17.0px;
    }
    path, circle {
        stroke: #000000;
        stroke-width: 0.85px;
    }
    
</style><g class="dart-20">
<path d="M 170 170 L 143.40614094316072 2.09298209882661 A 170 170 0 0 1 196.59385905683922 2.0929820988265817 Z" class="dartboard_l7Bx09ipXTDuWXhvWBA0" />
<path d="M 170 170 L 144.65761666348257 9.994488823587687 A 162.0 162.0 0 0 1 195.34238333651737 9.994488823587687 Z" class="dartboard_22J0FkbDeb49CMqAs85b" />
<path d="M 170 170 L 153.26151224069528 64.31734755632027 A 107.0 107.0 0 0 1 186.7384877593047 64.31734755632026 Z" class="dartboard_l7Bx09ipXTDuWXhvWBA0" />
<path d="M 170 170 L 154.51298796101713 72.21885428108138 A 99.0 99.0 0 0 1 185.48701203898284 72.21885428108136 Z" class="dartboard_22J0FkbDeb49CMqAs85b" />
<text x="170.0" y="35.5" class="dartboard_33ccivsyJcHe7HeA7AlN" text-anchor="middle" dominant-baseline="middle">20</text>
</g>
<g class="dart-1">
<path d="M 170 170 L 196.59385905683922 2.0929820988265817 A 170 170 0 0 1 247.17838495572295 18.52889088797744 Z" class="dartboard_PJMfPJWEWw1RUbrrBukP" />
<path d="M 170 170 L 195.34238333651737 9.994488823587687 A 162.0 162.0 0 0 1 243.54646095780657 25.65694308148437 Z" class="dartboard_33ccivsyJcHe7HeA7AlN" />
<path d="M 170 170 L 186.7384877593047 64.31734755632026 A 107.0 107.0 0 0 1 218.57698347213147 74.66230191184462 Z" class="dartboard_PJMfPJWEWw1RUbrrBukP" />
<path d="M 170 170 L 185.48701203898284 72.21885428108136 A 99.0 99.0 0 0 1 214.9450594742151 81.79035410535157 Z" class="dartboard_33ccivsyJcHe7HeA7AlN" />
<text x="211.56278574343042" y="42.08289855830185" class="dartboard_22J0FkbDeb49CMqAs85b" text-anchor="middle" dominant-baseline="middle">1</text>
</g>
<g class="dart-18">
<path d="M 170 170 L 247.17838495572295 18.52889088797744 A 170 170 0 0 1 290.208152801713 49.79184719828689 Z" class="dartboard_l7Bx09ipXTDuWXhvWBA0" />
<path d="M 170 170 L 243.54646095780657 25.65694308148437 A 162.0 162.0 0 0 1 284.55129855222066 55.44870144777927 Z" class="dartboard_22J0FkbDeb49CMqAs85b" />
<path d="M 170 170 L 218.57698347213147 74.66230191184462 A 107.0 107.0 0 0 1 245.66042558696057 94.3395744130394 Z" class="dartboard_l7Bx09ipXTDuWXhvWBA0" />
<path d="M 170 170 L 214.9450594742151 81.79035410535157 A 99.0 99.0 0 0 1 240.0035713374682 99.99642866253178 Z" class="dartboard_22J0FkbDeb49CMqAs85b" />
<text x="249.05711643333763" y="61.18721425656956" class="dartboard_33ccivsyJcHe7HeA7AlN" text-anchor="middle" dominant-baseline="middle">18</text>
</g>
<g class="dart-4">
<path d="M 170 170 L 290.208152801713 49.79184719828689 A 170 170 0 0 1 321.47110911202253 92.82161504427701 Z" class="dartboard_PJMfPJWEWw1RUbrrBukP" />
<path d="M 170 170 L 284.55129855222066 55.44870144777927 A 162.0 162.0 0 0 1 314.3430569185156 96.45353904219338 Z" class="dartboard_33ccivsyJcHe7HeA7AlN" />
<path d="M 170 170 L 245.66042558696057 94.3395744130394 A 107.0 107.0 0 0 1 265.3376980881553 121.42301652786847 Z" class="dartboard_PJMfPJWEWw1RUbrrBukP" />
<path d="M 170 170 L 240.0035713374682 99.99642866253178 A 99.0 99.0 0 0 1 258.2096458946484 125.05494052578484 Z" class="dartboard_33ccivsyJcHe7HeA7AlN" />
<text x="278.8127857434304" y="90.94288356666236" class="dartboard_22J0FkbDeb49CMqAs85b" text-anchor="middle" dominant-baseline="middle">4</text>
</g>
<g class="dart-13">
<path d="M 170 170 L 321.47110911202253 92.82161504427701 A 170 170 0 0 1 337.9070179011734 143.40614094316072 Z" class="dartboard_l7Bx09ipXTDuWXhvWBA0" />
<path d="M 170 170 L 314.3430569185156 96.45353904219338 A 162.0 162.0 0 0 1 330.0055111764123 144.65761666348257 Z" class="dartboard_22J0FkbDeb49CMqAs85b" />
<path d="M 170 170 L 265.3376980881553 121.42301652786847 A 107.0 107.0 0 0 1 275.68265244367973 153.26151224069525 Z" class="dartboard_l7Bx09ipXTDuWXhvWBA0" />
<path d="M 170 170 L 258.2096458946484 125.05494052578484 A 99.0 99.0 0 0 1 267.78114571891865 154.51298796101713 Z" class="dartboard_22J0FkbDeb49CMqAs85b" />
<text x="297.91710144169815" y="128.43721425656958" class="dartboard_33ccivsyJcHe7HeA7AlN" text-anchor="middle" dominant-baseline="middle">13</text>
</g>
<g class="dart-6">
<path d="M 170 170 L 337.9070179011734 143.40614094316072 A 170 170 0 0 1 337.9070179011734 196.59385905683925 Z" class="dartboard_PJMfPJWEWw1RUbrrBukP" />
<path d="M 170 170 L 330.0055111764123 144.65761666348257 A 162.0 162.0 0 0 1 330.0055111764123 195.3423833365174 Z" class="dartboard_33ccivsyJcHe7HeA7AlN" />
<path d="M 170 170 L 275.68265244367973 153.26151224069525 A 107.0 107.0 0 0 1 275.68265244367973 186.7384877593047 Z" class="dartboard_PJMfPJWEWw1RUbrrBukP" />
<path d="M 170 170 L 267.78114571891865 154.51298796101713 A 99.0 99.0 0 0 1 267.78114571891865 185.48701203898287 Z" class="dartboard_33ccivsyJcHe7HeA7AlN" />
<text x="304.5" y="170.0" class="dartboard_22J0FkbDeb49CMqAs85b" text-anchor="middle" dominant-baseline="middle">6</text>
</g>
<g class="dart-10">
<path d="M 170 170 L 337.9070179011734 196.59385905683925 A 170 170 0 0 1 321.47110911202253 247.17838495572295 Z" class="dartboard_l7Bx09ipXTDuWXhvWBA0" />
<path d="M 170 170 L 330.0055111764123 195.3423833365174 A 162.0 162.0 0 0 1 314.3430569185156 243.54646095780657 Z" class="dartboard_22J0FkbDeb49CMqAs85b" />
<path d="M 170 170 L 275.68265244367973 186.7384877593047 A 107.0 107.0 0 0 1 265.3376980881554 218.5769834721315 Z" class="dartboard_l7Bx09ipXTDuWXhvWBA0" />
<path d="M 170 170 L 267.78114571891865 185.48701203898287 A 99.0 99.0 0 0 1 258.2096458946484 214.94505947421513 Z" class="dartboard_22J0FkbDeb49CMqAs85b" />
<text x="297.91710144169815" y="211.56278574343042" class="dartboard_33ccivsyJcHe7HeA7AlN" text-anchor="middle" dominant-baseline="middle">10</text>
</g>
<g class="dart-15">
<path d="M 170 170 L 321.47110911202253 247.17838495572295 A 170 170 0 0 1 290.2081528017131 290.2081528017131 Z" class="dartboard_PJMfPJWEWw1RUbrrBukP" />
<path d="M 170 170 L 314.3430569185156 243.54646095780657 A 162.0 162.0 0 0 1 284.5512985522207 284.5512985522207 Z" class="dartboard_33ccivsyJcHe7HeA7AlN" />
<path d="M 170 170 L 265.3376980881554 218.5769834721315 A 107.0 107.0 0 0 1 245.66042558696057 245.66042558696057 Z" class="dartboard_PJMfPJWEWw1RUbrrBukP" />
<path d="M 170 170 L 258.2096458946484 214.94505947421513 A 99.0 99.0 0 0 1 240.0035713374682 240.0035713374682 Z" class="dartboard_33ccivsyJcHe7HeA7AlN" />
<text x="278.8127857434304" y="249.05711643333763" class="dartboard_22J0FkbDeb49CMqAs85b" text-anchor="middle" dominant-baseline="middle">15</text>
</g>
<g class="dart-2">
<path d="M 170 170 L 290.2081528017131 290.2081528017131 A 170 170 0 0 1 247.17838495572295 321.47110911202253 Z" class="dartboard_l7Bx09ipXTDuWXhvWBA0" />
<path d="M 170 170 L 284.5512985522207 284.5512985522207 A 162.0 162.0 0 0 1 243.54646095780657 314.3430569185156 Z" class="dartboard_22J0FkbDeb49CMqAs85b" />
<path d="M 170 170 L 245.66042558696057 245.66042558696057 A 107.0 107.0 0 0 1 218.5769834721315 265.3376980881553 Z" class="dartboard_l7Bx09ipXTDuWXhvWBA0" />
<path d="M 170 170 L 240.0035713374682 240.0035713374682 A 99.0 99.0 0 0 1 214.94505947421513 258.2096458946484 Z" class="dartboard_22J0FkbDeb49CMqAs85b" />
<text x="249.05711643333763" y="278.8127857434304" class="dartboard_33ccivsyJcHe7HeA7AlN" text-anchor="middle" dominant-baseline="middle">2</text>
</g>
<g class="dart-17">
<path d="M 170 170 L 247.17838495572295 321.47110911202253 A 170 170 0 0 1 196.59385905683925 337.9070179011734 Z" class="dartboard_PJMfPJWEWw1RUbrrBukP" />
<path d="M 170 170 L 243.54646095780657 314.3430569185156 A 162.0 162.0 0 0 1 195.3423833365174 330.0055111764123 Z" class="dartboard_33ccivsyJcHe7HeA7AlN" />
<path d="M 170 170 L 218.5769834721315 265.3376980881553 A 107.0 107.0 0 0 1 186.7384877593047 275.68265244367973 Z" class="dartboard_PJMfPJWEWw1RUbrrBukP" />
<path d="M 170 170 L 214.94505947421513 258.2096458946484 A 99.0 99.0 0 0 1 185.48701203898287 267.78114571891865 Z" class="dartboard_33ccivsyJcHe7HeA7AlN" />
<text x="211.56278574343042" y="297.91710144169815" class="dartboard_22J0FkbDeb49CMqAs85b" text-anchor="middle" dominant-baseline="middle">17</text>
</g>
<g class="dart-3">
<path d="M 170 170 L 196.59385905683925 337.9070179011734 A 170 170 0 0 1 143.40614094316075 337.9070179011734 Z" class="dartboard_l7Bx09ipXTDuWXhvWBA0" />
<path d="M 170 170 L 195.3423833365174 330.0055111764123 A 162.0 162.0 0 0 1 144.6576166634826 330.0055111764123 Z" class="dartboard_22J0FkbDeb49CMqAs85b" />
<path d="M 170 170 L 186.7384877593047 275.68265244367973 A 107.0 107.0 0 0 1 153.2615122406953 275.68265244367973 Z" class="dartboard_l7Bx09ipXTDuWXhvWBA0" />
<path d="M 170 170 L 185.48701203898287 267.78114571891865 A 99.0 99.0 0 0 1 154.51298796101713 267.78114571891865 Z" class="dartboard_22J0FkbDeb49CMqAs85b" />
<text x="170.0" y="304.5" class="dartboard_33ccivsyJcHe7HeA7AlN" text-anchor="middle" dominant-baseline="middle">3</text>
</g>
<g class="dart-19">
<path d="M 170 170 L 143.40614094316075 337.9070179011734 A 170 170 0 0 1 92.82161504427707 321.47110911202253 Z" class="dartboard_PJMfPJWEWw1RUbrrBukP" />
<path d="M 170 170 L 144.6576166634826 330.0055111764123 A 162.0 162.0 0 0 1 96.45353904219344 314.3430569185156 Z" class="dartboard_33ccivsyJcHe7HeA7AlN" />
<path d="M 170 170 L 153.2615122406953 275.68265244367973 A 107.0 107.0 0 0 1 121.4230165278685 265.3376980881554 Z" class="dartboard_PJMfPJWEWw1RUbrrBukP" />
<path d="M 170 170 L 154.51298796101713 267.78114571891865 A 99.0 99.0 0 0 1 125.05494052578487 258.2096458946484 Z" class="dartboard_33ccivsyJcHe7HeA7AlN" />
<text x="128.43721425656958" y="297.91710144169815" class="dartboard_22J0FkbDeb49CMqAs85b" text-anchor="middle" dominant-baseline="middle">19</text>
</g>
<g class="dart-7">
<path d="M 170 170 L 92.82161504427707 321.47110911202253 A 170 170 0 0 1 49.79184719828693 290.2081528017131 Z" class="dartboard_l7Bx09ipXTDuWXhvWBA0" />
<path d="M 170 170 L 96.45353904219344 314.3430569185156 A 162.0 162.0 0 0 1 55.448701447779314 284.5512985522207 Z" class="dartboard_22J0FkbDeb49CMqAs85b" />
<path d="M 170 170 L 121.4230165278685 265.3376980881554 A 107.0 107.0 0 0 1 94.33957441303941 245.66042558696057 Z" class="dartboard_l7Bx09ipXTDuWXhvWBA0" />
<path d="M 170 170 L 125.05494052578487 258.2096458946484 A 99.0 99.0 0 0 1 99.9964286625318 240.0035713374682 Z" class="dartboard_22J0FkbDeb49CMqAs85b" />
<text x="90.94288356666237" y="278.8127857434304" class="dartboard_33ccivsyJcHe7HeA7AlN" text-anchor="middle" dominant-baseline="middle">7</text>
</g>
<g class="dart-16">
<path d="M 170 170 L 49.79184719828693 290.2081528017131 A 170 170 0 0 1 18.528890887977468 247.17838495572295 Z" class="dartboard_PJMfPJWEWw1RUbrrBukP" />
<path d="M 170 170 L 55.448701447779314 284.5512985522207 A 162.0 162.0 0 0 1 25.656943081484428 243.54646095780657 Z" class="dartboard_33ccivsyJcHe7HeA7AlN" />
<path d="M 170 170 L 94.33957441303941 245.66042558696057 A 107.0 107.0 0 0 1 74.66230191184465 218.57698347213153 Z" class="dartboard_PJMfPJWEWw1RUbrrBukP" />
<path d="M 170 170 L 99.9964286625318 240.0035713374682 A 99.0 99.0 0 0 1 81.79035410535158 214.94505947421516 Z" class="dartboard_33ccivsyJcHe7HeA7AlN" />
<text x="61.18721425656959" y="249.05711643333765" class="dartboard_22J0FkbDeb49CMqAs85b" text-anchor="middle" dominant-baseline="middle">16</text>
</g>
<g class="dart-8">
<path d="M 170 170 L 18.528890887977468 247.17838495572295 A 170 170 0 0 1 2.09298209882661 196.59385905683928 Z" class="dartboard_l7Bx09ipXTDuWXhvWBA0" />
<path d="M 170 170 L 25.656943081484428 243.54646095780657 A 162.0 162.0 0 0 1 9.994488823587687 195.3423833365174 Z" class="dartboard_22J0FkbDeb49CMqAs85b" />
<path d="M 170 170 L 74.66230191184465 218.57698347213153 A 107.0 107.0 0 0 1 64.31734755632027 186.73848775930472 Z" class="dartboard_l7Bx09ipXTDuWXhvWBA0" />
<path d="M 170 170 L 81.79035410535158 214.94505947421516 A 99.0 99.0 0 0 1 72.21885428108138 185.48701203898287 Z" class="dartboard_22J0FkbDeb49CMqAs85b" />
<text x="42.08289855830185" y="211.56278574343042" class="dartboard_33ccivsyJcHe7HeA7AlN" text-anchor="middle" dominant-baseline="middle">8</text>
</g>
<g class="dart-11">
<path d="M 170 170 L 2.09298209882661 196.59385905683928 A 170 170 0 0 1 2.0929820988265817 143.40614094316078 Z" class="dartboard_PJMfPJWEWw1RUbrrBukP" />
<path d="M 170 170 L 9.994488823587687 195.3423833365174 A 162.0 162.0 0 0 1 9.994488823587687 144.65761666348263 Z" class="dartboard_33ccivsyJcHe7HeA7AlN" />
<path d="M 170 170 L 64.31734755632027 186.73848775930472 A 107.0 107.0 0 0 1 64.31734755632026 153.2615122406953 Z" class="dartboard_PJMfPJWEWw1RUbrrBukP" />
<path d="M 170 170 L 72.21885428108138 185.48701203898287 A 99.0 99.0 0 0 1 72.21885428108136 154.51298796101716 Z" class="dartboard_33ccivsyJcHe7HeA7AlN" />
<text x="35.5" y="170.00000000000003" class="dartboard_22J0FkbDeb49CMqAs85b" text-anchor="middle" dominant-baseline="middle">11</text>
</g>
<g class="dart-14">
<path d="M 170 170 L 2.0929820988265817 143.40614094316078 A 170 170 0 0 1 18.528890887977468 92.82161504427707 Z" class="dartboard_l7Bx09ipXTDuWXhvWBA0" />
<path d="M 170 170 L 9.994488823587687 144.65761666348263 A 162.0 162.0 0 0 1 25.6569430814844 96.45353904219344 Z" class="dartboard_22J0FkbDeb49CMqAs85b" />
<path d="M 170 170 L 64.31734755632026 153.2615122406953 A 107.0 107.0 0 0 1 74.66230191184464 121.4230165278685 Z" class="dartboard_l7Bx09ipXTDuWXhvWBA0" />
<path d="M 170 170 L 72.21885428108136 154.51298796101716 A 99.0 99.0 0 0 1 81.79035410535158 125.05494052578487 Z" class="dartboard_22J0FkbDeb49CMqAs85b" />
<text x="42.082898558301835" y="128.43721425656958" class="dartboard_33ccivsyJcHe7HeA7AlN" text-anchor="middle" dominant-baseline="middle">14</text>
</g>
<g class="dart-9">
<path d="M 170 170 L 18.528890887977468 92.82161504427707 A 170 170 0 0 1 49.79184719828689 49.79184719828693 Z" class="dartboard_PJMfPJWEWw1RUbrrBukP" />
<path d="M 170 170 L 25.6569430814844 96.45353904219344 A 162.0 162.0 0 0 1 55.44870144777927 55.448701447779314 Z" class="dartboard_33ccivsyJcHe7HeA7AlN" />
<path d="M 170 170 L 74.66230191184464 121.4230165278685 A 107.0 107.0 0 0 1 94.3395744130394 94.33957441303941 Z" class="dartboard_PJMfPJWEWw1RUbrrBukP" />
<path d="M 170 170 L 81.79035410535158 125.05494052578487 A 99.0 99.0 0 0 1 99.99642866253178 99.9964286625318 Z" class="dartboard_33ccivsyJcHe7HeA7AlN" />
<text x="61.18721425656955" y="90.94288356666237" class="dartboard_22J0FkbDeb49CMqAs85b" text-anchor="middle" dominant-baseline="middle">9</text>
</g>
<g class="dart-12">
<path d="M 170 170 L 49.79184719828689 49.79184719828693 A 170 170 0 0 1 92.82161504427702 18.528890887977468 Z" class="dartboard_l7Bx09ipXTDuWXhvWBA0" />
<path d="M 170 170 L 55.44870144777927 55.448701447779314 A 162.0 162.0 0 0 1 96.4535390421934 25.656943081484428 Z" class="dartboard_22J0FkbDeb49CMqAs85b" />
<path d="M 170 170 L 94.3395744130394 94.33957441303941 A 107.0 107.0 0 0 1 121.42301652786847 74.66230191184465 Z" class="dartboard_l7Bx09ipXTDuWXhvWBA0" />
<path d="M 170 170 L 99.99642866253178 99.9964286625318 A 99.0 99.0 0 0 1 125.05494052578486 81.79035410535158 Z" class="dartboard_22J0FkbDeb49CMqAs85b" />
<text x="90.94288356666235" y="61.18721425656959" class="dartboard_33ccivsyJcHe7HeA7AlN" text-anchor="middle" dominant-baseline="middle">12</text>
</g>
<g class="dart-5">
<path d="M 170 170 L 92.82161504427702 18.528890887977468 A 170 170 0 0 1 143.40614094316072 2.09298209882661 Z" class="dartboard_PJMfPJWEWw1RUbrrBukP" />
<path d="M 170 170 L 96.4535390421934 25.656943081484428 A 162.0 162.0 0 0 1 144.65761666348257 9.994488823587687 Z" class="dartboard_33ccivsyJcHe7HeA7AlN" />
<path d="M 170 170 L 121.42301652786847 74.66230191184465 A 107.0 107.0 0 0 1 153.26151224069528 64.31734755632027 Z" class="dartboard_PJMfPJWEWw1RUbrrBukP" />
<path d="M 170 170 L 125.05494052578486 81.79035410535158 A 99.0 99.0 0 0 1 154.51298796101713 72.21885428108138 Z" class="dartboard_33ccivsyJcHe7HeA7AlN" />
<text x="128.43721425656955" y="42.08289855830185" class="dartboard_22J0FkbDeb49CMqAs85b" text-anchor="middle" dominant-baseline="middle">5</text>
</g>
<circle cx="170" cy="170" r="16.15" fill="#28a040" />
<circle cx="170" cy="170" r="6.46" fill="#f81810" />
</svg>