<svg width="12498" height="12498" xmlns="http://www.w3.org/2000/svg"><style>

    .dartboard_lp_VcAPViFKvhS6nJEOJpDF {
        fill: #f0d8b8;
    }
    .dartboard_lp_M3DCZ4IrXkUQXbQ1Wff8 {
        fill: #000000;
    }
    .dartboard_lp_6d3c3LGNjn6fYELI9BaI {
        fill: #28a040;
    }
    .dartboard_lp_l4sCkPeRA1s9IP8crzki {
        fill: #f81810;
    }
    text.dartboard_lp_VcAPViFKvhS6nJEOJpDF {
        fill: #ffffff;
    }
    text.dartboard_lp_M3DCZ4IrXkUQXbQ1Wff8 {
        fill: #000000;
    }
    text {
        font-family: Arial, sans-serif;
        font-weight: bold;
        font-size: 624.9000000000001px;
    }
    path, circle {
        stroke: #000000;
        stroke-width: 31.245px;
    }
    
</style><g class="dart-20">
<path d="M 6249 6249 L 5271.441027963596 76.93555962098435 A 6249 6249 0 0 1 7226.558972036401 76.93555962098435 Z" class="dartboard_lp_l4sCkPeRA1s9IP8crzki" />
<path d="M 6249 6249 L 5317.443803118251 367.385650932938 A 5954.929411764706 5954.929411764706 0 0 1 7180.556196881747 367.385650932938 Z" class="dartboard_lp_M3DCZ4IrXkUQXbQ1Wff8" />
<path d="M 6249 6249 L 5633.712882306499 2364.23002870262 A 3933.1941176470586 3933.1941176470586 0 0 1 6864.2871176935 2364.2300287026196 Z" class="dartboard_lp_l4sCkPeRA1s9IP8crzki" />
<path d="M 6249 6249 L 5679.715657461153 2654.6801200145733 A 3639.123529411765 3639.123529411765 0 0 1 6818.2843425388455 2654.680120014573 Z" class="dartboard_lp_M3DCZ4IrXkUQXbQ1Wff8" />
<text x="6249.0" y="1304.9382352941175" class="dartboard_lp_VcAPViFKvhS6nJEOJpDF" text-anchor="middle" dominant-baseline="middle">20</text>
</g>
<g class="dart-1">
<path d="M 6249 6249 L 7226.558972036401 76.93555962098435 A 6249 6249 0 0 1 9085.986632872427 681.1002303468886 Z" class="dartboard_lp_6d3c3LGNjn6fYELI9BaI" />
<path d="M 6249 6249 L 7180.556196881747 367.385650932938 A 5954.929411764706 5954.929411764706 0 0 1 8952.481379560784 943.1190430364468 Z" class="dartboard_lp_VcAPViFKvhS6nJEOJpDF" />
<path d="M 6249 6249 L 6864.2871176935 2364.2300287026196 A 3933.1941176470586 3933.1941176470586 0 0 1 8034.632763043233 2744.4983802771594 Z" class="dartboard_lp_6d3c3LGNjn6fYELI9BaI" />
<path d="M 6249 6249 L 6818.2843425388455 2654.680120014573 A 3639.123529411765 3639.123529411765 0 0 1 7901.12750973159 3006.517192966717 Z" class="dartboard_lp_VcAPViFKvhS6nJEOJpDF" />
<text x="7776.79910653351" y="1546.9178417107541" class="dartboard_lp_M3DCZ4IrXkUQXbQ1Wff8" text-anchor="middle" dominant-baseline="middle">1</text>
</g>
<g class="dart-18">
<path d="M 6249 6249 L 9085.986632872427 681.1002303468886 A 6249 6249 0 0 1 10667.710275634734 1830.2897243652633 Z" class="dartboard_lp_l4sCkPeRA1s9IP8crzki" />
<path d="M 6249 6249 L 8952.481379560784 943.1190430364468 A 5954.929411764706 5954.929411764706 0 0 1 10459.770968546041 2038.2290314539568 Z" class="dartboard_lp_M3DCZ4IrXkUQXbQ1Wff8" />
<path d="M 6249 6249 L 8034.632763043233 2744.4983802771594 A 3933.1941176470586 3933.1941176470586 0 0 1 9030.188232311275 3467.811767688725 Z" class="dartboard_lp_l4sCkPeRA1s9IP8crzki" />
<path d="M 6249 6249 L 7901.12750973159 3006.517192966717 A 3639.123529411765 3639.123529411765 0 0 1 8822.24892522258 3675.751074777418 Z" class="dartboard_lp_M3DCZ4IrXkUQXbQ1Wff8" />
<text x="9155.046591717217" y="2249.1700111135483" class="dartboard_lp_VcAPViFKvhS6nJEOJpDF" text-anchor="middle" dominant-baseline="middle">18</text>
</g>
<g class="dart-4">
<path d="M 6249 6249 L 10667.710275634734 1830.2897243652633 A 6249 6249 0 0 1 11816.899769653111 3412.013367127571 Z" class="dartboard_lp_6d3c3LGNjn6fYELI9BaI" />
<path d="M 6249 6249 L 10459.770968546041 2038.2290314539568 A 5954.929411764706 5954.929411764706 0 0 1 11554.880956963552 3545.518620439215 Z" class="dartboard_lp_VcAPViFKvhS6nJEOJpDF" />
<path d="M 6249 6249 L 9030.188232311275 3467.811767688725 A 3933.1941176470586 3933.1941176470586 0 0 1 9753.50161972284 4463.367236956765 Z" class="dartboard_lp_6d3c3LGNjn6fYELI9BaI" />
<path d="M 6249 6249 L 8822.24892522258 3675.751074777418 A 3639.123529411765 3639.123529411765 0 0 1 9491.482807033282 4596.872490268409 Z" class="dartboard_lp_VcAPViFKvhS6nJEOJpDF" />
<text x="10248.829988886451" y="3342.9534082827827" class="dartboard_lp_M3DCZ4IrXkUQXbQ1Wff8" text-anchor="middle" dominant-baseline="middle">4</text>
</g>
<g class="dart-13">
<path d="M 6249 6249 L 11816.899769653111 3412.013367127571 A 6249 6249 0 0 1 12421.064440379016 5271.441027963596 Z" class="dartboard_lp_l4sCkPeRA1s9IP8crzki" />
<path d="M 6249 6249 L 11554.880956963552 3545.518620439215 A 5954.929411764706 5954.929411764706 0 0 1 12130.614349067062 5317.44380311825 Z" class="dartboard_lp_M3DCZ4IrXkUQXbQ1Wff8" />
<path d="M 6249 6249 L 9753.50161972284 4463.367236956765 A 3933.1941176470586 3933.1941176470586 0 0 1 10133.76997129738 5633.712882306499 Z" class="dartboard_lp_l4sCkPeRA1s9IP8crzki" />
<path d="M 6249 6249 L 9491.482807033282 4596.872490268409 A 3639.123529411765 3639.123529411765 0 0 1 9843.319879985427 5679.715657461153 Z" class="dartboard_lp_M3DCZ4IrXkUQXbQ1Wff8" />
<text x="10951.082158289246" y="4721.20089346649" class="dartboard_lp_VcAPViFKvhS6nJEOJpDF" text-anchor="middle" dominant-baseline="middle">13</text>
</g>
<g class="dart-6">
<path d="M 6249 6249 L 12421.064440379016 5271.441027963596 A 6249 6249 0 0 1 12421.064440379016 7226.558972036402 Z" class="dartboard_lp_6d3c3LGNjn6fYELI9BaI" />
<path d="M 6249 6249 L 12130.614349067062 5317.44380311825 A 5954.929411764706 5954.929411764706 0 0 1 12130.614349067062 7180.556196881748 Z" class="dartboard_lp_VcAPViFKvhS6nJEOJpDF" />
<path d="M 6249 6249 L 10133.76997129738 5633.712882306499 A 3933.1941176470586 3933.1941176470586 0 0 1 10133.76997129738 6864.2871176935005 Z" class="dartboard_lp_6d3c3LGNjn6fYELI9BaI" />
<path d="M 6249 6249 L 9843.319879985427 5679.715657461153 A 3639.123529411765 3639.123529411765 0 0 1 9843.319879985427 6818.284342538846 Z" class="dartboard_lp_VcAPViFKvhS6nJEOJpDF" />
<text x="11193.061764705883" y="6249.0" class="dartboard_lp_M3DCZ4IrXkUQXbQ1Wff8" text-anchor="middle" dominant-baseline="middle">6</text>
</g>
<g class="dart-10">
<path d="M 6249 6249 L 12421.064440379016 7226.558972036402 A 6249 6249 0 0 1 11816.899769653111 9085.986632872427 Z" class="dartboard_lp_l4sCkPeRA1s9IP8crzki" />
<path d="M 6249 6249 L 12130.614349067062 7180.556196881748 A 5954.929411764706 5954.929411764706 0 0 1 11554.880956963552 8952.481379560784 Z" class="dartboard_lp_M3DCZ4IrXkUQXbQ1Wff8" />
<path d="M 6249 6249 L 10133.76997129738 6864.2871176935005 A 3933.1941176470586 3933.1941176470586 0 0 1 9753.50161972284 8034.632763043233 Z" class="dartboard_lp_l4sCkPeRA1s9IP8crzki" />
<path d="M 6249 6249 L 9843.319879985427 6818.284342538846 A 3639.123529411765 3639.123529411765 0 0 1 9491.482807033282 7901.12750973159 Z" class="dartboard_lp_M3DCZ4IrXkUQXbQ1Wff8" />
<text x="10951.082158289246" y="7776.79910653351" class="dartboard_lp_VcAPViFKvhS6nJEOJpDF" text-anchor="middle" dominant-baseline="middle">10</text>
</g>
<g class="dart-15">
<path d="M 6249 6249 L 11816.899769653111 9085.986632872427 A 6249 6249 0 0 1 10667.710275634736 10667.710275634734 Z" class="dartboard_lp_6d3c3LGNjn6fYELI9BaI" />
<path d="M 6249 6249 L 11554.880956963552 8952.481379560784 A 5954.929411764706 5954.929411764706 0 0 1 10459.770968546043 10459.770968546041 Z" class="dartboard_lp_VcAPViFKvhS6nJEOJpDF" />
<path d="M 6249 6249 L 9753.50161972284 8034.632763043233 A 3933.1941176470586 3933.1941176470586 0 0 1 9030.188232311275 9030.188232311275 Z" class="dartboard_lp_6d3c3LGNjn6fYELI9BaI" />
<path d="M 6249 6249 L 9491.482807033282 7901.12750973159 A 3639.123529411765 3639.123529411765 0 0 1 8822.248925222582 8822.248925222582 Z" class="dartboard_lp_VcAPViFKvhS6nJEOJpDF" />
<text x="10248.829988886451" y="9155.046591717217" class="dartboard_lp_M3DCZ4IrXkUQXbQ1Wff8" text-anchor="middle" dominant-baseline="middle">15</text>
</g>
<g class="dart-2">
<path d="M 6249 6249 L 10667.710275634736 10667.710275634734 A 6249 6249 0 0 1 9085.986632872427 11816.899769653111 Z" class="dartboard_lp_l4sCkPeRA1s9IP8crzki" />
<path d="M 6249 6249 L 10459.770968546043 10459.770968546041 A 5954.929411764706 5954.929411764706 0 0 1 8952.481379560784 11554.880956963552 Z" class="dartboard_lp_M3DCZ4IrXkUQXbQ1Wff8" />
<path d="M 6249 6249 L 9030.188232311275 9030.188232311275 A 3933.1941176470586 3933.1941176470586 0 0 1 8034.632763043233 9753.50161972284 Z" class="dartboard_lp_l4sCkPeRA1s9IP8crzki" />
<path d="M 6249 6249 L 8822.248925222582 8822.248925222582 A 3639.123529411765 3639.123529411765 0 0 1 7901.12750973159 9491.482807033282 Z" class="dartboard_lp_M3DCZ4IrXkUQXbQ1Wff8" />
<text x="9155.046591717217" y="10248.829988886451" class="dartboard_lp_VcAPViFKvhS6nJEOJpDF" text-anchor="middle" dominant-baseline="middle">2</text>
</g>
<g class="dart-17">
<path d="M 6249 6249 L 9085.986632872427 11816.899769653111 A 6249 6249 0 0 1 7226.558972036403 12421.064440379016 Z" class="dartboard_lp_6d3c3LGNjn6fYELI9BaI" />
<path d="M 6249 6249 L 8952.481379560784 11554.880956963552 A 5954.929411764706 5954.929411764706 0 0 1 7180.556196881749 12130.614349067062 Z" class="dartboard_lp_VcAPViFKvhS6nJEOJpDF" />
<path d="M 6249 6249 L 8034.632763043233 9753.50161972284 A 3933.1941176470586 3933.1941176470586 0 0 1 6864.2871176935005 10133.76997129738 Z" class="dartboard_lp_6d3c3LGNjn6fYELI9BaI" />
<path d="M 6249 6249 L 7901.12750973159 9491.482807033282 A 3639.123529411765 3639.123529411765 0 0 1 6818.284342538846 9843.319879985427 Z" class="dartboard_lp_VcAPViFKvhS6nJEOJpDF" />
<text x="7776.79910653351" y="10951.082158289246" class="dartboard_lp_M3DCZ4IrXkUQXbQ1Wff8" text-anchor="middle" dominant-baseline="middle">17</text>
</g>
<g class="dart-3">
<path d="M 6249 6249 L 7226.558972036403 12421.064440379016 A 6249 6249 0 0 1 5271.441027963598 12421.064440379016 Z" class="dartboard_lp_l4sCkPeRA1s9IP8crzki" />
<path d="M 6249 6249 L 7180.556196881749 12130.614349067062 A 5954.929411764706 5954.929411764706 0 0 1 5317.443803118252 12130.614349067062 Z" class="dartboard_lp_M3DCZ4IrXkUQXbQ1Wff8" />
<path d="M 6249 6249 L 6864.2871176935005 10133.76997129738 A 3933.1941176470586 3933.1941176470586 0 0 1 5633.7128823064995 10133.76997129738 Z" class="dartboard_lp_l4sCkPeRA1s9IP8crzki" />
<path d="M 6249 6249 L 6818.284342538846 9843.319879985427 A 3639.123529411765 3639.123529411765 0 0 1 5679.7156574611545 9843.319879985427 Z" class="dartboard_lp_M3DCZ4IrXkUQXbQ1Wff8" />
<text x="6249.0" y="11193.061764705883" class="dartboard_lp_VcAPViFKvhS6nJEOJpDF" text-anchor="middle" dominant-baseline="middle">3</text>
</g>
<g class="dart-19">
<path d="M 6249 6249 L 5271.441027963598 12421.064440379016 A 6249 6249 0 0 1 3412.0133671275726 11816.899769653111 Z" class="dartboard_lp_6d3c3LGNjn6fYELI9BaI" />
<path d="M 6249 6249 L 5317.443803118252 12130.614349067062 A 5954.929411764706 5954.929411764706 0 0 1 3545.518620439216 11554.880956963552 Z" class="dartboard_lp_VcAPViFKvhS6nJEOJpDF" />
<path d="M 6249 6249 L 5633.7128823064995 10133.76997129738 A 3933.1941176470586 3933.1941176470586 0 0 1 4463.367236956767 9753.50161972284 Z" class="dartboard_lp_6d3c3LGNjn6fYELI9BaI" />
<path d="M 6249 6249 L 5679.7156574611545 9843.319879985427 A 3639.123529411765 3639.123529411765 0 0 1 4596.87249026841 9491.482807033282 Z" class="dartboard_lp_VcAPViFKvhS6nJEOJpDF" />
<text x="4721.20089346649" y="10951.082158289246" class="dartboard_lp_M3DCZ4IrXkUQXbQ1Wff8" text-anchor="middle" dominant-baseline="middle">19</text>
</g>
<g class="dart-7">
<path d="M 6249 6249 L 3412.0133671275726 11816.899769653111 A 6249 6249 0 0 1 1830.289724365265 10667.710275634736 Z" class="dartboard_lp_l4sCkPeRA1s9IP8crzki" />
<path d="M 6249 6249 L 3545.518620439216 11554.880956963552 A 5954.929411764706 5954.929411764706 0 0 1 2038.2290314539587 10459.770968546043 Z" class="dartboard_lp_M3DCZ4IrXkUQXbQ1Wff8" />
<path d="M 6249 6249 L 4463.367236956767 9753.50161972284 A 3933.1941176470586 3933.1941176470586 0 0 1 3467.8117676887255 9030.188232311275 Z" class="dartboard_lp_l4sCkPeRA1s9IP8crzki" />
<path d="M 6249 6249 L 4596.87249026841 9491.482807033282 A 3639.123529411765 3639.123529411765 0 0 1 3675.7510747774186 8822.248925222582 Z" class="dartboard_lp_M3DCZ4IrXkUQXbQ1Wff8" />
<text x="3342.9534082827836" y="10248.829988886451" class="dartboard_lp_VcAPViFKvhS6nJEOJpDF" text-anchor="middle" dominant-baseline="middle">7</text>
</g>
<g class="dart-16">
<path d="M 6249 6249 L 1830.289724365265 10667.710275634736 A 6249 6249 0 0 1 681.1002303468895 9085.986632872427 Z" class="dartboard_lp_6d3c3LGNjn6fYELI9BaI" />
<path d="M 6249 6249 L 2038.2290314539587 10459.770968546043 A 5954.929411764706 5954.929411764706 0 0 1 943.1190430364477 8952.481379560784 Z" class="dartboard_lp_VcAPViFKvhS6nJEOJpDF" />
<path d="M 6249 6249 L 3467.8117676887255 9030.188232311275 A 3933.1941176470586 3933.1941176470586 0 0 1 2744.4983802771603 8034.632763043235 Z" class="dartboard_lp_6d3c3LGNjn6fYELI9BaI" />
<path d="M 6249 6249 L 3675.7510747774186 8822.248925222582 A 3639.123529411765 3639.123529411765 0 0 1 3006.5171929667176 7901.127509731591 Z" class="dartboard_lp_VcAPViFKvhS6nJEOJpDF" />
<text x="2249.1700111135488" y="9155.046591717219" class="dartboard_lp_M3DCZ4IrXkUQXbQ1Wff8" text-anchor="middle" dominant-baseline="middle">16</text>
</g>
<g class="dart-8">
<path d="M 6249 6249 L 681.1002303468895 9085.986632872427 A 6249 6249 0 0 1 76.93555962098435 7226.558972036403 Z" class="dartboard_lp_l4sCkPeRA1s9IP8crzki" />
<path d="M 6249 6249 L 943.1190430364477 8952.481379560784 A 5954.929411764706 5954.929411764706 0 0 1 367.385650932938 7180.556196881749 Z" class="dartboard_lp_M3DCZ4IrXkUQXbQ1Wff8" />
<path d="M 6249 6249 L 2744.4983802771603 8034.632763043235 A 3933.1941176470586 3933.1941176470586 0 0 1 2364.23002870262 6864.2871176935005 Z" class="dartboard_lp_l4sCkPeRA1s9IP8crzki" />
<path d="M 6249 6249 L 3006.5171929667176 7901.127509731591 A 3639.123529411765 3639.123529411765 0 0 1 2654.6801200145733 6818.284342538847 Z" class="dartboard_lp_M3DCZ4IrXkUQXbQ1Wff8" />
<text x="1546.9178417107541" y="7776.799106533511" class="dartboard_lp_VcAPViFKvhS6nJEOJpDF" text-anchor="middle" dominant-baseline="middle">8</text>
</g>
<g class="dart-11">
<path d="M 6249 6249 L 76.93555962098435 7226.558972036403 A 6249 6249 0 0 1 76.93555962098435 5271.441027963598 Z" class="dartboard_lp_6d3c3LGNjn6fYELI9BaI" />
<path d="M 6249 6249 L 367.385650932938 7180.556196881749 A 5954.929411764706 5954.929411764706 0 0 1 367.385650932938 5317.443803118253 Z" class="dartboard_lp_VcAPViFKvhS6nJEOJpDF" />
<path d="M 6249 6249 L 2364.23002870262 6864.2871176935005 A 3933.1941176470586 3933.1941176470586 0 0 1 2364.2300287026196 5633.7128823064995 Z" class="dartboard_lp_6d3c3LGNjn6fYELI9BaI" />
<path d="M 6249 6249 L 2654.6801200145733 6818.284342538847 A 3639.123529411765 3639.123529411765 0 0 1 2654.680120014573 5679.7156574611545 Z" class="dartboard_lp_VcAPViFKvhS6nJEOJpDF" />
<text x="1304.9382352941175" y="6249.000000000001" class="dartboard_lp_M3DCZ4IrXkUQXbQ1Wff8" text-anchor="middle" dominant-baseline="middle">11</text>
</g>
<g class="dart-14">
<path d="M 6249 6249 L 76.93555962098435 5271.441027963598 A 6249 6249 0 0 1 681.1002303468886 3412.0133671275726 Z" class="dartboard_lp_l4sCkPeRA1s9IP8crzki" />
<path d="M 6249 6249 L 367.385650932938 5317.443803118253 A 5954.929411764706 5954.929411764706 0 0 1 943.1190430364468 3545.518620439216 Z" class="dartboard_lp_M3DCZ4IrXkUQXbQ1Wff8" />
<path d="M 6249 6249 L 2364.2300287026196 5633.7128823064995 A 3933.1941176470586 3933.1941176470586 0 0 1 2744.49838027716 4463.367236956767 Z" class="dartboard_lp_l4sCkPeRA1s9IP8crzki" />
<path d="M 6249 6249 L 2654.680120014573 5679.7156574611545 A 3639.123529411765 3639.123529411765 0 0 1 3006.5171929667176 4596.87249026841 Z" class="dartboard_lp_M3DCZ4IrXkUQXbQ1Wff8" />
<text x="1546.9178417107541" y="4721.20089346649" class="dartboard_lp_VcAPViFKvhS6nJEOJpDF" text-anchor="middle" dominant-baseline="middle">14</text>
</g>
<g class="dart-9">
<path d="M 6249 6249 L 681.1002303468886 3412.0133671275726 A 6249 6249 0 0 1 1830.2897243652633 1830.289724365265 Z" class="dartboard_lp_6d3c3LGNjn6fYELI9BaI" />
<path d="M 6249 6249 L 943.1190430364468 3545.518620439216 A 5954.929411764706 5954.929411764706 0 0 1 2038.2290314539568 2038.2290314539587 Z" class="dartboard_lp_VcAPViFKvhS6nJEOJpDF" />
<path d="M 6249 6249 L 2744.49838027716 4463.367236956767 A 3933.1941176470586 3933.1941176470586 0 0 1 3467.811767688725 3467.8117676887255 Z" class="dartboard_lp_6d3c3LGNjn6fYELI9BaI" />
<path d="M 6249 6249 L 3006.5171929667176 4596.87249026841 A 3639.123529411765 3639.123529411765 0 0 1 3675.751074777418 3675.7510747774186 Z" class="dartboard_lp_VcAPViFKvhS6nJEOJpDF" />
<text x="2249.170011113548" y="3342.9534082827836" class="dartboard_lp_M3DCZ4IrXkUQXbQ1Wff8" text-anchor="middle" dominant-baseline="middle">9</text>
</g>
<g class="dart-12">
<path d="M 6249 6249 L 1830.2897243652633 1830.289724365265 A 6249 6249 0 0 1 3412.013367127571 681.1002303468895 Z" class="dartboard_lp_l4sCkPeRA1s9IP8crzki" />
<path d="M 6249 6249 L 2038.2290314539568 2038.2290314539587 A 5954.929411764706 5954.929411764706 0 0 1 3545.518620439215 943.1190430364477 Z" class="dartboard_lp_M3DCZ4IrXkUQXbQ1Wff8" />
<path d="M 6249 6249 L 3467.811767688725 3467.8117676887255 A 3933.1941176470586 3933.1941176470586 0 0 1 4463.367236956766 2744.4983802771603 Z" class="dartboard_lp_l4sCkPeRA1s9IP8crzki" />
<path d="M 6249 6249 L 3675.751074777418 3675.7510747774186 A 3639.123529411765 3639.123529411765 0 0 1 4596.872490268409 3006.5171929667176 Z" class="dartboard_lp_M3DCZ4IrXkUQXbQ1Wff8" />
<text x="3342.953408282782" y="2249.1700111135488" class="dartboard_lp_VcAPViFKvhS6nJEOJpDF" text-anchor="middle" dominant-baseline="middle">12</text>
</g>
<g class="dart-5">
<path d="M 6249 6249 L 3412.013367127571 681.1002303468895 A 6249 6249 0 0 1 5271.441027963596 76.93555962098435 Z" class="dartboard_lp_6d3c3LGNjn6fYELI9BaI" />
<path d="M 6249 6249 L 3545.518620439215 943.1190430364477 A 5954.929411764706 5954.929411764706 0 0 1 5317.443803118251 367.385650932938 Z" class="dartboard_lp_VcAPViFKvhS6nJEOJpDF" />
<path d="M 6249 6249 L 4463.367236956766 2744.4983802771603 A 3933.1941176470586 3933.1941176470586 0 0 1 5633.712882306499 2364.23002870262 Z" class="dartboard_lp_6d3c3LGNjn6fYELI9BaI" />
<path d="M 6249 6249 L 4596.872490268409 3006.5171929667176 A 3639.123529411765 3639.123529411765 0 0 1 5679.715657461153 2654.6801200145733 Z" class="dartboard_lp_VcAPViFKvhS6nJEOJpDF" />
<text x="4721.200893466489" y="1546.9178417107541" class="dartboard_lp_M3DCZ4IrXkUQXbQ1Wff8" text-anchor="middle" dominant-baseline="middle">5</text>
</g>
<circle cx="6249" cy="6249" r="593.655" fill="#28a040" />
<circle cx="6249" cy="6249" r="237.462" fill="#f81810" />
</svg>