<svg width="9000" height="9000" xmlns="http://www.w3.org/2000/svg"><style>

    .dartboard_lg_Kvuo4MlGpZbETfYKPM9s {
        fill: #f0d8b8;
    }
    .dartboard_lg_aTiYhn4RhmvtdkyVU0bF {
        fill: #000000;
    }
    .dartboard_lg_YK9atQIbWeOrgTu0GMBV {
        fill: #28a040;
    }
    .dartboard_lg_PBOFo1gl2YDXbZlZ3EF2 {
        fill: #f81810;
    }
    text.dartboard_lg_Kvuo4MlGpZbETfYKPM9s {
        fill: #ffffff;
    }
    text.dartboard_lg_aTiYhn4RhmvtdkyVU0bF {
        fill: #000000;
    }
    text {
        font-family: Arial, sans-serif;
        font-weight: bold;
        font-size: 450.0px;
    }
    path, circle {
        stroke: #000000;
        stroke-width: 22.5px;
    }
    
</style><g class="dart-20">
<path d="M 4500 4500 L 3796.04490731896 55.40246732188098 A 4500 4500 0 0 1 5203.955092681038 55.40246732188007 Z" class="dartboard_lg_PBOFo1gl2YDXbZlZ3EF2" />
<path d="M 4500 4500 L 3829.1722057980683 264.5599982714393 A 4288.235294117647 4288.235294117647 0 0 1 5170.82779420193 264.5599982714384 Z" class="dartboard_lg_aTiYhn4RhmvtdkyVU0bF" />
<path d="M 4500 4500 L 4056.9223828419335 1702.5180235496541 A 2832.3529411764707 2832.3529411764707 0 0 1 4943.077617158066 1702.5180235496537 Z" class="dartboard_lg_PBOFo1gl2YDXbZlZ3EF2" />
<path d="M 4500 4500 L 4090.0496813210416 1911.6755544992125 A 2620.588235294118 2620.588235294118 0 0 1 4909.950318678957 1911.675554499212 Z" class="dartboard_lg_aTiYhn4RhmvtdkyVU0bF" />
<text x="4500.0" y="939.7058823529414" class="dartboard_lg_Kvuo4MlGpZbETfYKPM9s" text-anchor="middle" dominant-baseline="middle">20</text>
</g>
<g class="dart-1">
<path d="M 4500 4500 L 5203.955092681038 55.40246732188007 A 4500 4500 0 0 1 6542.95724882796 490.4706411523439 Z" class="dartboard_lg_YK9atQIbWeOrgTu0GMBV" />
<path d="M 4500 4500 L 5170.82779420193 264.5599982714384 A 4288.235294117647 4288.235294117647 0 0 1 6446.818084177232 679.1543756863516 Z" class="dartboard_lg_Kvuo4MlGpZbETfYKPM9s" />
<path d="M 4500 4500 L 4943.077617158066 1702.5180235496537 A 2832.3529411764707 2832.3529411764707 0 0 1 5785.86132720348 1976.3550506076517 Z" class="dartboard_lg_YK9atQIbWeOrgTu0GMBV" />
<path d="M 4500 4500 L 4909.950318678957 1911.675554499212 A 2620.588235294118 2620.588235294118 0 0 1 5689.722162552753 2165.038785141659 Z" class="dartboard_lg_Kvuo4MlGpZbETfYKPM9s" />
<text x="5600.1913873261" y="1113.9590794844612" class="dartboard_lg_aTiYhn4RhmvtdkyVU0bF" text-anchor="middle" dominant-baseline="middle">1</text>
</g>
<g class="dart-18">
<path d="M 4500 4500 L 6542.95724882796 490.4706411523439 A 4500 4500 0 0 1 7681.980515339463 1318.0194846605355 Z" class="dartboard_lg_PBOFo1gl2YDXbZlZ3EF2" />
<path d="M 4500 4500 L 6446.818084177232 679.1543756863516 A 4288.235294117647 4288.235294117647 0 0 1 7532.240255794077 1467.7597442059223 Z" class="dartboard_lg_aTiYhn4RhmvtdkyVU0bF" />
<path d="M 4500 4500 L 5785.86132720348 1976.3550506076517 A 2832.3529411764707 2832.3529411764707 0 0 1 6502.7759714195445 2497.2240285804546 Z" class="dartboard_lg_PBOFo1gl2YDXbZlZ3EF2" />
<path d="M 4500 4500 L 5689.722162552753 2165.038785141659 A 2620.588235294118 2620.588235294118 0 0 1 6353.035711874158 2646.964288125841 Z" class="dartboard_lg_aTiYhn4RhmvtdkyVU0bF" />
<text x="6592.688376176584" y="1619.661553850371" class="dartboard_lg_Kvuo4MlGpZbETfYKPM9s" text-anchor="middle" dominant-baseline="middle">18</text>
</g>
<g class="dart-4">
<path d="M 4500 4500 L 7681.980515339463 1318.0194846605355 A 4500 4500 0 0 1 8509.529358847656 2457.0427511720386 Z" class="dartboard_lg_YK9atQIbWeOrgTu0GMBV" />
<path d="M 4500 4500 L 7532.240255794077 1467.7597442059223 A 4288.235294117647 4288.235294117647 0 0 1 8320.845624313648 2553.1819158227663 Z" class="dartboard_lg_Kvuo4MlGpZbETfYKPM9s" />
<path d="M 4500 4500 L 6502.7759714195445 2497.2240285804546 A 2832.3529411764707 2832.3529411764707 0 0 1 7023.644949392348 3214.138672796518 Z" class="dartboard_lg_YK9atQIbWeOrgTu0GMBV" />
<path d="M 4500 4500 L 6353.035711874158 2646.964288125841 A 2620.588235294118 2620.588235294118 0 0 1 6834.961214858341 3310.277837447246 Z" class="dartboard_lg_Kvuo4MlGpZbETfYKPM9s" />
<text x="7380.338446149629" y="2407.3116238234156" class="dartboard_lg_aTiYhn4RhmvtdkyVU0bF" text-anchor="middle" dominant-baseline="middle">4</text>
</g>
<g class="dart-13">
<path d="M 4500 4500 L 8509.529358847656 2457.0427511720386 A 4500 4500 0 0 1 8944.597532678119 3796.04490731896 Z" class="dartboard_lg_PBOFo1gl2YDXbZlZ3EF2" />
<path d="M 4500 4500 L 8320.845624313648 2553.1819158227663 A 4288.235294117647 4288.235294117647 0 0 1 8735.44000172856 3829.172205798068 Z" class="dartboard_lg_aTiYhn4RhmvtdkyVU0bF" />
<path d="M 4500 4500 L 7023.644949392348 3214.138672796518 A 2832.3529411764707 2832.3529411764707 0 0 1 7297.481976450346 4056.9223828419335 Z" class="dartboard_lg_PBOFo1gl2YDXbZlZ3EF2" />
<path d="M 4500 4500 L 6834.961214858341 3310.277837447246 A 2620.588235294118 2620.588235294118 0 0 1 7088.324445500787 4090.049681321041 Z" class="dartboard_lg_aTiYhn4RhmvtdkyVU0bF" />
<text x="7886.040920515539" y="3399.808612673901" class="dartboard_lg_Kvuo4MlGpZbETfYKPM9s" text-anchor="middle" dominant-baseline="middle">13</text>
</g>
<g class="dart-6">
<path d="M 4500 4500 L 8944.597532678119 3796.04490731896 A 4500 4500 0 0 1 8944.597532678119 5203.955092681039 Z" class="dartboard_lg_YK9atQIbWeOrgTu0GMBV" />
<path d="M 4500 4500 L 8735.44000172856 3829.172205798068 A 4288.235294117647 4288.235294117647 0 0 1 8735.440001728562 5170.827794201931 Z" class="dartboard_lg_Kvuo4MlGpZbETfYKPM9s" />
<path d="M 4500 4500 L 7297.481976450346 4056.9223828419335 A 2832.3529411764707 2832.3529411764707 0 0 1 7297.481976450346 4943.077617158066 Z" class="dartboard_lg_YK9atQIbWeOrgTu0GMBV" />
<path d="M 4500 4500 L 7088.324445500787 4090.049681321041 A 2620.588235294118 2620.588235294118 0 0 1 7088.324445500788 4909.950318678958 Z" class="dartboard_lg_Kvuo4MlGpZbETfYKPM9s" />
<text x="8060.294117647059" y="4500.0" class="dartboard_lg_aTiYhn4RhmvtdkyVU0bF" text-anchor="middle" dominant-baseline="middle">6</text>
</g>
<g class="dart-10">
<path d="M 4500 4500 L 8944.597532678119 5203.955092681039 A 4500 4500 0 0 1 8509.529358847656 6542.957248827961 Z" class="dartboard_lg_PBOFo1gl2YDXbZlZ3EF2" />
<path d="M 4500 4500 L 8735.440001728562 5170.827794201931 A 4288.235294117647 4288.235294117647 0 0 1 8320.845624313648 6446.818084177233 Z" class="dartboard_lg_aTiYhn4RhmvtdkyVU0bF" />
<path d="M 4500 4500 L 7297.481976450346 4943.077617158066 A 2832.3529411764707 2832.3529411764707 0 0 1 7023.644949392348 5785.861327203482 Z" class="dartboard_lg_PBOFo1gl2YDXbZlZ3EF2" />
<path d="M 4500 4500 L 7088.324445500788 4909.950318678958 A 2620.588235294118 2620.588235294118 0 0 1 6834.961214858341 5689.722162552754 Z" class="dartboard_lg_aTiYhn4RhmvtdkyVU0bF" />
<text x="7886.040920515539" y="5600.191387326099" class="dartboard_lg_Kvuo4MlGpZbETfYKPM9s" text-anchor="middle" dominant-baseline="middle">10</text>
</g>
<g class="dart-15">
<path d="M 4500 4500 L 8509.529358847656 6542.957248827961 A 4500 4500 0 0 1 7681.980515339465 7681.980515339464 Z" class="dartboard_lg_YK9atQIbWeOrgTu0GMBV" />
<path d="M 4500 4500 L 8320.845624313648 6446.818084177233 A 4288.235294117647 4288.235294117647 0 0 1 7532.240255794077 7532.240255794077 Z" class="dartboard_lg_Kvuo4MlGpZbETfYKPM9s" />
<path d="M 4500 4500 L 7023.644949392348 5785.861327203482 A 2832.3529411764707 2832.3529411764707 0 0 1 6502.775971419545 6502.775971419545 Z" class="dartboard_lg_YK9atQIbWeOrgTu0GMBV" />
<path d="M 4500 4500 L 6834.961214858341 5689.722162552754 A 2620.588235294118 2620.588235294118 0 0 1 6353.035711874159 6353.035711874159 Z" class="dartboard_lg_Kvuo4MlGpZbETfYKPM9s" />
<text x="7380.338446149629" y="6592.688376176584" class="dartboard_lg_aTiYhn4RhmvtdkyVU0bF" text-anchor="middle" dominant-baseline="middle">15</text>
</g>
<g class="dart-2">
<path d="M 4500 4500 L 7681.980515339465 7681.980515339464 A 4500 4500 0 0 1 6542.957248827961 8509.529358847656 Z" class="dartboard_lg_PBOFo1gl2YDXbZlZ3EF2" />
<path d="M 4500 4500 L 7532.240255794077 7532.240255794077 A 4288.235294117647 4288.235294117647 0 0 1 6446.818084177233 8320.845624313648 Z" class="dartboard_lg_aTiYhn4RhmvtdkyVU0bF" />
<path d="M 4500 4500 L 6502.775971419545 6502.775971419545 A 2832.3529411764707 2832.3529411764707 0 0 1 5785.861327203482 7023.644949392348 Z" class="dartboard_lg_PBOFo1gl2YDXbZlZ3EF2" />
<path d="M 4500 4500 L 6353.035711874159 6353.035711874159 A 2620.588235294118 2620.588235294118 0 0 1 5689.722162552754 6834.961214858341 Z" class="dartboard_lg_aTiYhn4RhmvtdkyVU0bF" />
<text x="6592.688376176584" y="7380.338446149629" class="dartboard_lg_Kvuo4MlGpZbETfYKPM9s" text-anchor="middle" dominant-baseline="middle">2</text>
</g>
<g class="dart-17">
<path d="M 4500 4500 L 6542.957248827961 8509.529358847656 A 4500 4500 0 0 1 5203.955092681039 8944.597532678119 Z" class="dartboard_lg_YK9atQIbWeOrgTu0GMBV" />
<path d="M 4500 4500 L 6446.818084177233 8320.845624313648 A 4288.235294117647 4288.235294117647 0 0 1 5170.827794201931 8735.440001728562 Z" class="dartboard_lg_Kvuo4MlGpZbETfYKPM9s" />
<path d="M 4500 4500 L 5785.861327203482 7023.644949392348 A 2832.3529411764707 2832.3529411764707 0 0 1 4943.077617158066 7297.481976450346 Z" class="dartboard_lg_YK9atQIbWeOrgTu0GMBV" />
<path d="M 4500 4500 L 5689.722162552754 6834.961214858341 A 2620.588235294118 2620.588235294118 0 0 1 4909.950318678958 7088.324445500788 Z" class="dartboard_lg_Kvuo4MlGpZbETfYKPM9s" />
<text x="5600.1913873261" y="7886.040920515539" class="dartboard_lg_aTiYhn4RhmvtdkyVU0bF" text-anchor="middle" dominant-baseline="middle">17</text>
</g>
<g class="dart-3">
<path d="M 4500 4500 L 5203.955092681039 8944.597532678119 A 4500 4500 0 0 1 3796.044907318961 8944.597532678119 Z" class="dartboard_lg_PBOFo1gl2YDXbZlZ3EF2" />
<path d="M 4500 4500 L 5170.827794201931 8735.440001728562 A 4288.235294117647 4288.235294117647 0 0 1 3829.172205798069 8735.440001728562 Z" class="dartboard_lg_aTiYhn4RhmvtdkyVU0bF" />
<path d="M 4500 4500 L 4943.077617158066 7297.481976450346 A 2832.3529411764707 2832.3529411764707 0 0 1 4056.9223828419344 7297.481976450346 Z" class="dartboard_lg_PBOFo1gl2YDXbZlZ3EF2" />
<path d="M 4500 4500 L 4909.950318678958 7088.324445500788 A 2620.588235294118 2620.588235294118 0 0 1 4090.049681321042 7088.324445500788 Z" class="dartboard_lg_aTiYhn4RhmvtdkyVU0bF" />
<text x="4500.0" y="8060.294117647059" class="dartboard_lg_Kvuo4MlGpZbETfYKPM9s" text-anchor="middle" dominant-baseline="middle">3</text>
</g>
<g class="dart-19">
<path d="M 4500 4500 L 3796.044907318961 8944.597532678119 A 4500 4500 0 0 1 2457.04275117204 8509.529358847656 Z" class="dartboard_lg_YK9atQIbWeOrgTu0GMBV" />
<path d="M 4500 4500 L 3829.172205798069 8735.440001728562 A 4288.235294117647 4288.235294117647 0 0 1 2553.181915822767 8320.845624313648 Z" class="dartboard_lg_Kvuo4MlGpZbETfYKPM9s" />
<path d="M 4500 4500 L 4056.9223828419344 7297.481976450346 A 2832.3529411764707 2832.3529411764707 0 0 1 3214.138672796519 7023.644949392348 Z" class="dartboard_lg_YK9atQIbWeOrgTu0GMBV" />
<path d="M 4500 4500 L 4090.049681321042 7088.324445500788 A 2620.588235294118 2620.588235294118 0 0 1 3310.2778374472464 6834.961214858341 Z" class="dartboard_lg_Kvuo4MlGpZbETfYKPM9s" />
<text x="3399.808612673901" y="7886.040920515539" class="dartboard_lg_aTiYhn4RhmvtdkyVU0bF" text-anchor="middle" dominant-baseline="middle">19</text>
</g>
<g class="dart-7">
<path d="M 4500 4500 L 2457.04275117204 8509.529358847656 A 4500 4500 0 0 1 1318.0194846605364 7681.980515339465 Z" class="dartboard_lg_PBOFo1gl2YDXbZlZ3EF2" />
<path d="M 4500 4500 L 2553.181915822767 8320.845624313648 A 4288.235294117647 4288.235294117647 0 0 1 1467.7597442059232 7532.240255794077 Z" class="dartboard_lg_aTiYhn4RhmvtdkyVU0bF" />
<path d="M 4500 4500 L 3214.138672796519 7023.644949392348 A 2832.3529411764707 2832.3529411764707 0 0 1 2497.224028580455 6502.775971419545 Z" class="dartboard_lg_PBOFo1gl2YDXbZlZ3EF2" />
<path d="M 4500 4500 L 3310.2778374472464 6834.961214858341 A 2620.588235294118 2620.588235294118 0 0 1 2646.9642881258414 6353.035711874159 Z" class="dartboard_lg_aTiYhn4RhmvtdkyVU0bF" />
<text x="2407.311623823416" y="7380.338446149629" class="dartboard_lg_Kvuo4MlGpZbETfYKPM9s" text-anchor="middle" dominant-baseline="middle">7</text>
</g>
<g class="dart-16">
<path d="M 4500 4500 L 1318.0194846605364 7681.980515339465 A 4500 4500 0 0 1 490.4706411523448 6542.957248827961 Z" class="dartboard_lg_YK9atQIbWeOrgTu0GMBV" />
<path d="M 4500 4500 L 1467.7597442059232 7532.240255794077 A 4288.235294117647 4288.235294117647 0 0 1 679.1543756863525 6446.818084177234 Z" class="dartboard_lg_Kvuo4MlGpZbETfYKPM9s" />
<path d="M 4500 4500 L 2497.224028580455 6502.775971419545 A 2832.3529411764707 2832.3529411764707 0 0 1 1976.3550506076522 5785.861327203482 Z" class="dartboard_lg_YK9atQIbWeOrgTu0GMBV" />
<path d="M 4500 4500 L 2646.9642881258414 6353.035711874159 A 2620.588235294118 2620.588235294118 0 0 1 2165.0387851416594 5689.722162552754 Z" class="dartboard_lg_Kvuo4MlGpZbETfYKPM9s" />
<text x="1619.6615538503715" y="6592.688376176585" class="dartboard_lg_aTiYhn4RhmvtdkyVU0bF" text-anchor="middle" dominant-baseline="middle">16</text>
</g>
<g class="dart-8">
<path d="M 4500 4500 L 490.4706411523448 6542.957248827961 A 4500 4500 0 0 1 55.40246732188098 5203.95509268104 Z" class="dartboard_lg_PBOFo1gl2YDXbZlZ3EF2" />
<path d="M 4500 4500 L 679.1543756863525 6446.818084177234 A 4288.235294117647 4288.235294117647 0 0 1 264.5599982714393 5170.827794201931 Z" class="dartboard_lg_aTiYhn4RhmvtdkyVU0bF" />
<path d="M 4500 4500 L 1976.3550506076522 5785.861327203482 A 2832.3529411764707 2832.3529411764707 0 0 1 1702.5180235496541 4943.077617158066 Z" class="dartboard_lg_PBOFo1gl2YDXbZlZ3EF2" />
<path d="M 4500 4500 L 2165.0387851416594 5689.722162552754 A 2620.588235294118 2620.588235294118 0 0 1 1911.6755544992125 4909.950318678959 Z" class="dartboard_lg_aTiYhn4RhmvtdkyVU0bF" />
<text x="1113.9590794844612" y="5600.1913873261" class="dartboard_lg_Kvuo4MlGpZbETfYKPM9s" text-anchor="middle" dominant-baseline="middle">8</text>
</g>
<g class="dart-11">
<path d="M 4500 4500 L 55.40246732188098 5203.95509268104 A 4500 4500 0 0 1 55.40246732188007 3796.0449073189616 Z" class="dartboard_lg_YK9atQIbWeOrgTu0GMBV" />
<path d="M 4500 4500 L 264.5599982714393 5170.827794201931 A 4288.235294117647 4288.235294117647 0 0 1 264.5599982714384 3829.1722057980696 Z" class="dartboard_lg_Kvuo4MlGpZbETfYKPM9s" />
<path d="M 4500 4500 L 1702.5180235496541 4943.077617158066 A 2832.3529411764707 2832.3529411764707 0 0 1 1702.5180235496537 4056.9223828419344 Z" class="dartboard_lg_YK9atQIbWeOrgTu0GMBV" />
<path d="M 4500 4500 L 1911.6755544992125 4909.950318678959 A 2620.588235294118 2620.588235294118 0 0 1 1911.675554499212 4090.049681321042 Z" class="dartboard_lg_Kvuo4MlGpZbETfYKPM9s" />
<text x="939.7058823529414" y="4500.0" class="dartboard_lg_aTiYhn4RhmvtdkyVU0bF" text-anchor="middle" dominant-baseline="middle">11</text>
</g>
<g class="dart-14">
<path d="M 4500 4500 L 55.40246732188007 3796.0449073189616 A 4500 4500 0 0 1 490.47064115234434 2457.04275117204 Z" class="dartboard_lg_PBOFo1gl2YDXbZlZ3EF2" />
<path d="M 4500 4500 L 264.5599982714384 3829.1722057980696 A 4288.235294117647 4288.235294117647 0 0 1 679.1543756863521 2553.181915822767 Z" class="dartboard_lg_aTiYhn4RhmvtdkyVU0bF" />
<path d="M 4500 4500 L 1702.5180235496537 4056.9223828419344 A 2832.3529411764707 2832.3529411764707 0 0 1 1976.3550506076522 3214.138672796519 Z" class="dartboard_lg_PBOFo1gl2YDXbZlZ3EF2" />
<path d="M 4500 4500 L 1911.675554499212 4090.049681321042 A 2620.588235294118 2620.588235294118 0 0 1 2165.038785141659 3310.2778374472464 Z" class="dartboard_lg_aTiYhn4RhmvtdkyVU0bF" />
<text x="1113.9590794844607" y="3399.808612673901" class="dartboard_lg_Kvuo4MlGpZbETfYKPM9s" text-anchor="middle" dominant-baseline="middle">14</text>
</g>
<g class="dart-9">
<path d="M 4500 4500 L 490.47064115234434 2457.04275117204 A 4500 4500 0 0 1 1318.0194846605355 1318.0194846605364 Z" class="dartboard_lg_YK9atQIbWeOrgTu0GMBV" />
<path d="M 4500 4500 L 679.1543756863521 2553.181915822767 A 4288.235294117647 4288.235294117647 0 0 1 1467.7597442059223 1467.7597442059232 Z" class="dartboard_lg_Kvuo4MlGpZbETfYKPM9s" />
<path d="M 4500 4500 L 1976.3550506076522 3214.138672796519 A 2832.3529411764707 2832.3529411764707 0 0 1 2497.2240285804546 2497.224028580455 Z" class="dartboard_lg_YK9atQIbWeOrgTu0GMBV" />
<path d="M 4500 4500 L 2165.038785141659 3310.2778374472464 A 2620.588235294118 2620.588235294118 0 0 1 2646.964288125841 2646.9642881258414 Z" class="dartboard_lg_Kvuo4MlGpZbETfYKPM9s" />
<text x="1619.6615538503706" y="2407.311623823416" class="dartboard_lg_aTiYhn4RhmvtdkyVU0bF" text-anchor="middle" dominant-baseline="middle">9</text>
</g>
<g class="dart-12">
<path d="M 4500 4500 L 1318.0194846605355 1318.0194846605364 A 4500 4500 0 0 1 2457.042751172039 490.4706411523448 Z" class="dartboard_lg_PBOFo1gl2YDXbZlZ3EF2" />
<path d="M 4500 4500 L 1467.7597442059223 1467.7597442059232 A 4288.235294117647 4288.235294117647 0 0 1 2553.1819158227663 679.1543756863525 Z" class="dartboard_lg_aTiYhn4RhmvtdkyVU0bF" />
<path d="M 4500 4500 L 2497.2240285804546 2497.224028580455 A 2832.3529411764707 2832.3529411764707 0 0 1 3214.138672796518 1976.3550506076522 Z" class="dartboard_lg_PBOFo1gl2YDXbZlZ3EF2" />
<path d="M 4500 4500 L 2646.964288125841 2646.9642881258414 A 2620.588235294118 2620.588235294118 0 0 1 3310.277837447246 2165.0387851416594 Z" class="dartboard_lg_aTiYhn4RhmvtdkyVU0bF" />
<text x="2407.311623823415" y="1619.6615538503715" class="dartboard_lg_Kvuo4MlGpZbETfYKPM9s" text-anchor="middle" dominant-baseline="middle">12</text>
</g>
<g class="dart-5">
<path d="M 4500 4500 L 2457.042751172039 490.4706411523448 A 4500 4500 0 0 1 3796.04490731896 55.40246732188098 Z" class="dartboard_lg_YK9atQIbWeOrgTu0GMBV" />
<path d="M 4500 4500 L 2553.1819158227663 679.1543756863525 A 4288.235294117647 4288.235294117647 0 0 1 3829.1722057980683 264.5599982714393 Z" class="dartboard_lg_Kvuo4MlGpZbETfYKPM9s" />
<path d="M 4500 4500 L 3214.138672796518 1976.3550506076522 A 2832.3529411764707 2832.3529411764707 0 0 1 4056.9223828419335 1702.5180235496541 Z" class="dartboard_lg_YK9atQIbWeOrgTu0GMBV" />
<path d="M 4500 4500 L 3310.277837447246 2165.0387851416594 A 2620.588235294118 2620.588235294118 0 0 1 4090.0496813210416 1911.6755544992125 Z" class="dartboard_lg_Kvuo4MlGpZbETfYKPM9s" />
<text x="3399.8086126739" y="1113.9590794844612" class="dartboard_lg_aTiYhn4RhmvtdkyVU0bF" text-anchor="middle" dominant-baseline="middle">5</text>
</g>
<circle cx="4500" cy="4500" r="427.5" fill="#28a040" />
<circle cx="4500" cy="4500" r="171.0" fill="#f81810" />
</svg>