<?xml version="1.0" encoding="UTF-8" standalone="no"?>
<svg
   xmlns:dc="http://purl.org/dc/elements/1.1/"
   xmlns:cc="http://creativecommons.org/ns#"
   xmlns:rdf="http://www.w3.org/1999/02/22-rdf-syntax-ns#"
   xmlns:svg="http://www.w3.org/2000/svg"
   xmlns="http://www.w3.org/2000/svg"
   xmlns:sodipodi="http://sodipodi.sourceforge.net/DTD/sodipodi-0.dtd"
   xmlns:inkscape="http://www.inkscape.org/namespaces/inkscape"
   inkscape:version="1.1-dev (ddb55ca, 2020-02-02)"
   height="208.38683"
   width="209.95036"
   sodipodi:docname="t-icon-eval-mode-12.svg"
   viewBox="0 0 209.95037 208.38683"
   version="1.1"
   id="svgControlButtons">
  <metadata
     id="metadata9594">
    <rdf:RDF>
      <cc:Work
         rdf:about="">
        <dc:format>image/svg+xml</dc:format>
        <dc:type
           rdf:resource="http://purl.org/dc/dcmitype/StillImage" />
        <dc:title />
      </cc:Work>
    </rdf:RDF>
  </metadata>
  <sodipodi:namedview
     inkscape:current-layer="svgControlButtons"
     inkscape:window-maximized="0"
     inkscape:window-y="25"
     inkscape:window-x="0"
     inkscape:cy="72.425525"
     inkscape:cx="71.156584"
     inkscape:zoom="2.6377855"
     fit-margin-bottom="0"
     fit-margin-right="0"
     fit-margin-left="0"
     fit-margin-top="0"
     showgrid="false"
     id="namedview9592"
     inkscape:window-height="1336"
     inkscape:window-width="2367"
     inkscape:pageshadow="2"
     inkscape:pageopacity="1"
     guidetolerance="10"
     gridtolerance="10"
     objecttolerance="10"
     borderopacity="1"
     bordercolor="#666666"
     pagecolor="#ffffff" />
  <defs
     id="defs3304" />
  <g
     id="g199">
    <rect
       style="fill:#333333;fill-opacity:1;fill-rule:evenodd;stroke:none;stroke-width:3;stroke-linecap:round;stroke-linejoin:round;stroke-miterlimit:4;stroke-dasharray:none;stroke-dashoffset:0;stroke-opacity:1"
       id="rect8738"
       width="210.40376"
       height="208.88734"
       x="-0.3791059"
       y="-0.50051576" />
    <g
       id="g191">
      <path
         d="M 48.833975,136.63974 H 32.411561 V 91.677401 l 0.159441,-7.38743 0.265735,-8.07834 Q 28.74442,80.303948 27.15001,81.579476 L 18.221319,88.754317 10.30242,78.86898 35.334644,58.938865 h 13.499331 z"
         style="font-style:normal;font-variant:normal;font-weight:normal;font-stretch:normal;font-size:121.651px;line-height:1.25;font-family:'Open Sans';-inkscape-font-specification:'Open Sans, Normal';font-variant-ligatures:normal;font-variant-caps:normal;font-variant-numeric:normal;font-feature-settings:normal;text-align:center;letter-spacing:0px;word-spacing:0px;writing-mode:lr-tb;text-anchor:middle;fill:#808080;fill-opacity:1;stroke:none;stroke-width:0.9604"
         id="path174"
         inkscape:connector-curvature="0" />
      <path
         d="m 109.79038,97.789303 q 0,20.355287 -6.69652,30.134337 -6.643367,9.77904 -20.514727,9.77904 -13.446184,0 -20.302144,-10.09793 -6.802812,-10.09792 -6.802812,-29.815447 0,-20.567879 6.643371,-30.293775 6.643372,-9.779043 20.461585,-9.779043 13.446184,0 20.302147,10.204219 6.9091,10.204218 6.9091,29.868599 z m -38.000083,0 q 0,14.296537 2.444761,20.514727 2.497908,6.16505 8.344075,6.16505 5.739873,0 8.290928,-6.27134 2.551054,-6.27134 2.551054,-20.408437 0,-14.296536 -2.604201,-20.514732 -2.551055,-6.271343 -8.237781,-6.271343 -5.79302,0 -8.290928,6.271343 -2.497908,6.218196 -2.497908,20.514732 z"
         style="font-style:normal;font-variant:normal;font-weight:normal;font-stretch:normal;font-size:121.651px;line-height:1.25;font-family:'Open Sans';-inkscape-font-specification:'Open Sans, Normal';font-variant-ligatures:normal;font-variant-caps:normal;font-variant-numeric:normal;font-feature-settings:normal;text-align:center;letter-spacing:0px;word-spacing:0px;writing-mode:lr-tb;text-anchor:middle;fill:#808080;fill-opacity:1;stroke:none;stroke-width:0.9604"
         id="path176"
         inkscape:connector-curvature="0" />
      <path
         d="m 138.01143,125.21314 q -2.76365,10.73569 -9.35387,25.4574 h -11.69234 q 3.45456,-14.13709 5.36785,-26.67978 h 14.88115 z"
         style="font-style:normal;font-variant:normal;font-weight:normal;font-stretch:normal;font-size:121.651px;line-height:1.25;font-family:'Open Sans';-inkscape-font-specification:'Open Sans, Normal';font-variant-ligatures:normal;font-variant-caps:normal;font-variant-numeric:normal;font-feature-settings:normal;text-align:center;letter-spacing:0px;word-spacing:0px;writing-mode:lr-tb;text-anchor:middle;fill:#808080;fill-opacity:1;stroke:none;stroke-width:0.9604"
         id="path178"
         inkscape:connector-curvature="0" />
      <path
         d="m 203.64794,92.102576 q 0,22.959494 -9.67275,34.279794 -9.67275,11.32031 -29.28398,11.32031 -6.90911,0 -10.46996,-0.74406 v -13.18045 q 4.46435,1.11609 9.35387,1.11609 8.23778,0 13.55248,-2.39161 5.3147,-2.44477 8.13149,-7.60002 2.81679,-5.20841 3.24196,-14.29654 h -0.63776 q -3.08253,4.99582 -7.1217,7.0154 -4.03917,2.01959 -10.09792,2.01959 -10.15107,0 -15.99724,-6.48393 -5.84617,-6.537081 -5.84617,-18.123121 0,-12.489539 7.06855,-19.717527 7.1217,-7.281135 19.3455,-7.281135 8.60981,0 15.04059,4.03917 6.48393,4.039169 9.93849,11.745481 3.45455,7.653164 3.45455,18.282558 z m -28.11475,-20.88676 q -5.10211,0 -7.97205,3.5077 -2.86993,3.5077 -2.86993,10.097925 0,5.633579 2.6042,8.928692 2.6042,3.295112 7.9189,3.295112 4.99581,0 8.55666,-3.241965 3.56085,-3.295113 3.56085,-7.546871 0,-6.324489 -3.34826,-10.682541 -3.29511,-4.358052 -8.45037,-4.358052 z"
         style="font-style:normal;font-variant:normal;font-weight:normal;font-stretch:normal;font-size:121.651px;line-height:1.25;font-family:'Open Sans';-inkscape-font-specification:'Open Sans, Normal';font-variant-ligatures:normal;font-variant-caps:normal;font-variant-numeric:normal;font-feature-settings:normal;text-align:center;letter-spacing:0px;word-spacing:0px;writing-mode:lr-tb;text-anchor:middle;fill:#ffffff;fill-opacity:1;stroke:none;stroke-width:0.9604"
         id="path180"
         inkscape:connector-curvature="0" />
    </g>
  </g>
</svg>
