<?xml version="1.0" encoding="UTF-8" standalone="no"?>
<svg
   xmlns:dc="http://purl.org/dc/elements/1.1/"
   xmlns:cc="http://creativecommons.org/ns#"
   xmlns:rdf="http://www.w3.org/1999/02/22-rdf-syntax-ns#"
   xmlns:svg="http://www.w3.org/2000/svg"
   xmlns="http://www.w3.org/2000/svg"
   xmlns:sodipodi="http://sodipodi.sourceforge.net/DTD/sodipodi-0.dtd"
   xmlns:inkscape="http://www.inkscape.org/namespaces/inkscape"
   inkscape:version="1.1-dev (ddb55ca, 2020-02-02)"
   height="208.38683"
   width="209.95036"
   sodipodi:docname="t-icon-eval-mode-9.svg"
   viewBox="0 0 209.95037 208.38683"
   version="1.1"
   id="svgControlButtons">
  <metadata
     id="metadata9594">
    <rdf:RDF>
      <cc:Work
         rdf:about="">
        <dc:format>image/svg+xml</dc:format>
        <dc:type
           rdf:resource="http://purl.org/dc/dcmitype/StillImage" />
        <dc:title />
      </cc:Work>
    </rdf:RDF>
  </metadata>
  <sodipodi:namedview
     inkscape:current-layer="svgControlButtons"
     inkscape:window-maximized="0"
     inkscape:window-y="25"
     inkscape:window-x="0"
     inkscape:cy="21.57645"
     inkscape:cx="30.207029"
     inkscape:zoom="1.2481522"
     fit-margin-bottom="0"
     fit-margin-right="0"
     fit-margin-left="0"
     fit-margin-top="0"
     showgrid="false"
     id="namedview9592"
     inkscape:window-height="1336"
     inkscape:window-width="2367"
     inkscape:pageshadow="2"
     inkscape:pageopacity="0"
     guidetolerance="10"
     gridtolerance="10"
     objecttolerance="10"
     borderopacity="1"
     bordercolor="#666666"
     pagecolor="#ffffff" />
  <defs
     id="defs3304" />
  <g
     id="g1546">
    <g
       id="g2664"
       transform="matrix(1.7639262,0,0,1.7639262,-23.038324,-139.69129)"
       style="opacity:1">
      <path
         inkscape:connector-curvature="0"
         id="path2645"
         style="opacity:1;fill:none;stroke:#ffffff;stroke-width:4;stroke-linecap:round;stroke-linejoin:round;stroke-miterlimit:4;stroke-dasharray:none;stroke-opacity:1"
         d="m 205.74108,174.5451 a 169.45307,169.4414 0 1 1 -338.90613,0 169.45307,169.4414 0 1 1 338.90613,0 z" />
      <g
         transform="matrix(0.35782351,0,0,0.35782351,-146.63102,-8.0035661)"
         id="g8380"
         style="display:inline">
        <path
           id="path8382"
           style="fill:#ffffff;fill-opacity:1;stroke:none"
           d="m 975.47946,510.16403 a 464.28043,464.24847 0 1 1 -928.560836,0 464.28043,464.24847 0 1 1 928.560836,0 z"
           inkscape:connector-curvature="0" />
      </g>
      <g
         transform="matrix(0.35782351,0,0,0.35782351,-146.631,-8.0035424)"
         id="g7265"
         style="display:inline">
        <path
           id="path7275"
           style="fill:none;stroke:none"
           d="m 822.99355,510.16397 a 311.79458,311.77312 0 1 1 -623.58915,0 311.79458,311.77312 0 1 1 623.58915,0 z"
           inkscape:connector-curvature="0" />
        <path
           id="use7287"
           style="fill:#ffffff;fill-opacity:1;fill-rule:nonzero;stroke:#ffffff;stroke-width:0.47008744;stroke-linecap:round;stroke-linejoin:round;stroke-miterlimit:4;stroke-dasharray:none;stroke-opacity:1"
           d="m 519.02598,510.16389 a 7.8271025,7.826564 0 1 1 -15.6542,0 7.8271025,7.826564 0 1 1 15.6542,0 z"
           inkscape:connector-curvature="0" />
      </g>
      <g
         transform="matrix(0.35782351,0,0,0.35782351,-146.631,-8.0035424)"
         style="display:inline"
         id="g8443">
        <path
           d="m 822.99355,510.16397 a 311.79458,311.77312 0 1 1 -623.58915,0 311.79458,311.77312 0 1 1 623.58915,0 z"
           style="opacity:0.71317827;fill:#01996f;fill-opacity:0.94117647;fill-rule:nonzero;stroke:none"
           id="path8445"
           inkscape:connector-curvature="0" />
        <path
           id="use8447"
           style="fill:#ffffff;fill-opacity:1;fill-rule:nonzero;stroke:#ffffff;stroke-width:0.47008744;stroke-linecap:round;stroke-linejoin:round;stroke-miterlimit:4;stroke-dasharray:none;stroke-opacity:1"
           d="m 519.02598,510.16389 a 7.8271025,7.826564 0 1 1 -15.6542,0 7.8271025,7.826564 0 1 1 15.6542,0 z"
           inkscape:connector-curvature="0" />
      </g>
      <path
         d="m 171.69708,174.5451 a 135.40909,135.39976 0 1 1 -270.818129,0 135.40909,135.39976 0 1 1 270.818129,0 z"
         style="opacity:1;fill:none;stroke:#323232;stroke-width:5.72517633;stroke-linecap:round;stroke-linejoin:round;stroke-miterlimit:4;stroke-dasharray:none;stroke-opacity:1"
         id="path8425"
         inkscape:connector-curvature="0" />
      <path
         d="m 147.85546,174.5451 a 111.56743,111.55976 0 1 1 -223.134864,0 111.56743,111.55976 0 1 1 223.134864,0 z"
         style="opacity:1;fill:none;stroke:#ffffff;stroke-width:0.71564704;stroke-linecap:round;stroke-linejoin:round;stroke-miterlimit:4;stroke-dasharray:none;stroke-opacity:1"
         id="path8429"
         inkscape:connector-curvature="0" />
      <path
         d="m 121.83683,174.5451 a 85.548803,85.542912 0 1 1 -171.097603,0 85.548803,85.542912 0 1 1 171.097603,0 z"
         style="opacity:1;fill:none;stroke:#ffffff;stroke-width:5.72517633;stroke-linecap:round;stroke-linejoin:round;stroke-miterlimit:4;stroke-dasharray:none;stroke-opacity:1"
         id="path8431"
         inkscape:connector-curvature="0" />
      <path
         d="m 92.76947,174.5451 a 56.481442,56.477558 0 1 1 -112.962884,0 56.481442,56.477558 0 1 1 112.962884,0 z"
         style="opacity:1;fill:none;stroke:#ffffff;stroke-width:5.72517633;stroke-linecap:round;stroke-linejoin:round;stroke-miterlimit:4;stroke-dasharray:none;stroke-opacity:1"
         id="path8435"
         inkscape:connector-curvature="0" />
      <path
         d="m 64.424501,174.5451 a 28.136461,28.134524 0 1 1 -56.2729228,0 28.136461,28.134524 0 1 1 56.2729228,0 z"
         style="opacity:1;fill:none;stroke:#ffffff;stroke-width:5.72517633;stroke-linecap:round;stroke-linejoin:round;stroke-miterlimit:4;stroke-dasharray:none;stroke-opacity:1"
         id="path8439"
         inkscape:connector-curvature="0" />
      <path
         id="use8441"
         style="fill:#ffffff;fill-opacity:1;fill-rule:nonzero;stroke:#ffffff;stroke-width:0.52159864;stroke-linecap:round;stroke-linejoin:round;stroke-miterlimit:4;stroke-dasharray:none;stroke-opacity:1"
         d="m 44.972789,174.54512 a 8.6847791,8.6841832 0 1 1 -17.369546,0 8.6847791,8.6841832 0 1 1 17.369546,0 z"
         inkscape:connector-curvature="0" />
      <path
         id="path5727"
         style="opacity:1;fill:#4d4d4d;fill-opacity:0.19607843;stroke:#000000;stroke-width:0;stroke-linecap:round;stroke-linejoin:round;stroke-miterlimit:4;stroke-dasharray:none;stroke-opacity:1"
         d="M -81.614761,289.05354 C 26.469327,180.96943 46.377823,161.06096 151.30502,56.133762 c 64.90604,64.867998 64.9178,170.078848 0.0258,234.970288 -64.891445,64.89145 -168.059121,62.83651 -232.946139,-2.05053 z"
         inkscape:connector-curvature="0" />
      <path
         d="m 202.41847,174.5451 a 166.13046,166.11902 0 1 1 -332.26091,0 166.13046,166.11902 0 1 1 332.26091,0 z"
         style="opacity:1;fill:none;stroke:#000000;stroke-width:5.72517633;stroke-linecap:round;stroke-linejoin:round;stroke-miterlimit:4;stroke-dasharray:none;stroke-opacity:1"
         id="path8423"
         inkscape:connector-curvature="0" />
    </g>
    <circle
       style="opacity:1;fill:#e6e6e6;fill-opacity:1;fill-rule:evenodd;stroke:#000000;stroke-width:8.37448215;stroke-miterlimit:4;stroke-dasharray:none;stroke-opacity:1"
       id="circle5721"
       cx="175.39853"
       cy="30.084938"
       r="65.367218" />
    <path
       style="opacity:1;fill:#ff0000;fill-opacity:1;fill-rule:evenodd;stroke:#000000;stroke-width:4.15095234;stroke-linecap:round;stroke-linejoin:round;stroke-miterlimit:4;stroke-dasharray:none;stroke-opacity:1"
       d="m 177.19567,32.500549 -46.99275,5.96635 12.91875,12.91875 -92.495014,92.495011 a 24.750054,26.177807 45 0 0 -26.565556,6.75318 24.750054,26.177807 45 0 0 -1.008962,36.01025 24.750054,26.177807 45 0 0 36.01025,-1.00896 24.750054,26.177807 45 0 0 6.746014,-26.55838 l 92.502178,-92.502184 12.91874,12.91875 z"
       id="rect2710"
       inkscape:connector-curvature="0" />
    <rect
       style="opacity:1;fill:#000000;fill-opacity:0.19607843;fill-rule:evenodd;stroke:none;stroke-width:13.46875;stroke-linecap:round;stroke-linejoin:round;stroke-miterlimit:4;stroke-dasharray:none;stroke-opacity:0.39215686;paint-order:stroke fill markers"
       id="rect3399"
       width="431"
       height="431"
       x="-129.02481"
       y="-112.80659"
       ry="0" />
    <g
       id="g1516">
      <g
         style="font-style:normal;font-variant:normal;font-weight:normal;font-stretch:normal;font-size:32.4px;line-height:1.25;font-family:'Open Sans';-inkscape-font-specification:'Open Sans, Normal';font-variant-ligatures:normal;font-variant-caps:normal;font-variant-numeric:normal;font-feature-settings:normal;text-align:center;letter-spacing:0px;word-spacing:0px;writing-mode:lr-tb;text-anchor:middle;fill:#ffffff;fill-opacity:1;stroke:none;stroke-width:0.81"
         id="text3992-4"
         aria-label="1">
        <path
           id="path1507"
           style="font-style:normal;font-variant:normal;font-weight:bold;font-stretch:normal;font-size:108px;font-family:'Open Sans';-inkscape-font-specification:'Open Sans Bold';fill:#ffffff;fill-opacity:1;stroke-width:0.81"
           d="M 124.09139,89.564888 H 107.79647 V 44.951607 l 0.1582,-7.330078 0.26368,-8.015625 q -4.06055,4.060547 -5.64258,5.326172 l -8.859377,7.11914 -7.857422,-9.808594 24.837889,-19.77539 h 13.39453 z" />
      </g>
      <path
         sodipodi:nodetypes="cc"
         inkscape:connector-curvature="0"
         id="path3994-5"
         d="M 51.023127,103.35445 158.92724,102.50533"
         style="fill:#ffffff;fill-opacity:1;stroke:#ffffff;stroke-width:8.06091309;stroke-linecap:butt;stroke-linejoin:miter;stroke-miterlimit:4;stroke-dasharray:none;stroke-opacity:1" />
      <g
         id="g1505">
        <path
           inkscape:connector-curvature="0"
           id="path1496"
           style="font-style:normal;font-variant:normal;font-weight:bold;font-stretch:normal;font-size:108px;line-height:1.25;font-family:'Open Sans';-inkscape-font-specification:'Open Sans Bold';font-variant-ligatures:normal;font-variant-caps:normal;font-variant-numeric:normal;font-feature-settings:normal;text-align:center;letter-spacing:0px;word-spacing:0px;writing-mode:lr-tb;text-anchor:middle;fill:#ffffff;fill-opacity:1;stroke:none;stroke-width:0.81"
           d="M 92.77772,194.8649 H 76.482799 v -44.61328 l 0.158203,-7.33008 0.263672,-8.01563 q -4.060547,4.06055 -5.642579,5.32618 l -8.859375,7.11914 -7.857421,-9.8086 24.83789,-19.77539 H 92.77772 Z" />
        <path
           inkscape:connector-curvature="0"
           id="path1498"
           style="font-style:normal;font-variant:normal;font-weight:bold;font-stretch:normal;font-size:108px;line-height:1.25;font-family:'Open Sans';-inkscape-font-specification:'Open Sans Bold';font-variant-ligatures:normal;font-variant-caps:normal;font-variant-numeric:normal;font-feature-settings:normal;text-align:center;letter-spacing:0px;word-spacing:0px;writing-mode:lr-tb;text-anchor:middle;fill:#ffffff;fill-opacity:1;stroke:none;stroke-width:0.81"
           d="m 155.40506,156.31607 q 0,20.19727 -6.64453,29.90039 -6.5918,9.70313 -20.35547,9.70313 -13.34179,0 -20.14453,-10.01954 -6.75,-10.01953 -6.75,-29.58398 0,-20.4082 6.5918,-30.05859 6.5918,-9.70313 20.30273,-9.70313 13.3418,0 20.14453,10.125 6.85547,10.125 6.85547,29.63672 z m -37.70508,0 q 0,14.18555 2.42579,20.35547 2.47851,6.11719 8.27929,6.11719 5.69532,0 8.22657,-6.22266 2.53125,-6.22266 2.53125,-20.25 0,-14.18555 -2.58399,-20.35547 -2.53125,-6.22265 -8.17383,-6.22265 -5.74804,0 -8.22656,6.22265 -2.47852,6.16992 -2.47852,20.35547 z" />
      </g>
    </g>
  </g>
</svg>
