<?xml version="1.0" encoding="UTF-8" standalone="no"?>
<svg
   xmlns:dc="http://purl.org/dc/elements/1.1/"
   xmlns:cc="http://creativecommons.org/ns#"
   xmlns:rdf="http://www.w3.org/1999/02/22-rdf-syntax-ns#"
   xmlns:svg="http://www.w3.org/2000/svg"
   xmlns="http://www.w3.org/2000/svg"
   xmlns:xlink="http://www.w3.org/1999/xlink"
   xmlns:sodipodi="http://sodipodi.sourceforge.net/DTD/sodipodi-0.dtd"
   xmlns:inkscape="http://www.inkscape.org/namespaces/inkscape"
   inkscape:version="1.1-dev (ddb55ca, 2020-02-02)"
   height="208.38683"
   width="209.95036"
   sodipodi:docname="t-icon-eval-mode-5.svg"
   viewBox="0 0 209.95037 208.38683"
   version="1.1"
   id="svgControlButtons">
  <metadata
     id="metadata9594">
    <rdf:RDF>
      <cc:Work
         rdf:about="">
        <dc:format>image/svg+xml</dc:format>
        <dc:type
           rdf:resource="http://purl.org/dc/dcmitype/StillImage" />
        <dc:title />
      </cc:Work>
    </rdf:RDF>
  </metadata>
  <sodipodi:namedview
     inkscape:current-layer="svgControlButtons"
     inkscape:window-maximized="0"
     inkscape:window-y="25"
     inkscape:window-x="0"
     inkscape:cy="98.812019"
     inkscape:cx="99.913936"
     inkscape:zoom="5.08697"
     fit-margin-bottom="0"
     fit-margin-right="0"
     fit-margin-left="0"
     fit-margin-top="0"
     showgrid="false"
     id="namedview9592"
     inkscape:window-height="1336"
     inkscape:window-width="2367"
     inkscape:pageshadow="2"
     inkscape:pageopacity="0"
     guidetolerance="10"
     gridtolerance="10"
     objecttolerance="10"
     borderopacity="1"
     bordercolor="#666666"
     pagecolor="#ffffff" />
  <defs
     id="defs3304">
    <linearGradient
       id="linearGradient9009"
       inkscape:collect="always">
      <stop
         id="stop9005"
         offset="0"
         style="stop-color:#2363b4;stop-opacity:1;" />
      <stop
         id="stop9007"
         offset="1"
         style="stop-color:#357ddd;stop-opacity:1" />
    </linearGradient>
    <linearGradient
       gradientUnits="userSpaceOnUse"
       y2="207.18997"
       x2="59.465088"
       y1="1.8868148"
       x1="59.465088"
       id="linearGradient9011"
       xlink:href="#linearGradient9009"
       inkscape:collect="always" />
  </defs>
  <g
     id="g2182">
    <g
       transform="matrix(0.63117426,0,0,0.63117426,-1001.6846,-153.80899)"
       id="g2754"
       style="display:inline">
      <path
         id="path2752"
         style="fill:#ffffff;fill-opacity:1;stroke:none"
         d="m 975.47946,510.16403 a 464.28043,464.24847 0 1 1 -928.560836,0 464.28043,464.24847 0 1 1 928.560836,0 z"
         inkscape:connector-curvature="0" />
    </g>
    <path
       style="display:inline;opacity:1;fill:none;stroke:none;stroke-width:7.05570459;stroke-linecap:round;stroke-linejoin:round;stroke-miterlimit:4;stroke-dasharray:none;stroke-opacity:1"
       d="M -893.22656,376.29102 A 298.90271,298.88212 0 0 0 -380.12695,168.19336 298.90271,298.88212 0 0 0 -470.9707,-45.96484 Z"
       id="path2940"
       inkscape:connector-curvature="0" />
    <path
       inkscape:connector-curvature="0"
       d="M 44.061042,43.269507 A 86.152822,86.14689 45 1 0 165.89953,165.10799 86.152822,86.14689 45 1 0 44.061042,43.269507 Z"
       style="fill:none;stroke:none;stroke-width:0.27631277"
       id="path3075" />
    <g
       id="g3437"
       transform="matrix(0.54550431,0,0,0.54550431,-581.94907,14.253068)"
       style="fill:#000000">
      <text
         id="text3992"
         y="89.564896"
         x="110.27499"
         style="font-style:normal;font-variant:normal;font-weight:normal;font-stretch:normal;font-size:32.4px;line-height:1.25;font-family:'Open Sans';-inkscape-font-specification:'Open Sans, Normal';font-variant-ligatures:normal;font-variant-caps:normal;font-variant-numeric:normal;font-feature-settings:normal;text-align:center;letter-spacing:0px;word-spacing:0px;writing-mode:lr-tb;text-anchor:middle;fill:#000000;fill-opacity:0.96748;stroke:none;stroke-width:0.81"
         xml:space="preserve"><tspan
           style="font-style:normal;font-variant:normal;font-weight:bold;font-stretch:normal;font-size:108px;font-family:'Open Sans';-inkscape-font-specification:'Open Sans Bold';fill:#000000;fill-opacity:0.96748;stroke-width:0.81"
           y="89.564896"
           x="110.27499"
           id="tspan3990"
           sodipodi:role="line">1</tspan></text>
      <path
         sodipodi:nodetypes="cc"
         inkscape:connector-curvature="0"
         id="path3994"
         d="M 51.023082,103.35445 158.92728,102.50533"
         style="fill:#000000;fill-opacity:0.96747963;stroke:#ffffff;stroke-width:8.06091309;stroke-linecap:butt;stroke-linejoin:miter;stroke-miterlimit:4;stroke-dasharray:none;stroke-opacity:0.78431373" />
      <text
         id="text4040"
         y="194.8649"
         x="103.68319"
         style="font-style:normal;font-variant:normal;font-weight:bold;font-stretch:normal;font-size:108px;line-height:1.25;font-family:'Open Sans';-inkscape-font-specification:'Open Sans Bold';font-variant-ligatures:normal;font-variant-caps:normal;font-variant-numeric:normal;font-feature-settings:normal;text-align:center;letter-spacing:0px;word-spacing:0px;writing-mode:lr-tb;text-anchor:middle;fill:#000000;fill-opacity:0.96748;stroke:none;stroke-width:0.81"
         xml:space="preserve"><tspan
           style="fill:#000000;fill-opacity:0.96748;stroke-width:0.81"
           dx="0"
           y="194.8649"
           x="103.68319"
           id="tspan4038"
           sodipodi:role="line">10</tspan></text>
    </g>
    <g
       id="g8629"
       transform="matrix(0.7873438,0,0,0.7873438,44.647246,44.377276)">
      <g
         transform="translate(-27.439541,-28.221334)"
         id="g8609">
        <path
           inkscape:connector-curvature="0"
           style="color:#000000;font-style:normal;font-variant:normal;font-weight:normal;font-stretch:normal;font-size:medium;line-height:normal;font-family:sans-serif;font-variant-ligatures:normal;font-variant-position:normal;font-variant-caps:normal;font-variant-numeric:normal;font-variant-alternates:normal;font-feature-settings:normal;text-indent:0;text-align:start;text-decoration:none;text-decoration-line:none;text-decoration-style:solid;text-decoration-color:#000000;letter-spacing:normal;word-spacing:normal;text-transform:none;writing-mode:lr-tb;direction:ltr;text-orientation:mixed;dominant-baseline:auto;baseline-shift:baseline;text-anchor:start;white-space:normal;shape-padding:0;clip-rule:nonzero;display:inline;overflow:visible;visibility:visible;opacity:1;isolation:auto;mix-blend-mode:normal;color-interpolation:sRGB;color-interpolation-filters:linearRGB;solid-color:#000000;solid-opacity:1;vector-effect:none;fill:#ffffff;fill-opacity:1;fill-rule:nonzero;stroke:none;stroke-width:3.08881617;stroke-linecap:round;stroke-linejoin:round;stroke-miterlimit:4;stroke-dasharray:none;stroke-dashoffset:0;stroke-opacity:1;color-rendering:auto;image-rendering:auto;shape-rendering:auto;text-rendering:auto;enable-background:accumulate"
           d="m 104.98334,-28.221339 c 33.89147,-0.0039 67.78513,12.919532 93.63611,38.770511 51.70182,51.701817 51.69289,135.574388 -0.0205,187.257698 -24.82457,24.83925 -58.5028,38.79733 -93.62158,38.80129 -0.31185,4e-5 -0.62123,-0.0209 -0.93284,-0.0231 h 0.9354 v -3.06528 c 34.29937,-0.005 67.18906,-13.63613 91.43442,-37.89582 a 1.5445625,1.5445625 0 0 1 8.7e-4,-8.7e-4 c 50.53279,-50.50294 50.54194,-132.368776 0.0205,-182.890209 -25.26072,-25.260713 -58.35715,-37.888428 -91.45152,-37.884698 -0.001,0 -0.003,0 -0.004,0 v -3.05588 h -0.56774 c 0.19044,-8.75e-4 0.38072,-0.01366 0.57116,-0.01366 z"
           id="path3069" />
        <path
           inkscape:connector-curvature="0"
           style="fill:#ffffff;fill-opacity:1;stroke:none;stroke-width:0.27631277"
           d="m 104.97992,-23.95046 a 128.28661,128.27778 45 0 1 90.71276,218.85194 128.28661,128.27778 45 0 1 -90.71276,37.4264 z"
           id="path3274" />
        <path
           inkscape:connector-curvature="0"
           style="opacity:0.71317827;fill:#01996f;fill-opacity:0.94117647;fill-rule:nonzero;stroke:none;stroke-width:0.27631277"
           d="m 104.97992,18.13415 a 86.152822,86.14689 45 0 1 60.91922,146.97379 86.152822,86.14689 45 0 1 -60.91922,25.13619 z"
           id="path3282" />
        <path
           inkscape:connector-curvature="0"
           style="color:#000000;font-style:normal;font-variant:normal;font-weight:normal;font-stretch:normal;font-size:medium;line-height:normal;font-family:sans-serif;font-variant-ligatures:normal;font-variant-position:normal;font-variant-caps:normal;font-variant-numeric:normal;font-variant-alternates:normal;font-feature-settings:normal;text-indent:0;text-align:start;text-decoration:none;text-decoration-line:none;text-decoration-style:solid;text-decoration-color:#000000;letter-spacing:normal;word-spacing:normal;text-transform:none;writing-mode:lr-tb;direction:ltr;text-orientation:mixed;dominant-baseline:auto;baseline-shift:baseline;text-anchor:start;white-space:normal;shape-padding:0;clip-rule:nonzero;display:inline;overflow:visible;visibility:visible;opacity:1;isolation:auto;mix-blend-mode:normal;color-interpolation:sRGB;color-interpolation-filters:linearRGB;solid-color:#000000;solid-opacity:1;vector-effect:none;fill:#323232;fill-opacity:1;fill-rule:nonzero;stroke:none;stroke-width:4.4210043;stroke-linecap:round;stroke-linejoin:round;stroke-miterlimit:4;stroke-dasharray:none;stroke-dashoffset:0;stroke-opacity:1;color-rendering:auto;image-rendering:auto;shape-rendering:auto;text-rendering:auto;enable-background:accumulate"
           d="m 104.97992,-2.6148792 c 0.003,0 0.007,0 0.0102,0 27.34029,-0.00784 54.68433,10.4116895 75.53341,31.2607752 41.69745,41.69745 41.67824,109.373164 -0.0419,151.042024 -20.83195,20.85876 -48.16462,31.29411 -75.50177,31.30438 v -4.39229 c 26.19586,-0.01 52.38695,-10.02269 72.37407,-30.03552 a 2.2107231,2.2107231 0 0 1 0.002,-0.003 C 217.38664,136.58241 217.40572,71.779923 177.39762,31.771828 157.39358,11.767777 131.1902,1.7707052 104.99106,1.7782087 c -0.004,0 -0.007,-4.4e-6 -0.0111,0 z"
           id="path3279" />
        <path
           inkscape:connector-curvature="0"
           style="color:#000000;font-style:normal;font-variant:normal;font-weight:normal;font-stretch:normal;font-size:medium;line-height:normal;font-family:sans-serif;font-variant-ligatures:normal;font-variant-position:normal;font-variant-caps:normal;font-variant-numeric:normal;font-variant-alternates:normal;font-feature-settings:normal;text-indent:0;text-align:start;text-decoration:none;text-decoration-line:none;text-decoration-style:solid;text-decoration-color:#000000;letter-spacing:normal;word-spacing:normal;text-transform:none;writing-mode:lr-tb;direction:ltr;text-orientation:mixed;dominant-baseline:auto;baseline-shift:baseline;text-anchor:start;white-space:normal;shape-padding:0;clip-rule:nonzero;display:inline;overflow:visible;visibility:visible;opacity:1;isolation:auto;mix-blend-mode:normal;color-interpolation:sRGB;color-interpolation-filters:linearRGB;solid-color:#000000;solid-opacity:1;vector-effect:none;fill:#ffffff;fill-opacity:1;fill-rule:nonzero;stroke:none;stroke-width:4.4210043;stroke-linecap:round;stroke-linejoin:round;stroke-miterlimit:4;stroke-dasharray:none;stroke-dashoffset:0;stroke-opacity:1;color-rendering:auto;image-rendering:auto;shape-rendering:auto;text-rendering:auto;enable-background:accumulate"
           d="m 104.97992,35.921353 c 4.3e-4,0 10e-4,0 0.002,0 17.47902,-0.0017 34.95873,6.658925 48.28273,19.982921 26.6477,26.647705 26.64377,69.919896 -0.009,96.559466 0,0 -8.8e-4,0 -8.8e-4,0 0,0 0,8.8e-4 0,8.8e-4 -13.31956,13.32595 -30.79657,19.9897 -48.27502,19.99147 v -4.39315 c 16.33782,-0.002 32.67423,-6.24308 45.14903,-18.72432 a 2.2107231,2.2107231 0 0 1 8.8e-4,-8.7e-4 c 24.96289,-24.95005 24.96691,-65.348283 0.009,-90.306629 C 137.65923,46.551948 121.31982,40.312973 104.98167,40.3145 c -4.4e-4,0 -10e-4,0 -0.002,0 z"
           id="path3287" />
        <path
           inkscape:connector-curvature="0"
           style="color:#000000;font-style:normal;font-variant:normal;font-weight:normal;font-stretch:normal;font-size:medium;line-height:normal;font-family:sans-serif;font-variant-ligatures:normal;font-variant-position:normal;font-variant-caps:normal;font-variant-numeric:normal;font-variant-alternates:normal;font-feature-settings:normal;text-indent:0;text-align:start;text-decoration:none;text-decoration-line:none;text-decoration-style:solid;text-decoration-color:#000000;letter-spacing:normal;word-spacing:normal;text-transform:none;writing-mode:lr-tb;direction:ltr;text-orientation:mixed;dominant-baseline:auto;baseline-shift:baseline;text-anchor:start;white-space:normal;shape-padding:0;clip-rule:nonzero;display:inline;overflow:visible;visibility:visible;opacity:1;isolation:auto;mix-blend-mode:normal;color-interpolation:sRGB;color-interpolation-filters:linearRGB;solid-color:#000000;solid-opacity:1;vector-effect:none;fill:#ffffff;fill-opacity:1;fill-rule:nonzero;stroke:none;stroke-width:4.4210043;stroke-linecap:round;stroke-linejoin:round;stroke-miterlimit:4;stroke-dasharray:none;stroke-dashoffset:0;stroke-opacity:1;color-rendering:auto;image-rendering:auto;shape-rendering:auto;text-rendering:auto;enable-background:accumulate"
           d="m 104.97992,58.376168 c 11.73267,-9.7e-5 23.46553,4.469316 32.4048,13.408591 17.87855,17.87855 17.8782,46.931921 -8.7e-4,64.807901 -8.93822,8.93974 -20.67101,13.40972 -32.40396,13.40945 v -4.39315 c 10.59233,2.3e-4 21.18453,-4.04747 29.27796,-12.14229 a 2.2107231,2.2107231 0 0 1 0,-8.7e-4 c 16.1892,-16.18644 16.18993,-42.365973 8.8e-4,-58.555067 -8.09455,-8.094546 -18.6869,-12.141513 -29.27882,-12.141435 z"
           id="path3292" />
        <path
           inkscape:connector-curvature="0"
           style="color:#000000;font-style:normal;font-variant:normal;font-weight:normal;font-stretch:normal;font-size:medium;line-height:normal;font-family:sans-serif;font-variant-ligatures:normal;font-variant-position:normal;font-variant-caps:normal;font-variant-numeric:normal;font-variant-alternates:normal;font-feature-settings:normal;text-indent:0;text-align:start;text-decoration:none;text-decoration-line:none;text-decoration-style:solid;text-decoration-color:#000000;letter-spacing:normal;word-spacing:normal;text-transform:none;writing-mode:lr-tb;direction:ltr;text-orientation:mixed;dominant-baseline:auto;baseline-shift:baseline;text-anchor:start;white-space:normal;shape-padding:0;clip-rule:nonzero;display:inline;overflow:visible;visibility:visible;opacity:1;isolation:auto;mix-blend-mode:normal;color-interpolation:sRGB;color-interpolation-filters:linearRGB;solid-color:#000000;solid-opacity:1;vector-effect:none;fill:#ffffff;fill-opacity:1;fill-rule:nonzero;stroke:none;stroke-width:4.4210043;stroke-linecap:round;stroke-linejoin:round;stroke-miterlimit:4;stroke-dasharray:none;stroke-dashoffset:0;stroke-opacity:1;color-rendering:auto;image-rendering:auto;shape-rendering:auto;text-rendering:auto;enable-background:accumulate"
           d="m 104.97992,80.264098 c 6.13105,-1.67e-4 12.26267,2.332352 16.92789,6.997571 9.33016,9.330151 9.32942,24.524321 -8.7e-4,33.853231 0,0 -8.8e-4,0 -8.8e-4,0 0,0 0,8.7e-4 0,8.7e-4 -4.66445,4.66513 -10.79526,6.99758 -16.92618,6.99757 v -4.39315 c 4.99028,-1.8e-4 9.98054,-1.91067 13.80019,-5.73127 a 2.2107231,2.2107231 0 0 1 8.7e-4,0 c 7.64118,-7.63931 7.64178,-19.9603 8.8e-4,-27.601241 -3.82047,-3.820471 -8.81162,-5.730543 -13.8019,-5.730416 z"
           id="path3297" />
        <path
           inkscape:connector-curvature="0"
           style="fill:#ffffff;fill-opacity:1;fill-rule:nonzero;stroke:#ffffff;stroke-width:0.40278059;stroke-linecap:round;stroke-linejoin:round;stroke-miterlimit:4;stroke-dasharray:none;stroke-opacity:1"
           d="m 104.97992,97.486125 a 6.7064217,6.7059616 45 0 1 4.74285,11.444585 6.7064217,6.7059616 45 0 1 -4.74285,1.96144 z"
           id="path3328" />
        <path
           inkscape:connector-curvature="0"
           style="color:#000000;font-style:normal;font-variant:normal;font-weight:normal;font-stretch:normal;font-size:medium;line-height:normal;font-family:sans-serif;font-variant-ligatures:normal;font-variant-position:normal;font-variant-caps:normal;font-variant-numeric:normal;font-variant-alternates:normal;font-feature-settings:normal;text-indent:0;text-align:start;text-decoration:none;text-decoration-line:none;text-decoration-style:solid;text-decoration-color:#000000;letter-spacing:normal;word-spacing:normal;text-transform:none;writing-mode:lr-tb;direction:ltr;text-orientation:mixed;dominant-baseline:auto;baseline-shift:baseline;text-anchor:start;white-space:normal;shape-padding:0;clip-rule:nonzero;display:inline;overflow:visible;visibility:visible;opacity:1;isolation:auto;mix-blend-mode:normal;color-interpolation:sRGB;color-interpolation-filters:linearRGB;solid-color:#000000;solid-opacity:1;vector-effect:none;fill:#000000;fill-opacity:1;fill-rule:nonzero;stroke:none;stroke-width:4.4210043;stroke-linecap:round;stroke-linejoin:round;stroke-miterlimit:4;stroke-dasharray:none;stroke-dashoffset:0;stroke-opacity:1;color-rendering:auto;image-rendering:auto;shape-rendering:auto;text-rendering:auto;enable-background:accumulate"
           d="m 104.97992,-26.317185 c 10e-4,0 0.002,0 0.003,0 33.40672,-0.0039 66.81562,12.732369 92.29287,38.20961 50.95447,50.954482 50.94503,133.636115 -0.0214,184.572045 -24.46746,24.48142 -57.66173,38.23916 -92.27491,38.24382 v -4.42051 c 33.44243,-0.005 65.50941,-13.29564 89.14892,-36.9493 a 2.2107231,2.2107231 0 0 1 8.7e-4,-8.7e-4 c 49.27599,-49.24652 49.2853,-129.054422 0.0205,-178.31921 -24.63239,-24.6323933 -56.90019,-36.946148 -89.16601,-36.942453 -0.001,0 -0.003,0 -0.004,0 z"
           id="path3271" />
      </g>
      <path
         id="path8616"
         d="m 77.542969,202.3125 c 33.132681,0.24352 66.338131,-12.2012 91.623051,-37.48633 49.66979,-49.66979 48.51757,-128.362998 -0.30469,-178.539061 l -91.318361,91.31836 z"
         style="opacity:1;fill:#4d4d4d;fill-opacity:0.19607843;stroke:#000000;stroke-width:0;stroke-linecap:round;stroke-linejoin:round;stroke-miterlimit:4;stroke-dasharray:none;stroke-opacity:1"
         inkscape:connector-curvature="0" />
    </g>
    <rect
       style="opacity:1;fill:url(#linearGradient9011);fill-opacity:1;fill-rule:evenodd;stroke:none;stroke-width:26.936306;stroke-linecap:round;stroke-linejoin:round;stroke-miterlimit:4;stroke-dasharray:none;stroke-opacity:0.97967481"
       id="rect8989"
       width="104"
       height="208.38683"
       x="0"
       y="0"
       ry="0" />
    <rect
       style="opacity:1;fill:#101010;fill-opacity:0.58823529;fill-rule:evenodd;stroke:none;stroke-width:10.99648094;stroke-linecap:round;stroke-linejoin:round;stroke-miterlimit:4;stroke-dasharray:none;stroke-opacity:0.97967481"
       id="rect9159"
       width="104"
       height="34.729748"
       x="0"
       y="138.92316"
       ry="0" />
    <rect
       ry="0"
       y="173.65291"
       x="0"
       height="34.729748"
       width="104"
       id="rect9161"
       style="opacity:1;fill:#101010;fill-opacity:0.50196078;fill-rule:evenodd;stroke:none;stroke-width:10.99648094;stroke-linecap:round;stroke-linejoin:round;stroke-miterlimit:4;stroke-dasharray:none;stroke-opacity:0.97967481" />
    <rect
       ry="0"
       y="0.0041682278"
       x="0"
       height="34.729748"
       width="104"
       id="rect9151"
       style="opacity:1;fill:#101010;fill-opacity:0.50196078;fill-rule:evenodd;stroke:none;stroke-width:10.99648094;stroke-linecap:round;stroke-linejoin:round;stroke-miterlimit:4;stroke-dasharray:none;stroke-opacity:0.97967481" />
    <rect
       style="opacity:1;fill:#101010;fill-opacity:0.78431373;fill-rule:evenodd;stroke:none;stroke-width:10.99648094;stroke-linecap:round;stroke-linejoin:round;stroke-miterlimit:4;stroke-dasharray:none;stroke-opacity:0.97967481"
       id="rect9153"
       width="104"
       height="34.729748"
       x="0"
       y="34.733917"
       ry="0" />
    <rect
       ry="0"
       y="69.463661"
       x="0"
       height="34.729748"
       width="104"
       id="rect9165"
       style="opacity:1;fill:#101010;fill-opacity:0.74509804;fill-rule:evenodd;stroke:none;stroke-width:10.99648094;stroke-linecap:round;stroke-linejoin:round;stroke-miterlimit:4;stroke-dasharray:none;stroke-opacity:0.97967481" />
    <rect
       style="opacity:1;fill:#101010;fill-opacity:0.66666667;fill-rule:evenodd;stroke:none;stroke-width:10.99648094;stroke-linecap:round;stroke-linejoin:round;stroke-miterlimit:4;stroke-dasharray:none;stroke-opacity:0.97967481"
       id="rect9167"
       width="104"
       height="34.729748"
       x="0"
       y="104.19341"
       ry="0" />
    <g
       aria-label="5"
       id="text9145"
       style="font-style:normal;font-variant:normal;font-weight:normal;font-stretch:normal;font-size:21.3333px;line-height:1.25;font-family:'Open Sans';-inkscape-font-specification:'Open Sans, Normal';font-variant-ligatures:normal;font-variant-caps:normal;font-variant-numeric:normal;font-feature-settings:normal;text-align:center;letter-spacing:0px;word-spacing:0px;writing-mode:lr-tb;text-anchor:middle;fill:#000000;fill-opacity:1;stroke:none">
      <path
         d="m 12.486242,51.409052 q 2.406247,0 3.781244,1.197915 1.385415,1.187498 1.385415,3.260411 0,2.36458 -1.510414,3.708328 -1.499998,1.343748 -4.145827,1.343748 -2.5729127,0 -3.9270772,-0.822916 v -1.666664 q 0.7291655,0.468749 1.8124971,0.739582 1.0833321,0.260417 2.1354131,0.260417 1.833331,0 2.843746,-0.864582 1.020831,-0.864582 1.020831,-2.499996 0,-3.187495 -3.906243,-3.187495 -0.989582,0 -2.6458296,0.302083 L 8.4341655,52.606967 9.0070813,45.481978 h 7.5729047 v 1.593747 h -6.09374 l -0.385416,4.57291 q 1.197914,-0.239583 2.385412,-0.239583 z"
         style="font-size:21.3333px;fill:#ffffff"
         id="path2022" />
    </g>
    <g
       id="g2050">
      <path
         d="m 53.422622,47.467776 -0.559896,5.143235 5.182298,-1.445314 0.338542,2.369795 -4.960944,0.403646 3.229171,4.244797 -2.239586,1.22396 -2.29167,-4.713548 -2.083336,4.713548 -2.291669,-1.22396 3.151045,-4.244797 -4.90886,-0.403646 0.377604,-2.369795 5.091153,1.445314 -0.559897,-5.143235 z"
         style="font-style:normal;font-variant:normal;font-weight:normal;font-stretch:normal;font-size:26.6667px;line-height:1.25;font-family:'Open Sans';-inkscape-font-specification:'Open Sans, Normal';font-variant-ligatures:normal;font-variant-caps:normal;font-variant-numeric:normal;font-feature-settings:normal;text-align:start;letter-spacing:0px;word-spacing:0px;writing-mode:lr-tb;text-anchor:start;fill:#ffffff;fill-opacity:1;stroke:none"
         id="path2037"
         inkscape:connector-curvature="0" />
      <path
         d="m 68.162224,47.467776 -0.559896,5.143235 5.182298,-1.445314 0.338542,2.369795 -4.960944,0.403646 3.229171,4.244797 -2.239586,1.22396 -2.29167,-4.713548 -2.083336,4.713548 -2.291669,-1.22396 3.151045,-4.244797 -4.90886,-0.403646 0.377605,-2.369795 5.091152,1.445314 -0.559897,-5.143235 z"
         style="font-style:normal;font-variant:normal;font-weight:normal;font-stretch:normal;font-size:26.6667px;line-height:1.25;font-family:'Open Sans';-inkscape-font-specification:'Open Sans, Normal';font-variant-ligatures:normal;font-variant-caps:normal;font-variant-numeric:normal;font-feature-settings:normal;text-align:start;letter-spacing:0px;word-spacing:0px;writing-mode:lr-tb;text-anchor:start;fill:#ffffff;fill-opacity:1;stroke:none"
         id="path2039"
         inkscape:connector-curvature="0" />
      <path
         d="m 82.901826,47.467776 -0.559896,5.143235 5.182298,-1.445314 0.338542,2.369795 -4.960944,0.403646 3.229171,4.244797 -2.239586,1.22396 -2.29167,-4.713548 -2.083336,4.713548 -2.291669,-1.22396 3.151045,-4.244797 -4.90886,-0.403646 0.377605,-2.369795 5.091152,1.445314 -0.559897,-5.143235 z"
         style="font-style:normal;font-variant:normal;font-weight:normal;font-stretch:normal;font-size:26.6667px;line-height:1.25;font-family:'Open Sans';-inkscape-font-specification:'Open Sans, Normal';font-variant-ligatures:normal;font-variant-caps:normal;font-variant-numeric:normal;font-feature-settings:normal;text-align:start;letter-spacing:0px;word-spacing:0px;writing-mode:lr-tb;text-anchor:start;fill:#ffffff;fill-opacity:1;stroke:none"
         id="path2041"
         inkscape:connector-curvature="0" />
    </g>
    <rect
       style="opacity:1;fill:#101010;fill-opacity:0.50196078;fill-rule:evenodd;stroke:none;stroke-width:10.99648094;stroke-linecap:round;stroke-linejoin:round;stroke-miterlimit:4;stroke-dasharray:none;stroke-opacity:0.97967481"
       id="rect9213"
       width="104"
       height="34.729748"
       x="0"
       y="0.0041682278"
       ry="0" />
    <g
       aria-label="4"
       id="text9271"
       style="font-style:normal;font-variant:normal;font-weight:normal;font-stretch:normal;font-size:21.3333px;line-height:1.25;font-family:'Open Sans';-inkscape-font-specification:'Open Sans, Normal';font-variant-ligatures:normal;font-variant-caps:normal;font-variant-numeric:normal;font-feature-settings:normal;text-align:center;letter-spacing:0px;word-spacing:0px;writing-mode:lr-tb;text-anchor:middle;fill:#000000;fill-opacity:1;stroke:none">
      <path
         d="M 18.454983,91.211126 H 16.19457 v 3.499995 H 14.538323 V 91.211126 H 7.1320842 V 89.700712 L 14.361239,79.398645 h 1.833331 v 10.239567 h 2.260413 z m -3.91666,-1.572914 V 84.57572 q 0,-1.489581 0.104166,-3.364578 h -0.08333 q -0.499999,0.999998 -0.937499,1.656247 l -4.7604088,6.770823 z"
         style="font-size:21.3333px;fill:#ffffff"
         id="path2025" />
    </g>
    <g
       id="g2065">
      <path
         d="m 53.422622,81.467776 -0.559896,5.143235 5.182298,-1.445314 0.338542,2.369795 -4.960944,0.403646 3.229171,4.244797 -2.239586,1.22396 -2.29167,-4.713548 -2.083336,4.713548 -2.291669,-1.22396 3.151045,-4.244797 -4.90886,-0.403646 0.377604,-2.369795 5.091153,1.445314 -0.559897,-5.143235 z"
         style="font-style:normal;font-variant:normal;font-weight:normal;font-stretch:normal;font-size:26.6667px;line-height:1.25;font-family:'Open Sans';-inkscape-font-specification:'Open Sans, Normal';font-variant-ligatures:normal;font-variant-caps:normal;font-variant-numeric:normal;font-feature-settings:normal;text-align:start;letter-spacing:0px;word-spacing:0px;writing-mode:lr-tb;text-anchor:start;fill:#ffffff;fill-opacity:1;stroke:none"
         id="path2052"
         inkscape:connector-curvature="0" />
      <path
         d="m 68.162224,81.467776 -0.559896,5.143235 5.182298,-1.445314 0.338542,2.369795 -4.960944,0.403646 3.229171,4.244797 -2.239586,1.22396 -2.29167,-4.713548 -2.083336,4.713548 -2.291669,-1.22396 3.151045,-4.244797 -4.90886,-0.403646 0.377605,-2.369795 5.091152,1.445314 -0.559897,-5.143235 z"
         style="font-style:normal;font-variant:normal;font-weight:normal;font-stretch:normal;font-size:26.6667px;line-height:1.25;font-family:'Open Sans';-inkscape-font-specification:'Open Sans, Normal';font-variant-ligatures:normal;font-variant-caps:normal;font-variant-numeric:normal;font-feature-settings:normal;text-align:start;letter-spacing:0px;word-spacing:0px;writing-mode:lr-tb;text-anchor:start;fill:#ffffff;fill-opacity:1;stroke:none"
         id="path2054"
         inkscape:connector-curvature="0" />
      <path
         d="m 82.901826,81.467776 -0.559896,5.143235 5.182298,-1.445314 0.338542,2.369795 -4.960944,0.403646 3.229171,4.244797 -2.239586,1.22396 -2.29167,-4.713548 -2.083336,4.713548 -2.291669,-1.22396 3.151045,-4.244797 -4.90886,-0.403646 0.377605,-2.369795 5.091152,1.445314 -0.559897,-5.143235 z"
         style="font-style:normal;font-variant:normal;font-weight:normal;font-stretch:normal;font-size:26.6667px;line-height:1.25;font-family:'Open Sans';-inkscape-font-specification:'Open Sans, Normal';font-variant-ligatures:normal;font-variant-caps:normal;font-variant-numeric:normal;font-feature-settings:normal;text-align:start;letter-spacing:0px;word-spacing:0px;writing-mode:lr-tb;text-anchor:start;fill:#ffffff;fill-opacity:1;stroke:none"
         id="path2056"
         inkscape:connector-curvature="0" />
    </g>
    <g
       aria-label="3"
       id="text9285"
       style="font-style:normal;font-variant:normal;font-weight:normal;font-stretch:normal;font-size:21.3333px;line-height:1.25;font-family:'Open Sans';-inkscape-font-specification:'Open Sans, Normal';font-variant-ligatures:normal;font-variant-caps:normal;font-variant-numeric:normal;font-feature-settings:normal;text-align:center;letter-spacing:0px;word-spacing:0px;writing-mode:lr-tb;text-anchor:middle;fill:#000000;fill-opacity:1;stroke:none">
      <path
         d="m 17.163318,119.06531 q 0,1.45833 -0.822915,2.38541 -0.812499,0.92708 -2.312496,1.23958 v 0.0833 q 1.83333,0.22917 2.718745,1.16667 0.885416,0.9375 0.885416,2.45833 0,2.17708 -1.510415,3.35416 -1.510414,1.16666 -4.29166,1.16666 -1.208331,0 -2.218746,-0.1875 -0.9999984,-0.17708 -1.9479136,-0.63541 v -1.64583 q 0.9895818,0.48958 2.1041633,0.75 1.1249983,0.25 2.1249963,0.25 3.947911,0 3.947911,-3.09375 0,-2.77083 -4.35416,-2.77083 H 9.9862464 v -1.48958 h 1.5208306 q 1.781248,0 2.822913,-0.78125 1.041665,-0.79166 1.041665,-2.18749 0,-1.11459 -0.770833,-1.75 -0.760415,-0.63542 -2.072913,-0.63542 -0.999998,0 -1.885414,0.27084 -0.8854149,0.27083 -2.0208298,0.99999 l -0.8749986,-1.16666 q 0.9374985,-0.73958 2.1562466,-1.15625 1.2291648,-0.42708 2.5833288,-0.42708 2.218747,0 3.447912,1.02083 1.229164,1.01042 1.229164,2.78125 z"
         style="font-size:21.3333px;fill:#ffffff"
         id="path2028" />
    </g>
    <g
       id="g2080">
      <path
         d="m 53.422622,117.46777 -0.559896,5.14323 5.182298,-1.44531 0.338542,2.36979 -4.960944,0.40365 3.229171,4.2448 -2.239586,1.22396 -2.29167,-4.71355 -2.083336,4.71355 -2.291669,-1.22396 3.151045,-4.2448 -4.90886,-0.40365 0.377604,-2.36979 5.091153,1.44531 -0.559897,-5.14323 z"
         style="font-style:normal;font-variant:normal;font-weight:normal;font-stretch:normal;font-size:26.6667px;line-height:1.25;font-family:'Open Sans';-inkscape-font-specification:'Open Sans, Normal';font-variant-ligatures:normal;font-variant-caps:normal;font-variant-numeric:normal;font-feature-settings:normal;text-align:start;letter-spacing:0px;word-spacing:0px;writing-mode:lr-tb;text-anchor:start;fill:#ffffff;fill-opacity:1;stroke:none"
         id="path2067"
         inkscape:connector-curvature="0" />
      <path
         d="m 68.162224,117.46777 -0.559896,5.14323 5.182298,-1.44531 0.338542,2.36979 -4.960944,0.40365 3.229171,4.2448 -2.239586,1.22396 -2.29167,-4.71355 -2.083336,4.71355 -2.291669,-1.22396 3.151045,-4.2448 -4.90886,-0.40365 0.377605,-2.36979 5.091152,1.44531 -0.559897,-5.14323 z"
         style="font-style:normal;font-variant:normal;font-weight:normal;font-stretch:normal;font-size:26.6667px;line-height:1.25;font-family:'Open Sans';-inkscape-font-specification:'Open Sans, Normal';font-variant-ligatures:normal;font-variant-caps:normal;font-variant-numeric:normal;font-feature-settings:normal;text-align:start;letter-spacing:0px;word-spacing:0px;writing-mode:lr-tb;text-anchor:start;fill:#ffffff;fill-opacity:1;stroke:none"
         id="path2069"
         inkscape:connector-curvature="0" />
      <path
         d="m 82.901826,117.46777 -0.559896,5.14323 5.182298,-1.44531 0.338542,2.36979 -4.960944,0.40365 3.229171,4.2448 -2.239586,1.22396 -2.29167,-4.71355 -2.083336,4.71355 -2.291669,-1.22396 3.151045,-4.2448 -4.90886,-0.40365 0.377605,-2.36979 5.091152,1.44531 -0.559897,-5.14323 z"
         style="font-style:normal;font-variant:normal;font-weight:normal;font-stretch:normal;font-size:26.6667px;line-height:1.25;font-family:'Open Sans';-inkscape-font-specification:'Open Sans, Normal';font-variant-ligatures:normal;font-variant-caps:normal;font-variant-numeric:normal;font-feature-settings:normal;text-align:start;letter-spacing:0px;word-spacing:0px;writing-mode:lr-tb;text-anchor:start;fill:#ffffff;fill-opacity:1;stroke:none"
         id="path2071"
         inkscape:connector-curvature="0" />
    </g>
    <g
       aria-label="2"
       id="text9299"
       style="font-style:normal;font-variant:normal;font-weight:normal;font-stretch:normal;font-size:21.3333px;line-height:1.25;font-family:'Open Sans';-inkscape-font-specification:'Open Sans, Normal';font-variant-ligatures:normal;font-variant-caps:normal;font-variant-numeric:normal;font-feature-settings:normal;text-align:center;letter-spacing:0px;word-spacing:0px;writing-mode:lr-tb;text-anchor:middle;fill:#000000;fill-opacity:1;stroke:none">
      <path
         d="M 17.736234,164.71112 H 7.7258333 v -1.48958 l 4.0104107,-4.03124 q 1.83333,-1.85417 2.416662,-2.64583 0.583333,-0.79167 0.874999,-1.54167 0.291666,-0.75 0.291666,-1.61458 0,-1.21875 -0.739582,-1.92708 -0.739582,-0.71875 -2.05208,-0.71875 -0.947915,0 -1.80208,0.3125 -0.8437491,0.3125 -1.8854141,1.13542 l -0.9166652,-1.17708 q 2.1041633,-1.75 4.5833263,-1.75 2.14583,0 3.364578,1.10416 1.218748,1.09375 1.218748,2.94792 0,1.44791 -0.812499,2.86457 -0.812499,1.41667 -3.041662,3.58333 l -3.3333278,3.26041 v 0.0833 h 7.8333208 z"
         style="font-size:21.3333px;fill:#ffffff"
         id="path2031" />
    </g>
    <g
       id="g2095">
      <path
         d="m 53.422622,151.46777 -0.559896,5.14323 5.182298,-1.44531 0.338542,2.36979 -4.960944,0.40365 3.229171,4.2448 -2.239586,1.22396 -2.29167,-4.71355 -2.083336,4.71355 -2.291669,-1.22396 3.151045,-4.2448 -4.90886,-0.40365 0.377604,-2.36979 5.091153,1.44531 -0.559897,-5.14323 z"
         style="font-style:normal;font-variant:normal;font-weight:normal;font-stretch:normal;font-size:26.6667px;line-height:1.25;font-family:'Open Sans';-inkscape-font-specification:'Open Sans, Normal';font-variant-ligatures:normal;font-variant-caps:normal;font-variant-numeric:normal;font-feature-settings:normal;text-align:start;letter-spacing:0px;word-spacing:0px;writing-mode:lr-tb;text-anchor:start;fill:#ffffff;fill-opacity:1;stroke:none"
         id="path2082"
         inkscape:connector-curvature="0" />
      <path
         d="m 68.162224,151.46777 -0.559896,5.14323 5.182298,-1.44531 0.338542,2.36979 -4.960944,0.40365 3.229171,4.2448 -2.239586,1.22396 -2.29167,-4.71355 -2.083336,4.71355 -2.291669,-1.22396 3.151045,-4.2448 -4.90886,-0.40365 0.377605,-2.36979 5.091152,1.44531 -0.559897,-5.14323 z"
         style="font-style:normal;font-variant:normal;font-weight:normal;font-stretch:normal;font-size:26.6667px;line-height:1.25;font-family:'Open Sans';-inkscape-font-specification:'Open Sans, Normal';font-variant-ligatures:normal;font-variant-caps:normal;font-variant-numeric:normal;font-feature-settings:normal;text-align:start;letter-spacing:0px;word-spacing:0px;writing-mode:lr-tb;text-anchor:start;fill:#ffffff;fill-opacity:1;stroke:none"
         id="path2084"
         inkscape:connector-curvature="0" />
      <path
         d="m 82.901826,151.46777 -0.559896,5.14323 5.182298,-1.44531 0.338542,2.36979 -4.960944,0.40365 3.229171,4.2448 -2.239586,1.22396 -2.29167,-4.71355 -2.083336,4.71355 -2.291669,-1.22396 3.151045,-4.2448 -4.90886,-0.40365 0.377605,-2.36979 5.091152,1.44531 -0.559897,-5.14323 z"
         style="font-style:normal;font-variant:normal;font-weight:normal;font-stretch:normal;font-size:26.6667px;line-height:1.25;font-family:'Open Sans';-inkscape-font-specification:'Open Sans, Normal';font-variant-ligatures:normal;font-variant-caps:normal;font-variant-numeric:normal;font-feature-settings:normal;text-align:start;letter-spacing:0px;word-spacing:0px;writing-mode:lr-tb;text-anchor:start;fill:#ffffff;fill-opacity:1;stroke:none"
         id="path2086"
         inkscape:connector-curvature="0" />
    </g>
    <g
       aria-label="1"
       id="text9313"
       style="font-style:normal;font-variant:normal;font-weight:normal;font-stretch:normal;font-size:21.3333px;line-height:1.25;font-family:'Open Sans';-inkscape-font-specification:'Open Sans, Normal';font-variant-ligatures:normal;font-variant-caps:normal;font-variant-numeric:normal;font-feature-settings:normal;text-align:center;letter-spacing:0px;word-spacing:0px;writing-mode:lr-tb;text-anchor:middle;fill:#000000;fill-opacity:1;stroke:none">
      <path
         d="m 14.132073,198.71112 h -1.687497 v -10.85415 q 0,-1.35416 0.08333,-2.56249 -0.21875,0.21874 -0.489583,0.45833 -0.270832,0.23958 -2.4791623,2.03124 l -0.9166652,-1.18749 4.0312435,-3.11458 h 1.458331 z"
         style="font-size:21.3333px;fill:#ffffff"
         id="path2034" />
    </g>
    <g
       id="g2110">
      <path
         d="m 53.422622,185.46777 -0.559896,5.14323 5.182298,-1.44531 0.338542,2.36979 -4.960944,0.40365 3.229171,4.2448 -2.239586,1.22396 -2.29167,-4.71355 -2.083336,4.71355 -2.291669,-1.22396 3.151045,-4.2448 -4.90886,-0.40365 0.377604,-2.36979 5.091153,1.44531 -0.559897,-5.14323 z"
         style="font-style:normal;font-variant:normal;font-weight:normal;font-stretch:normal;font-size:26.6667px;line-height:1.25;font-family:'Open Sans';-inkscape-font-specification:'Open Sans, Normal';font-variant-ligatures:normal;font-variant-caps:normal;font-variant-numeric:normal;font-feature-settings:normal;text-align:start;letter-spacing:0px;word-spacing:0px;writing-mode:lr-tb;text-anchor:start;fill:#ffffff;fill-opacity:1;stroke:none"
         id="path2097"
         inkscape:connector-curvature="0" />
      <path
         d="m 68.162224,185.46777 -0.559896,5.14323 5.182298,-1.44531 0.338542,2.36979 -4.960944,0.40365 3.229171,4.2448 -2.239586,1.22396 -2.29167,-4.71355 -2.083336,4.71355 -2.291669,-1.22396 3.151045,-4.2448 -4.90886,-0.40365 0.377605,-2.36979 5.091152,1.44531 -0.559897,-5.14323 z"
         style="font-style:normal;font-variant:normal;font-weight:normal;font-stretch:normal;font-size:26.6667px;line-height:1.25;font-family:'Open Sans';-inkscape-font-specification:'Open Sans, Normal';font-variant-ligatures:normal;font-variant-caps:normal;font-variant-numeric:normal;font-feature-settings:normal;text-align:start;letter-spacing:0px;word-spacing:0px;writing-mode:lr-tb;text-anchor:start;fill:#ffffff;fill-opacity:1;stroke:none"
         id="path2099"
         inkscape:connector-curvature="0" />
      <path
         d="m 82.901826,185.46777 -0.559896,5.14323 5.182298,-1.44531 0.338542,2.36979 -4.960944,0.40365 3.229171,4.2448 -2.239586,1.22396 -2.29167,-4.71355 -2.083336,4.71355 -2.291669,-1.22396 3.151045,-4.2448 -4.90886,-0.40365 0.377605,-2.36979 5.091152,1.44531 -0.559897,-5.14323 z"
         style="font-style:normal;font-variant:normal;font-weight:normal;font-stretch:normal;font-size:26.6667px;line-height:1.25;font-family:'Open Sans';-inkscape-font-specification:'Open Sans, Normal';font-variant-ligatures:normal;font-variant-caps:normal;font-variant-numeric:normal;font-feature-settings:normal;text-align:start;letter-spacing:0px;word-spacing:0px;writing-mode:lr-tb;text-anchor:start;fill:#ffffff;fill-opacity:1;stroke:none"
         id="path2101"
         inkscape:connector-curvature="0" />
    </g>
    <rect
       ry="0"
       y="0.0041682278"
       x="0"
       height="34.729748"
       width="104"
       id="rect9339"
       style="opacity:1;fill:#101010;fill-opacity:0.50196078;fill-rule:evenodd;stroke:none;stroke-width:10.99648094;stroke-linecap:round;stroke-linejoin:round;stroke-miterlimit:4;stroke-dasharray:none;stroke-opacity:0.97967481" />
    <path
       inkscape:connector-curvature="0"
       id="path1994"
       style="font-style:normal;font-variant:normal;font-weight:bold;font-stretch:normal;font-size:8px;line-height:1.25;font-family:'Open Sans';-inkscape-font-specification:'Open Sans Bold';font-variant-ligatures:normal;font-variant-caps:normal;font-variant-numeric:normal;font-feature-settings:normal;text-align:start;letter-spacing:0px;word-spacing:0px;writing-mode:lr-tb;text-anchor:start;fill:#ffffff;fill-opacity:1;stroke:none"
       d="M 12.879471,26.711121 H 11.67244 V 24.246277 H 9.4107208 v 2.464844 H 8.1997833 v -5.710938 h 1.2109375 v 2.238281 H 11.67244 v -2.238281 h 1.207031 z" />
    <path
       inkscape:connector-curvature="0"
       id="path1996"
       style="font-style:normal;font-variant:normal;font-weight:bold;font-stretch:normal;font-size:8px;line-height:1.25;font-family:'Open Sans';-inkscape-font-specification:'Open Sans Bold';font-variant-ligatures:normal;font-variant-caps:normal;font-variant-numeric:normal;font-feature-settings:normal;text-align:start;letter-spacing:0px;word-spacing:0px;writing-mode:lr-tb;text-anchor:start;fill:#ffffff;fill-opacity:1;stroke:none"
       d="m 14.180252,21.215027 q 0,-0.582031 0.648438,-0.582031 0.648437,0 0.648437,0.582031 0,0.277344 -0.164062,0.433594 -0.160157,0.152343 -0.484375,0.152343 -0.648438,0 -0.648438,-0.585937 z m 1.242188,5.496094 h -1.191407 v -4.367188 h 1.191407 z" />
    <path
       inkscape:connector-curvature="0"
       id="path1998"
       style="font-style:normal;font-variant:normal;font-weight:bold;font-stretch:normal;font-size:8px;line-height:1.25;font-family:'Open Sans';-inkscape-font-specification:'Open Sans Bold';font-variant-ligatures:normal;font-variant-caps:normal;font-variant-numeric:normal;font-feature-settings:normal;text-align:start;letter-spacing:0px;word-spacing:0px;writing-mode:lr-tb;text-anchor:start;fill:#ffffff;fill-opacity:1;stroke:none"
       d="m 18.508377,25.840027 q 0.3125,0 0.75,-0.136719 v 0.886719 q -0.445312,0.199219 -1.09375,0.199219 -0.714844,0 -1.042969,-0.359375 -0.324218,-0.363282 -0.324218,-1.085938 v -2.105469 h -0.570313 v -0.503906 l 0.65625,-0.398437 0.34375,-0.921875 h 0.761719 v 0.929687 h 1.222656 v 0.894531 h -1.222656 v 2.105469 q 0,0.253906 0.140625,0.375 0.144531,0.121094 0.378906,0.121094 z" />
    <path
       inkscape:connector-curvature="0"
       id="path2000"
       style="font-style:normal;font-variant:normal;font-weight:bold;font-stretch:normal;font-size:8px;line-height:1.25;font-family:'Open Sans';-inkscape-font-specification:'Open Sans Bold';font-variant-ligatures:normal;font-variant-caps:normal;font-variant-numeric:normal;font-feature-settings:normal;text-align:start;letter-spacing:0px;word-spacing:0px;writing-mode:lr-tb;text-anchor:start;fill:#ffffff;fill-opacity:1;stroke:none"
       d="m 56.082596,26.711121 h -1.207031 v -2.464844 h -2.261719 v 2.464844 h -1.210938 v -5.710938 h 1.210938 v 2.238281 h 2.261719 v -2.238281 h 1.207031 z" />
    <path
       inkscape:connector-curvature="0"
       id="path2002"
       style="font-style:normal;font-variant:normal;font-weight:bold;font-stretch:normal;font-size:8px;line-height:1.25;font-family:'Open Sans';-inkscape-font-specification:'Open Sans Bold';font-variant-ligatures:normal;font-variant-caps:normal;font-variant-numeric:normal;font-feature-settings:normal;text-align:start;letter-spacing:0px;word-spacing:0px;writing-mode:lr-tb;text-anchor:start;fill:#ffffff;fill-opacity:1;stroke:none"
       d="m 57.383377,21.215027 q 0,-0.582031 0.648438,-0.582031 0.648437,0 0.648437,0.582031 0,0.277344 -0.164062,0.433594 -0.160157,0.152343 -0.484375,0.152343 -0.648438,0 -0.648438,-0.585937 z m 1.242188,5.496094 h -1.191407 v -4.367188 h 1.191407 z" />
    <path
       inkscape:connector-curvature="0"
       id="path2004"
       style="font-style:normal;font-variant:normal;font-weight:bold;font-stretch:normal;font-size:8px;line-height:1.25;font-family:'Open Sans';-inkscape-font-specification:'Open Sans Bold';font-variant-ligatures:normal;font-variant-caps:normal;font-variant-numeric:normal;font-feature-settings:normal;text-align:start;letter-spacing:0px;word-spacing:0px;writing-mode:lr-tb;text-anchor:start;fill:#ffffff;fill-opacity:1;stroke:none"
       d="m 61.254471,26.789246 q -0.769531,0 -1.210938,-0.597657 -0.4375,-0.597656 -0.4375,-1.65625 0,-1.074218 0.445313,-1.671875 0.449219,-0.601562 1.234375,-0.601562 0.824219,0 1.257812,0.640625 h 0.03906 q -0.08984,-0.488281 -0.08984,-0.871094 v -1.398437 h 1.195313 v 6.078125 h -0.914063 l -0.230469,-0.566407 h -0.05078 q -0.40625,0.644532 -1.238281,0.644532 z m 0.417969,-0.949219 q 0.457031,0 0.667968,-0.265625 0.214844,-0.265625 0.234375,-0.902344 v -0.128906 q 0,-0.703125 -0.21875,-1.007813 -0.214843,-0.304687 -0.703125,-0.304687 -0.398437,0 -0.621093,0.339844 -0.21875,0.335937 -0.21875,0.980468 0,0.644532 0.222656,0.96875 0.222656,0.320313 0.636719,0.320313 z" />
    <path
       inkscape:connector-curvature="0"
       id="path2006"
       style="font-style:normal;font-variant:normal;font-weight:bold;font-stretch:normal;font-size:8px;line-height:1.25;font-family:'Open Sans';-inkscape-font-specification:'Open Sans Bold';font-variant-ligatures:normal;font-variant-caps:normal;font-variant-numeric:normal;font-feature-settings:normal;text-align:start;letter-spacing:0px;word-spacing:0px;writing-mode:lr-tb;text-anchor:start;fill:#ffffff;fill-opacity:1;stroke:none"
       d="m 66.316971,26.789246 q -0.769531,0 -1.210938,-0.597657 -0.4375,-0.597656 -0.4375,-1.65625 0,-1.074218 0.445313,-1.671875 0.449219,-0.601562 1.234375,-0.601562 0.824219,0 1.257812,0.640625 h 0.03906 q -0.08984,-0.488281 -0.08984,-0.871094 v -1.398437 h 1.195313 v 6.078125 h -0.914063 l -0.230469,-0.566407 h -0.05078 q -0.40625,0.644532 -1.238281,0.644532 z m 0.417969,-0.949219 q 0.457031,0 0.667968,-0.265625 0.214844,-0.265625 0.234375,-0.902344 v -0.128906 q 0,-0.703125 -0.21875,-1.007813 -0.214843,-0.304687 -0.703125,-0.304687 -0.398437,0 -0.621093,0.339844 -0.21875,0.335937 -0.21875,0.980468 0,0.644532 0.222656,0.96875 0.222656,0.320313 0.636719,0.320313 z" />
    <path
       inkscape:connector-curvature="0"
       id="path2008"
       style="font-style:normal;font-variant:normal;font-weight:bold;font-stretch:normal;font-size:8px;line-height:1.25;font-family:'Open Sans';-inkscape-font-specification:'Open Sans Bold';font-variant-ligatures:normal;font-variant-caps:normal;font-variant-numeric:normal;font-feature-settings:normal;text-align:start;letter-spacing:0px;word-spacing:0px;writing-mode:lr-tb;text-anchor:start;fill:#ffffff;fill-opacity:1;stroke:none"
       d="m 71.805252,23.109558 q -0.378906,0 -0.59375,0.242188 -0.214844,0.238281 -0.246094,0.679687 h 1.671875 q -0.0078,-0.441406 -0.230468,-0.679687 -0.222657,-0.242188 -0.601563,-0.242188 z m 0.167969,3.679688 q -1.054688,0 -1.648438,-0.582032 -0.59375,-0.582031 -0.59375,-1.648437 0,-1.097656 0.546875,-1.695313 0.550782,-0.601562 1.519532,-0.601562 0.925781,0 1.441406,0.527344 0.515625,0.527343 0.515625,1.457031 v 0.578125 h -2.816406 q 0.01953,0.507812 0.300781,0.792969 0.28125,0.285156 0.789062,0.285156 0.394532,0 0.746094,-0.08203 0.351563,-0.08203 0.734375,-0.261719 v 0.921875 q -0.3125,0.15625 -0.667969,0.230469 -0.355468,0.07813 -0.867187,0.07813 z" />
    <path
       inkscape:connector-curvature="0"
       id="path2010"
       style="font-style:normal;font-variant:normal;font-weight:bold;font-stretch:normal;font-size:8px;line-height:1.25;font-family:'Open Sans';-inkscape-font-specification:'Open Sans Bold';font-variant-ligatures:normal;font-variant-caps:normal;font-variant-numeric:normal;font-feature-settings:normal;text-align:start;letter-spacing:0px;word-spacing:0px;writing-mode:lr-tb;text-anchor:start;fill:#ffffff;fill-opacity:1;stroke:none"
       d="m 78.762283,26.711121 h -1.191406 v -2.550782 q 0,-0.472656 -0.167969,-0.707031 -0.167968,-0.238281 -0.535156,-0.238281 -0.5,0 -0.722656,0.335937 -0.222656,0.332032 -0.222656,1.105469 v 2.054688 h -1.191407 v -4.367188 h 0.910157 l 0.160156,0.558594 h 0.06641 q 0.199219,-0.316406 0.546875,-0.476563 0.351563,-0.164062 0.796875,-0.164062 0.761719,0 1.15625,0.414062 0.394531,0.410157 0.394531,1.1875 z" />
  </g>
</svg>
