<?xml version="1.0" encoding="UTF-8" standalone="no"?>
<!-- Created with Inkscape (http://www.inkscape.org/) -->

<svg
   version="1.1"
   id="svg55"
   width="176"
   height="176"
   viewBox="0 0 176 176"
   sodipodi:docname="6328.jpg"
   xml:space="preserve"
   inkscape:export-filename="easter.svg"
   inkscape:export-xdpi="96"
   inkscape:export-ydpi="96"
   xmlns:inkscape="http://www.inkscape.org/namespaces/inkscape"
   xmlns:sodipodi="http://sodipodi.sourceforge.net/DTD/sodipodi-0.dtd"
   xmlns="http://www.w3.org/2000/svg"
   xmlns:svg="http://www.w3.org/2000/svg"><style
     id="style6621">.white { fill:#ffe6ab; }
.bg { fill:#134095; }
.yellow { fill:#ffec02; }
.red { fill:#e2000e; }
.blue { fill:#009ee1; }
</style><defs
     id="defs59" /><sodipodi:namedview
     id="namedview57"
     pagecolor="#ffffff"
     bordercolor="#000000"
     borderopacity="0.25"
     inkscape:showpageshadow="2"
     inkscape:pageopacity="0.0"
     inkscape:pagecheckerboard="0"
     inkscape:deskcolor="#d1d1d1"
     showgrid="false" /><g
     inkscape:groupmode="layer"
     inkscape:label="Image"
     id="g61"><rect
       style="fill-opacity:1;stroke-width:29.246"
       id="rect18231"
       width="176"
       height="176"
       x="0"
       y="0"
       class="bg" /><path
       style="fill-opacity:1;stroke-width:0.324944"
       d="m 96.508513,27.501707 c -1.234724,-0.506986 -1.602092,-1.189895 -1.230707,-2.28778 0.325965,-0.963609 1.638746,-2.103445 1.997181,-1.734068 0.109815,0.113168 -0.102776,0.537519 -0.472423,0.943004 -0.877922,0.963038 -0.700455,1.950635 0.350522,1.950635 0.667731,0 0.812286,-0.176603 0.897959,-1.097033 0.07584,-0.814755 -0.233025,-1.678378 -1.200352,-3.356341 -1.573921,-2.730192 -1.709583,-4.228406 -0.496107,-5.478933 1.006842,-1.037581 2.255954,-0.949854 3.097721,0.217558 0.658633,0.913436 0.501142,1.962875 -0.294576,1.962875 -0.313321,0 -0.428545,-0.215493 -0.327702,-0.612883 0.194287,-0.765644 -0.287451,-1.696187 -0.878108,-1.696187 -0.939792,0 -0.752563,0.701377 0.920117,3.446818 1.853352,3.041991 2.317322,4.545931 1.819072,5.896436 -0.56144,1.521806 -2.687148,2.459939 -4.182597,1.845899 z M 76.411866,26.369139 c -1.116231,-0.496928 -2.272471,-2.548227 -2.321717,-4.118978 -0.0242,-0.771699 -0.05034,-0.78432 -0.407147,-0.196492 -2.752656,4.534965 -5.010131,3.438186 -4.589569,-2.229812 0.190089,-2.561867 0.185595,-2.582429 -0.396506,-1.814269 -1.156032,1.525547 -1.957141,3.566496 -1.957141,4.986126 0,1.58776 -0.41859,2.223249 -1.464429,2.223249 -0.731568,0 -1.096322,-1.001459 -1.096322,-3.010036 0,-1.769716 -1.41678,-0.735971 -1.746335,1.274202 -0.446993,2.726509 -2.085591,3.771196 -3.771536,2.40454 -1.655127,-1.341673 -2.310747,-4.439756 -1.531838,-7.238578 0.383081,-1.376506 1.509621,-2.666404 2.328721,-2.666404 0.99906,0 2.438467,1.758159 2.672099,3.263826 0.232294,1.49704 0.434302,1.632775 1.156439,0.777046 0.32725,-0.38779 0.549935,-1.6186 0.67844,-3.749812 0.359676,-5.965137 2.561208,-9.4661891 4.537441,-7.2158024 0.837471,0.9536504 0.671519,2.4837774 -0.651509,6.0070484 -1.548436,4.123545 -1.655197,4.584747 -0.753968,3.257094 1.144527,-1.686068 2.420971,-2.566432 3.095339,-2.134854 0.982937,0.629054 1.270209,1.805715 1.03728,4.248659 -0.121092,1.269988 -0.156276,2.496915 -0.07819,2.726505 0.177553,0.522046 2.897349,-3.419749 3.133082,-4.540773 0.37426,-1.779778 1.40703,-3.613154 2.142507,-3.803383 0.929149,-0.240321 2.430315,0.327139 2.686675,1.015598 0.317841,0.853574 -0.442696,2.095611 -1.645,2.686456 -1.247371,0.612992 -1.382102,1.222843 -0.787566,3.564932 0.549416,2.164359 0.99466,3.133736 1.43935,3.133736 0.230903,0 1.14883,-1.224631 2.039837,-2.721403 1.603731,-2.694045 2.6881,-4.205804 3.016785,-4.205804 0.402601,0 -3.195337,7.376511 -3.783641,7.757236 -1.114467,0.721237 -1.892878,0.804819 -2.981581,0.320147 z M 60.966835,24.580915 C 61.5867,23.387323 61.3706,22.06019 60.488973,21.64623 c -0.44507,-0.20898 -0.89229,-0.603055 -0.993823,-0.875723 -0.304514,-0.817781 -0.75771,-0.210748 -0.75771,1.014915 0,1.496539 0.797034,3.433541 1.412827,3.433541 0.266866,0 0.634322,-0.287122 0.816568,-0.638048 z m -0.116059,-5.857772 c -0.466201,-0.886203 -0.487788,-0.893209 -0.500051,-0.1623 -0.007,0.420137 0.160936,1.088118 0.373299,1.484401 0.327227,0.610628 0.403491,0.63538 0.500051,0.162301 0.06267,-0.307018 -0.10532,-0.974998 -0.373299,-1.484402 z m 16.759739,-2.689758 c -0.209921,-0.07211 -0.506849,0.07253 -0.659844,0.32143 -0.50597,0.823125 -0.298642,1.059538 0.376772,0.429634 0.429461,-0.400522 0.529653,-0.666361 0.283072,-0.751064 z m -9.74668,-5.919992 c -0.218832,-0.8929793 -0.218832,-0.8929793 -0.691665,0.03382 -0.260057,0.509742 -0.536882,1.994143 -0.615164,3.298669 -0.142332,2.371865 -0.142332,2.371865 0.691665,-0.03382 0.561412,-1.61941 0.762473,-2.697554 0.615164,-3.298669 z m 35.291675,15.789511 c -1.04536,-0.965396 -1.04536,-0.965396 -1.01808,-5.442806 0.024,-3.936011 -0.036,-4.477411 -0.49615,-4.477411 -0.28788,0 -0.69963,-0.181593 -0.915,-0.403541 -0.30872,-0.318144 -0.13847,-0.476728 0.80453,-0.749383 1.13702,-0.328756 1.2145,-0.440439 1.5683,-2.260515 0.44771,-2.3032 0.77073,-2.7243753 1.69748,-2.213253 0.50991,0.281228 0.67455,0.687675 0.67455,1.665262 0,1.293229 0,1.293229 1.27207,0.830713 2.18619,-0.794882 1.96539,0.238028 -0.244,1.141471 -0.57889,0.236717 -1.17568,0.669806 -1.3262,0.96242 -0.40047,0.778563 -0.77054,7.306276 -0.50576,8.921322 0.2233,1.362092 0.23766,1.375066 0.86996,0.786099 0.99969,-0.93117 3.65141,-5.753843 3.89279,-7.079769 0.11921,-0.654839 0.58189,-1.596643 1.02818,-2.092898 0.67184,-0.747071 0.98648,-0.866203 1.82906,-0.692542 2.31958,0.47808 2.37953,2.433853 0.11215,3.658617 -1.22135,0.659734 -1.22135,0.659734 -1.03103,2.392282 0.19301,1.756996 1.04423,4.374177 1.41967,4.364941 0.51073,-0.01256 1.01897,-0.639208 2.13622,-2.633885 0.66053,-1.179275 1.39288,-2.374297 1.62744,-2.655605 0.32634,-0.391366 0.34943,-0.799066 0.0983,-1.736233 -0.54896,-2.048877 0.24728,-2.472473 1.92041,-1.021645 0.54166,0.469695 0.99061,1.100565 0.99766,1.401935 0.008,0.336942 0.20776,0.166869 0.51906,-0.441657 1.20482,-2.355154 2.41645,-3.013172 3.42776,-1.861566 0.46426,0.528668 0.47494,0.666216 0.0781,1.005619 -0.31331,0.267959 -0.52579,0.283022 -0.66716,0.0473 -0.41363,-0.689702 -1.12982,-0.319628 -1.72455,0.891117 -0.72228,1.470393 -0.97484,2.640941 -1.04981,4.865538 -0.0749,2.221985 -0.42821,2.868539 -1.49802,2.741172 -0.81159,-0.09662 -0.87641,-0.236868 -1.18084,-2.554915 -0.32212,-2.452678 -0.32212,-2.452678 -1.55266,0.113168 -0.99783,2.080622 -1.43631,2.654448 -2.31865,3.034372 -0.94569,0.407196 -1.23612,0.404803 -2.21871,-0.01828 -1.20656,-0.519526 -2.36686,-2.532521 -2.38642,-4.140181 -0.008,-0.690126 -0.16333,-0.549244 -0.94962,0.863528 -1.06862,1.920033 -2.7276,3.754609 -3.39525,3.754609 -0.24775,0 -0.92088,-0.434427 -1.49582,-0.965394 z m 9.53351,-9.84899 c -0.3082,-0.317607 -1.1361,0.261155 -1.1361,0.794213 0,0.507636 0.0562,0.503911 0.64215,-0.0426 0.35318,-0.329385 0.57546,-0.66761 0.49395,-0.751611 z m -69.677008,9.939843 c -0.336333,-0.416999 -0.461988,-2.262973 -0.536055,-7.87506 -0.09674,-7.330384 -0.09674,-7.330384 0.794066,-7.505872 1.593511,-0.31392 5.544508,0.138154 5.544508,0.634403 0,0.472424 -0.378474,0.546455 -2.32068,0.453925 -1.200352,-0.05718 -1.200352,-0.05718 -1.200352,2.112174 0,2.16936 0,2.16936 1.401228,2.16936 1.578386,0 2.622121,0.777286 1.463137,1.089621 -0.368588,0.09933 -1.163855,0.09803 -1.767262,-0.0029 -1.097103,-0.18347 -1.097103,-0.18347 -1.097103,4.129257 0,4.082707 -0.03794,4.340114 -0.711411,4.826232 -0.891296,0.643349 -1.028231,0.64063 -1.570076,-0.03117 z m 45.393306,-0.638816 c -1.233517,-1.271181 -1.641505,-2.903511 -1.641716,-6.568384 -1.51e-4,-2.633143 0.142441,-3.666133 0.706757,-5.119989 0.877758,-2.261379 2.348516,-4.1545803 2.980877,-3.8370773 2.014344,1.0113783 3.092356,1.8567203 3.536682,2.7733423 0.520293,1.073352 0.520293,1.073352 1.005312,0.329867 0.767409,-1.176354 0.985832,-0.446091 0.288123,0.963288 -0.46598,0.941288 -0.638971,1.98245 -0.659614,3.970002 -0.03266,3.144401 -0.919137,6.007033 -2.301292,7.431386 -1.179985,1.216015 -2.768338,1.239369 -3.915129,0.05757 z m 3.744967,-1.869865 c 0.612759,-1.086892 1.476321,-4.942931 1.477006,-6.595255 2.72e-4,-0.655889 -0.160214,-0.907134 -0.579454,-0.907134 -0.318906,0 -0.908477,-0.315531 -1.31016,-0.70118 -0.572948,-0.550081 -0.704913,-0.97586 -0.612378,-1.975816 0.0883,-0.954193 0.02849,-1.171826 -0.237957,-0.865687 -1.042386,1.197704 -1.847492,9.271912 -1.107989,11.11174 0.550494,1.369586 1.577493,1.340708 2.370932,-0.06667 z m 1.145945,-9.399124 c -0.0062,-0.317497 -0.210554,-0.94822 -0.454037,-1.401608 -0.442693,-0.824342 -0.442693,-0.824342 -0.664588,0.08675 -0.136251,0.559444 -0.06942,1.100413 0.173138,1.401608 0.530668,0.658938 0.959367,0.619604 0.945487,-0.08675 z M 50.903466,25.466364 c -0.14591,-0.457067 -1.16567,-7.292799 -1.241012,-8.318848 -0.07494,-1.020629 1.020867,-1.009508 2.06457,0.02095 0.510748,0.504267 0.9344,1.148849 0.941449,1.432403 0.007,0.283553 0.240627,0.07023 0.519063,-0.474049 1.204818,-2.355154 2.416448,-3.013173 3.427759,-1.861566 0.464263,0.528668 0.474946,0.666216 0.07811,1.005619 -0.313306,0.267959 -0.525784,0.283022 -0.667154,0.04729 -0.999165,-1.666043 -2.680446,2.007416 -2.7857,6.086522 -0.01873,0.725707 -0.163054,1.579239 -0.320731,1.896735 -0.328417,0.661299 -1.818975,0.783223 -2.016352,0.164934 z m 73.598394,-0.594188 c -0.48853,-0.556305 -0.4935,-0.91202 -0.0616,-4.412166 0.25837,-2.093894 0.65497,-4.037049 0.88133,-4.318122 0.36695,-0.455655 0.49272,-0.432468 1.16039,0.213931 0.68621,0.664336 0.79598,0.68154 1.31236,0.205694 0.97156,-0.895287 2.04539,-0.865977 2.96422,0.08091 0.53977,0.556247 0.64019,1.099557 0.64019,3.463604 0,1.649335 0.1318,2.80387 0.32009,2.80387 0.17606,0 0.3201,-0.133732 0.3201,-0.297183 0,-0.433988 2.92966,-4.380606 3.11218,-4.192505 0.43916,0.452558 -2.76193,6.259797 -3.64248,6.608015 -1.48026,0.585369 -2.34593,-1.441537 -2.34876,-5.499464 -9.6e-4,-1.447793 -0.13778,-2.556469 -0.31538,-2.556469 -0.58372,0 -1.60348,2.596816 -1.91844,4.885317 -0.1723,1.251975 -0.39873,2.505824 -0.50318,2.786332 -0.29228,0.784927 -1.32444,0.90756 -1.92101,0.228238 z"
       id="path766"
       class="white" /><path
       style="fill-opacity:1;stroke-width:0.325895"
       d="M 0.10397473,165.19456 0.20794926,154.35857 1.4196047,149.959 c 1.2410816,-4.50643 1.4671986,-6.15463 1.0323239,-7.52479 -0.22261,-0.70139 -0.1926373,-0.73471 0.2960379,-0.32915 0.2990493,0.24819 0.5921832,0.39368 0.6514086,0.32332 0.059225,-0.0704 0.586007,-2.07104 1.1706262,-4.446 0.5846191,-2.37495 1.1733854,-4.31808 1.3083689,-4.31808 0.1349842,0 -0.1920124,2.45642 -0.7266595,5.45872 l -0.9720848,5.45873 0.578914,3.25894 c 0.4049572,2.27967 0.6222469,5.59398 0.7231216,11.02978 0.079315,4.27395 0.2552106,7.64695 0.3908804,7.49555 0.6701622,-0.74783 1.314259,-4.90278 1.3160517,-8.48961 0.00354,-7.09817 1.329523,-12.87194 4.3401984,-18.89875 0.788307,-1.57804 1.620681,-3.45577 1.849722,-4.17275 0.769246,-2.40797 2.850179,-6.17393 4.671794,-8.45476 0.993958,-1.24453 1.893014,-2.6047 1.997903,-3.02261 0.12304,-0.49022 -0.188025,-1.59529 -0.876686,-3.11447 -0.988703,-2.18107 -1.067395,-2.60698 -1.067395,-5.77728 0,-3.03317 0.09681,-3.61823 0.850761,-5.1417 0.467917,-0.94547 0.761221,-1.77358 0.651789,-1.84021 -0.109436,-0.0665 -2.676984,-1.09229 -5.705667,-2.27926 C 5.8530953,102.02057 3.4437206,100.23102 0.83315086,95.468524 0.06810229,94.072834 0.00137769,93.654106 0.08648574,90.782836 l 0.09346035,-3.153034 3.16330871,1.645765 c 4.9497879,2.575209 8.2355062,5.037401 14.1545722,10.606889 1.458953,1.372774 2.749689,2.495964 2.868302,2.495964 0.189596,0 -1.755447,-2.908203 -9.83904,-14.711275 -1.1202614,-1.635723 -2.0368403,-3.324721 -2.0368403,-3.753328 0,-2.607373 6.1066943,-0.745523 9.9452263,3.032164 2.12631,2.092611 3.497527,4.837499 5.348695,10.706981 0.734902,2.33014 1.400737,4.414628 1.479629,4.632198 0.103707,0.286 0.576343,0.19793 1.706196,-0.31793 2.396675,-1.09425 6.903557,-1.01886 10.283309,0.17202 1.39071,0.49004 3.165514,0.89098 3.94401,0.89098 2.715306,0 4.703792,2.21785 5.029722,5.60989 0.0981,1.02081 -0.0288,2.02095 -0.35483,2.79655 -0.279142,0.66409 -0.589281,1.90655 -0.689198,2.76103 -0.246113,2.10473 -0.943364,3.33765 -2.985439,5.27908 -2.281412,2.16895 -2.410442,2.82275 -1.153099,5.84304 0.555192,1.3336 1.442508,4.19825 1.97182,6.36587 0.529312,2.1676 1.071511,4.12281 1.204893,4.3449 0.786321,1.30927 5.493141,6.02457 5.869555,5.88012 0.241932,-0.0931 0.439874,-0.006 0.439874,0.19196 0,0.19843 0.125155,0.36076 0.278123,0.36076 0.152969,0 0.762434,-1.86982 1.354368,-4.15515 0.591932,-2.28534 1.207546,-4.30181 1.368025,-4.48105 0.312502,-0.34904 0.283414,-0.12703 -0.832613,6.35494 l -0.70138,4.07366 1.059156,1.58076 c 1.233979,1.84166 1.365634,3.219 0.374081,3.91351 -0.593149,0.41544 -0.652388,0.66939 -0.441476,1.89237 0.133977,0.77689 0.332274,4.49221 0.440655,8.2563 l 0.197056,6.84378 0.76981,-3.25895 c 1.073161,-4.54313 1.397187,-4.85257 1.194389,-1.14063 l -0.169145,3.096 0.677204,-1.41807 c 0.954497,-1.99875 1.40595,-5.22463 0.998518,-7.13497 -0.423015,-1.98336 -0.189634,-2.2044 0.492894,-0.46685 0.294125,0.74873 0.623262,1.36139 0.731417,1.36139 0.108154,0 0.537839,-0.87992 0.954853,-1.95537 0.417019,-1.07545 0.874484,-1.95537 1.016588,-1.95537 0.142109,0 -0.01584,1.50317 -0.350978,3.34042 -0.680939,3.73284 -0.65309,4.03596 0.771063,8.39176 l 1.012247,3.09601 0.882505,-3.58483 c 0.953625,-3.87375 2.666901,-8.47425 2.838493,-7.62194 0.05819,0.289 -0.267709,2.69523 -0.724202,5.34717 -0.456494,2.65197 -0.80955,5.86185 -0.78457,7.13309 l 0.0454,2.31135 0.3131,-2.68864 c 0.172203,-1.47874 0.428419,-2.68863 0.569367,-2.68863 0.14095,0 0.35814,0.67931 0.482644,1.50957 0.536391,3.57692 0.786004,2.69792 0.845138,-2.97609 0.03363,-3.22634 0.152914,-6.89267 0.265078,-8.14736 l 0.203941,-2.28125 1.745946,7.33261 c 2.413773,10.13738 2.263784,9.6748 2.298342,7.0882 0.03306,-2.47474 0.462384,-2.84273 1.045578,-0.89619 0.214806,0.71696 0.487839,1.30357 0.606735,1.30357 0.181936,0 -0.564877,-7.498 -1.095514,-10.99894 -0.229374,-1.51334 0.04971,-1.31262 0.906351,0.65178 0.860716,1.97377 1.601149,4.86763 2.170122,8.48153 0.219416,1.39368 0.440028,2.49287 0.490237,2.44266 0.05021,-0.0502 0.695189,-2.29038 1.433276,-4.97816 1.923779,-7.00553 2.645897,-9.36913 2.811747,-9.2033 0.08006,0.0804 -0.063,1.15737 -0.317934,2.39395 -0.662461,3.2134 -1.578053,10.2667 -1.360902,10.48385 0.100909,0.10088 0.183475,-0.0285 0.183475,-0.28742 0,-0.25896 0.523843,-1.56393 1.164095,-2.89992 l 1.164095,-2.42905 -0.385987,-5.27334 c -0.212294,-2.90033 -0.324933,-5.45648 -0.250312,-5.68036 0.07462,-0.22385 0.714376,2.29311 1.421677,5.59326 1.269238,5.92208 1.287295,5.97279 1.384953,3.8894 0.05441,-1.161 -0.135162,-4.36886 -0.421293,-7.12859 -0.286132,-2.75973 -0.450879,-5.08705 -0.366103,-5.17182 0.64618,-0.64619 3.360772,8.51418 4.15886,14.03404 0.403354,2.78972 0.937426,3.81242 0.92033,1.76232 -0.01392,-1.6696 1.7326,-14.58376 1.972322,-14.58376 0.118475,0 0.309716,2.39116 0.424978,5.31374 0.325917,8.26379 0.339979,8.28323 2.254154,3.11528 1.485011,-4.00925 2.599127,-6.24763 2.086689,-4.19239 -0.422467,1.69437 -1.23992,7.87928 -1.064575,8.05463 0.583942,0.58395 1.487779,-5.03891 1.529092,-9.51261 0.0133,-1.43864 0.135152,-3.27564 0.270809,-4.08223 0.29193,-1.73573 0.360289,-1.5442 1.197067,3.35384 0.299825,1.75497 0.586481,3.14818 0.637019,3.09599 0.05053,-0.0522 0.776819,-2.71581 1.613957,-5.91913 1.424167,-5.44962 1.524582,-6.31081 0.92283,-7.91452 -0.199656,-0.5321 -0.161749,-0.54884 0.332384,-0.14678 0.306751,0.2496 0.602957,0.39624 0.658232,0.32588 0.05527,-0.0704 0.587862,-2.03438 1.183577,-4.36454 0.59567,-2.33013 1.22576,-4.38327 1.40019,-4.56252 0.20689,-0.21255 0.25155,-0.0425 0.12847,0.48886 -0.1038,0.44811 -0.5773,3.13037 -1.05225,5.9606 -0.84485,5.03471 -0.85222,5.20364 -0.34147,7.82144 0.54352,2.78573 1.15301,10.97496 1.19361,16.03728 l 0.0235,2.93305 0.83259,-3.42188 c 0.45793,-1.88205 0.88784,-3.483 0.95532,-3.55768 0.30946,-0.34243 0.34643,0.32976 0.15541,2.8244 -0.11321,1.47875 -0.13022,2.68649 -0.0378,2.68386 0.0925,-0.003 0.51825,-0.91419 0.94627,-2.02572 0.69558,-1.80635 0.75899,-2.36811 0.59713,-5.29099 -0.17649,-3.18745 -0.0823,-3.32181 0.73721,-1.05069 0.4414,1.22339 0.75599,0.94645 1.65473,-1.45674 0.41574,-1.11172 0.81896,-1.83216 0.89602,-1.601 0.077,0.23118 -0.1209,1.94301 -0.43991,3.80406 l -0.57999,3.38374 1.08475,3.66905 c 0.59662,2.01799 1.17666,3.77833 1.28899,3.91191 0.11234,0.13355 0.58631,-1.50199 1.05323,-3.63453 0.75432,-3.44513 2.41703,-8.08677 2.77026,-7.73353 0.0724,0.0724 -0.23701,2.23858 -0.68763,4.8137 -0.87513,5.00091 -1.40522,11.03277 -0.86973,9.89635 0.1689,-0.35848 0.32772,-1.45837 0.35293,-2.4442 0.0252,-0.98582 0.16226,-2.08574 0.30465,-2.44422 0.20249,-0.50999 0.34551,-0.23852 0.65734,1.24796 0.21919,1.04485 0.4799,1.81837 0.57933,1.71892 0.0994,-0.0994 0.27107,-3.52074 0.38139,-7.6029 l 0.20059,-7.42206 0.56168,1.79241 c 0.30893,0.98583 1.16389,4.43215 1.89994,7.65853 1.67847,7.35722 1.88254,7.86361 1.91092,4.74176 0.0237,-2.61387 0.31037,-2.73987 1.13129,-0.49727 0.63864,1.7447 0.62139,0.95581 -0.1142,-5.21922 -0.34142,-2.86623 -0.56012,-5.27199 -0.48597,-5.34614 0.52356,-0.52352 2.59422,6.44525 2.95158,9.93346 0.1178,1.1498 0.30393,2.09032 0.41359,2.09005 0.10969,-2.8e-4 0.84804,-2.31006 1.64077,-5.13283 1.62667,-5.79225 2.7635,-9.14345 2.45967,-7.25064 -0.48325,3.00993 -1.4455,9.99464 -1.43675,10.4286 0.005,0.26887 0.42589,-0.40978 0.93437,-1.5081 0.50849,-1.09832 1.0873,-2.05156 1.28623,-2.11831 0.35682,-0.11972 0.0866,-6.67307 -0.47538,-11.52767 -0.38953,-3.36508 0.11921,-1.81918 1.34531,4.08808 0.64942,3.1288 1.30517,5.98206 1.45722,6.34053 0.43964,1.03643 0.37816,-1.91775 -0.16905,-8.121 -0.26752,-3.03262 -0.43031,-5.56995 -0.36172,-5.63855 0.0686,-0.0686 0.5681,0.94611 1.10998,2.25491 0.93362,2.25481 2.09863,6.8992 3.09021,12.31938 0.52686,2.87994 0.52177,2.89683 1.40928,-4.67715 0.5442,-4.6442 0.54317,-4.96072 -0.0258,-7.82145 -0.73667,-3.70377 -1.10003,-4.44014 -2.71982,-5.51207 -1.04738,-0.69311 -1.45477,-1.28652 -2.17225,-3.16421 -0.60129,-1.57349 -0.81295,-2.59078 -0.66318,-3.18738 0.12095,-0.48195 1.27167,-2.86018 2.55716,-5.28498 2.9538,-5.57162 4.71742,-7.48688 7.75049,-8.41675 l 2.08457,-0.63913 0.24417,-5.17198 c 0.47226,-10.00361 2.48707,-16.91843 6.03471,-20.711134 1.157,-1.236955 1.68929,-1.579923 2.33531,-1.504738 l 0.83671,0.09737 -0.0548,5.540202 c -0.0604,6.09274 -0.65789,9.78613 -2.87213,17.75329 -0.62147,2.23614 -1.02371,4.16988 -0.89388,4.29719 0.12984,0.12731 1.7026,-2.35363 3.49501,-5.51322 3.7178,-6.5535 6.4702,-10.63176 10.17123,-15.07073 3.66316,-4.39352 5.08321,-4.96284 5.04262,-2.02168 -0.0265,1.90948 -1.58125,10.52568 -2.54084,14.07977 -1.61527,5.98241 -4.31582,9.73799 -8.52744,11.85895 l -2.2956,1.15604 0.46006,1.5287 c 0.25304,0.84081 0.46007,2.14262 0.46007,2.89293 0,2.29653 0.50723,2.51561 5.25963,2.27193 3.47795,-0.17833 4.38461,-0.11331 6.63553,0.47584 3.65486,0.95664 5.75838,2.07145 8.17607,4.33307 L 176,143.84175 v 16.09439 16.09441 H 87.999953 0 Z M 128.06095,166.96774 c -0.0249,-1.42022 -0.0932,-1.66383 -0.29338,-1.03993 -0.38632,1.20627 -0.38632,3.33476 0,3.096 0.17924,-0.11077 0.31124,-1.03601 0.29338,-2.05607 z M 8.1643553,164.76796 c 0,-0.27946 -0.1466523,-0.41745 -0.3258941,-0.30666 -0.1792419,0.11077 -0.3258944,0.3394 -0.3258944,0.50807 0,0.16867 0.1466525,0.30666 0.3258944,0.30666 0.1792418,0 0.3258941,-0.22864 0.3258941,-0.50807 z m 43.1767757,-8.61698 c 0.110589,-3.63482 0.06811,-5.77021 -0.106961,-5.37725 -0.159713,0.35849 -0.376111,3.58484 -0.480882,7.16966 -0.122145,4.17925 -0.08377,6.10863 0.106962,5.37728 0.163599,-0.62736 0.38,-3.8537 0.480881,-7.16969 z m 48.241671,-0.40737 c 0.160683,-3.53417 0.135011,-5.45872 -0.07281,-5.45872 -0.365659,0 -0.769135,6.33757 -0.703499,11.0501 0.03771,2.70679 0.07606,2.90764 0.285835,1.49684 0.133259,-0.89622 0.353972,-4.08591 0.490468,-7.08822 z m -96.1933563,5.70315 c 0.2217531,-2.34797 0.2260795,-11.00452 0.00509,-10.18417 -0.2330437,0.86505 -0.6145419,12.38435 -0.4101407,12.38416 0.1085121,-1e-4 0.2907852,-0.99009 0.4050507,-2.19999 z m 45.1060453,-8.80028 c 0.404241,-1.74698 0.734208,-3.27003 0.733264,-3.38456 -9.79e-4,-0.11453 -1.137655,-0.7477 -2.52602,-1.40702 -1.38836,-0.65934 -2.802988,-1.44554 -3.143608,-1.74714 -0.34062,-0.30159 -0.56122,-0.40169 -0.490224,-0.22244 0.071,0.17924 0.64237,1.56024 1.269716,3.06892 l 1.14063,2.74301 0.174732,-1.60238 0.174732,-1.60239 0.380654,1.30356 c 0.329571,1.12864 1.052696,5.07549 1.059842,5.78464 0.0013,0.13443 0.112448,0.24391 0.246879,0.24328 0.134431,-6.6e-4 0.575163,-1.4305 0.979403,-3.17748 z"
       id="path602"
       class="white" /></g><g
     inkscape:groupmode="layer"
     id="layer1"
     inkscape:label="eggs"><path
       id="path6483-1"
       style="display:inline;fill-opacity:1;stroke-width:29.246"
       d="m 128.789,54.286644 c 0,4.99035 -2.81928,7.420466 -6.29705,7.420466 -3.47777,0 -6.29706,-2.430116 -6.29706,-7.420466 0,-4.99035 2.81929,-10.651189 6.29706,-10.651189 3.47777,0 6.29705,5.660839 6.29705,10.651189 z"
       sodipodi:nodetypes="sssss"
       inkscape:transform-center-x="4.3740716"
       inkscape:transform-center-y="-9.4543456"
       class="yellow" /><path
       id="path6483-9"
       style="display:inline;stroke-width:29.246"
       d="m 108.92988,79.187229 c 0,4.99035 -2.81929,7.420466 -6.29705,7.420466 -3.47777,0 -6.297058,-2.430116 -6.297058,-7.420466 0,-4.99035 2.819288,-10.651189 6.297058,-10.651189 3.47776,0 6.29705,5.660839 6.29705,10.651189 z"
       sodipodi:nodetypes="sssss"
       class="red" /><path
       id="path6483-62"
       style="display:inline;stroke-width:29.246"
       d="m 124.90672,98.022386 c 0,4.990344 -2.81928,7.420464 -6.29705,7.420464 -3.47777,0 -6.29705,-2.43012 -6.29705,-7.420464 0,-4.99035 2.81928,-10.651189 6.29705,-10.651189 3.47777,0 6.29705,5.660839 6.29705,10.651189 z"
       sodipodi:nodetypes="sssss"
       class="blue" /><path
       id="path6483-35"
       style="display:inline;stroke-width:29.246"
       d="m 124.94873,127.64624 c 0,4.99035 -2.81928,7.42046 -6.29705,7.42046 -3.47777,0 -6.29706,-2.43011 -6.29706,-7.42046 0,-4.99035 2.81929,-10.65119 6.29706,-10.65119 3.47777,0 6.29705,5.66084 6.29705,10.65119 z"
       sodipodi:nodetypes="sssss"
       class="yellow" /><path
       id="path6483-5"
       style="display:inline;stroke-width:29.246"
       d="m 103.45482,109.8037 c 0,4.99035 -2.81929,7.42047 -6.297062,7.42047 -3.477768,0 -6.297056,-2.43012 -6.297056,-7.42047 0,-4.99035 2.819288,-10.651189 6.297056,-10.651189 3.477772,0 6.297062,5.660839 6.297062,10.651189 z"
       sodipodi:nodetypes="sssss"
       class="red" /><path
       id="path6483-6"
       style="display:inline;stroke-width:29.246"
       d="m 90.110036,68.224297 c 0,4.99035 -2.819288,7.420466 -6.297056,7.420466 -3.477768,0 -6.297056,-2.430116 -6.297056,-7.420466 0,-4.99035 2.819288,-10.651189 6.297056,-10.651189 3.477768,0 6.297056,5.660839 6.297056,10.651189 z"
       sodipodi:nodetypes="sssss"
       class="blue" /><path
       id="path6483-3"
       style="display:inline;stroke-width:29.246"
       d="m 70.375435,93.393771 c 0,4.99035 -2.819288,7.420469 -6.297056,7.420469 -3.477768,0 -6.297056,-2.430119 -6.297056,-7.420469 0,-4.99035 2.819288,-10.651189 6.297056,-10.651189 3.477768,0 6.297056,5.660839 6.297056,10.651189 z"
       sodipodi:nodetypes="sssss"
       class="yellow " /><path
       id="path6483"
       style="display:inline;fill-opacity:1;stroke-width:29.246"
       d="m 59.753515,57.966787 c 0,4.99035 -2.819288,7.420466 -6.297056,7.420466 -3.477768,0 -6.297056,-2.430116 -6.297056,-7.420466 0,-4.99035 2.819288,-10.651189 6.297056,-10.651189 3.477768,0 6.297056,5.660839 6.297056,10.651189 z"
       sodipodi:nodetypes="sssss"
       class="red" /><path
       id="path6483-7"
       style="display:inline;fill-opacity:1;stroke-width:29.246"
       d="m 70.316849,126.95179 c 0,4.99035 -2.819288,7.42047 -6.297056,7.42047 -3.477768,0 -6.297056,-2.43012 -6.297056,-7.42047 0,-4.99035 2.819288,-10.65119 6.297056,-10.65119 3.477768,0 6.297056,5.66084 6.297056,10.65119 z"
       sodipodi:nodetypes="sssss"
       class="blue" /></g></svg>
