<?xml version="1.0" encoding="UTF-8" standalone="no"?>
<!-- Created with Inkscape (http://www.inkscape.org/) -->

<svg
   width="176mm"
   height="176mm"
   viewBox="0 0 176 176"
   version="1.1"
   id="svg52"
   xml:space="preserve"
   inkscape:version="1.2.2 (b0a8486541, 2022-12-01)"
   sodipodi:docname="starsWinter.svg"
   xmlns:inkscape="http://www.inkscape.org/namespaces/inkscape"
   xmlns:sodipodi="http://sodipodi.sourceforge.net/DTD/sodipodi-0.dtd"
   xmlns="http://www.w3.org/2000/svg"
   xmlns:svg="http://www.w3.org/2000/svg"><style
     id="style1736">
.stars { 
    stroke-width:0.2;
    stroke:#000000;
    fill:#ffff00;
}
</style><sodipodi:namedview
     id="namedview54"
     pagecolor="#ffffff"
     bordercolor="#000000"
     borderopacity="0.25"
     inkscape:showpageshadow="2"
     inkscape:pageopacity="0.0"
     inkscape:pagecheckerboard="0"
     inkscape:deskcolor="#d1d1d1"
     inkscape:document-units="mm"
     showgrid="false"
     inkscape:zoom="0.53039953"
     inkscape:cx="-23.56714"
     inkscape:cy="438.34881"
     inkscape:window-width="1854"
     inkscape:window-height="1011"
     inkscape:window-x="66"
     inkscape:window-y="32"
     inkscape:window-maximized="1"
     inkscape:current-layer="layer1" /><defs
     id="defs49" /><g
     inkscape:label="Ebene 1"
     inkscape:groupmode="layer"
     id="layer1"><path
       style="display:inline;fill:#00713d;fill-opacity:1;stroke:#00642f;stroke-width:0.838;stroke-dasharray:none;stroke-opacity:1"
       d="m 34.900235,57.196476 c 14.290371,-15.756215 29.501494,-31.176878 45.276154,-46.27167 4.847782,-4.5196221 10.376937,-7.4965724 18.006174,0.0075 13.172067,11.707828 25.916577,24.200272 41.997417,42.573228 4.42354,5.255924 9.03318,10.455473 -3.00992,11.114578 l -13.73258,1.011279 c -0.73156,0.110652 -1.44107,0.271205 -0.90932,0.734509 0.86472,1.762317 11.00861,11.406679 32.22828,30.499386 1.45911,1.305051 3.91752,5.579894 -2.11762,6.680294 l -10.84393,0.71969 c -0.60168,-0.0204 -0.8889,0.68722 0.17139,1.79341 l 21.28855,25.39478 c 2.91312,3.86993 2.4269,8.82389 -3.87866,9.07626 -20.4674,1.95519 -39.21221,4.48706 -59.13642,4.53857 -1.307881,-0.0731 -2.188449,0.31947 -2.103392,1.76411 l -0.242017,19.18142 -19.42324,8.9e-4 -0.200931,-18.93628 c -0.02704,-1.75443 -1.020667,-2.57467 -3.016571,-2.4262 -23.106411,0.0958 -48.264342,-1.34975 -58.973961,-4.03754 -5.41519,-1.34991 -6.9383434,-5.11156 -3.169687,-9.31437 6.674702,-7.67659 13.144767,-16.13966 20.28757,-24.83572 0.733744,-0.85002 1.111231,-1.60768 -0.452893,-1.86194 l -8.321799,-0.95018 c -5.914077,-0.65871 -6.595831,-4.022375 -2.725308,-7.192989 9.645278,-8.811723 19.259682,-17.515148 29.104919,-27.028278 2.506742,-2.42998 0.098,-3.042239 -1.787268,-3.430001 L 36.547499,64.409706 c -7.561066,-2.14508 -2.929527,-5.817529 -1.647264,-7.21323 z"
       id="path384"
       sodipodi:nodetypes="ccccccccccccccccccccccccccccc" /></g><g
     inkscape:groupmode="layer"
     id="layer2"
     inkscape:label="Stars"><path
       style="fill-opacity:1;stroke-dasharray:none;stroke-opacity:1"
       d="m 50.032489,55.109957 -5.378924,7.388822 8.789497,-2.789793 5.583264,7.551282 0.06998,-9.395626 8.509209,-2.865013 -8.493465,-2.96347 -0.103343,-9.324228 -5.577902,7.460389 -8.771671,-2.699837 z"
       id="path1213"
       sodipodi:nodetypes="ccccccccccc"
       class="stars" /><path
       style="fill-opacity:1;stroke-dasharray:none;stroke-opacity:1"
       d="m 79.973942,66.133292 -5.378924,7.388822 8.789497,-2.789793 5.583264,7.551282 0.06998,-9.395626 8.509209,-2.865013 -8.493465,-2.96347 -0.103343,-9.324228 -5.577902,7.460389 -8.771671,-2.699837 z"
       id="path1647"
       sodipodi:nodetypes="ccccccccccc"
       class="stars" /><path
       style="fill-opacity:1;stroke-dasharray:none;stroke-opacity:1"
       d="m 98.048321,77.092078 -5.378924,7.388822 8.789493,-2.789793 5.58327,7.551282 0.07,-9.395626 8.50921,-2.865013 -8.49347,-2.96347 -0.10334,-9.324228 -5.5779,7.460389 -8.771674,-2.699837 z"
       id="path1649"
       sodipodi:nodetypes="ccccccccccc"
       class="stars" /><path
       style="fill-opacity:1;stroke-dasharray:none;stroke-opacity:1"
       d="m 117.90962,52.131955 -5.37892,7.388822 8.78949,-2.789793 5.58327,7.551282 0.07,-9.395626 8.50921,-2.865013 -8.49347,-2.96347 -0.10334,-9.324228 -5.5779,7.460389 -8.77167,-2.699837 z"
       id="path1651"
       sodipodi:nodetypes="ccccccccccc"
       class="stars" /><path
       style="fill-opacity:1;stroke-dasharray:none;stroke-opacity:1"
       d="m 59.954756,91.163077 -5.378924,7.388822 8.789497,-2.789793 5.583264,7.551284 0.06998,-9.395628 8.509209,-2.865013 -8.493465,-2.96347 -0.103343,-9.324228 -5.577902,7.460389 -8.771671,-2.699837 z"
       id="path1647-3"
       sodipodi:nodetypes="ccccccccccc"
       class="stars" /><path
       style="fill-opacity:1;stroke-dasharray:none;stroke-opacity:1"
       d="m 59.954756,123.03873 -5.378924,7.38882 8.789497,-2.78979 5.583264,7.55128 0.06998,-9.39562 8.509209,-2.86502 -8.493465,-2.96347 -0.103343,-9.32422 -5.577902,7.46038 -8.771671,-2.69983 z"
       id="path1647-35"
       sodipodi:nodetypes="ccccccccccc"
       class="stars" /><path
       style="fill-opacity:1;stroke-dasharray:none;stroke-opacity:1"
       d="m 114.02383,124.15462 -5.37892,7.38882 8.7895,-2.78979 5.58326,7.55128 0.07,-9.39563 8.50921,-2.86501 -8.49347,-2.96347 -0.10334,-9.32423 -5.5779,7.46039 -8.77167,-2.69984 z"
       id="path1647-5"
       sodipodi:nodetypes="ccccccccccc"
       class="stars" /><path
       style="fill-opacity:1;stroke-dasharray:none;stroke-opacity:1"
       d="m 114.02384,95.058834 -5.37893,7.388816 8.7895,-2.789786 5.58327,7.551276 0.07,-9.395626 8.5092,-2.86501 -8.49346,-2.963469 -0.10334,-9.324228 -5.5779,7.460389 -8.77168,-2.699837 z"
       id="path1647-7"
       sodipodi:nodetypes="ccccccccccc"
       class="stars" /><path
       style="fill-opacity:1;stroke-dasharray:none;stroke-opacity:1"
       d="m 91.954408,106.14579 -5.378924,7.38882 8.789497,-2.78979 5.583259,7.55128 0.07,-9.39562 8.50921,-2.86502 -8.49346,-2.96347 -0.10334,-9.324228 -5.577906,7.460388 -8.771671,-2.699834 z"
       id="path1647-6"
       sodipodi:nodetypes="ccccccccccc"
       class="stars" /></g></svg>
