<?xml version="1.0" encoding="UTF-8" standalone="no"?>
<!-- Created with Inkscape (http://www.inkscape.org/) -->

<svg
   width="176mm"
   height="176mm"
   viewBox="0 0 176 176"
   version="1.1"
   id="svg52"
   xml:space="preserve"
   inkscape:version="1.2.2 (b0a8486541, 2022-12-01)"
   sodipodi:docname="starsLp.svg"
   xmlns:inkscape="http://www.inkscape.org/namespaces/inkscape"
   xmlns:sodipodi="http://sodipodi.sourceforge.net/DTD/sodipodi-0.dtd"
   xmlns="http://www.w3.org/2000/svg"
   xmlns:svg="http://www.w3.org/2000/svg"><style
     id="style1736">
.stars { 
    stroke-width:0.2;
    stroke:#000000;
    fill:#ffff00;
}
</style><sodipodi:namedview
     id="namedview54"
     pagecolor="#ffffff"
     bordercolor="#000000"
     borderopacity="0.25"
     inkscape:showpageshadow="2"
     inkscape:pageopacity="0.0"
     inkscape:pagecheckerboard="0"
     inkscape:deskcolor="#d1d1d1"
     inkscape:document-units="mm"
     showgrid="false"
     inkscape:zoom="2.1215981"
     inkscape:cx="256.41049"
     inkscape:cy="207.15516"
     inkscape:window-width="1854"
     inkscape:window-height="1011"
     inkscape:window-x="66"
     inkscape:window-y="32"
     inkscape:window-maximized="1"
     inkscape:current-layer="layer1" /><defs
     id="defs49" /><g
     inkscape:label="Ebene 1"
     inkscape:groupmode="layer"
     id="layer1"
     style="display:inline"><rect
       style="fill:#134095;fill-opacity:1;stroke:none;stroke-width:0.639858;stroke-dasharray:none;stroke-opacity:1"
       id="rect1892"
       width="175.36014"
       height="175.36014"
       x="0.31992954"
       y="0.31992954" /></g><g
     inkscape:groupmode="layer"
     id="layer2"
     inkscape:label="Stars"><path
       style="fill-opacity:1;stroke-dasharray:none;stroke-opacity:1"
       d="M 35.352055,42.3228 27.862294,52.611292 40.10103,48.726671 47.875346,59.241342 47.972915,46.158545 59.821391,42.169201 47.994832,38.042735 47.850919,25.059376 40.084075,35.447459 27.870158,31.688113 Z"
       id="path1213"
       sodipodi:nodetypes="ccccccccccc"
       class="stars" /><path
       style="fill-opacity:1;stroke-dasharray:none;stroke-opacity:1"
       d="M 77.04344,57.672105 69.553675,67.960576 81.792448,64.075969 89.566842,74.59065 89.665551,61.507828 101.51388,57.518494 89.687223,53.392037 89.543402,40.408647 81.776555,50.796762 69.5626,47.037425 Z"
       id="path1647"
       sodipodi:nodetypes="ccccccccccc"
       class="stars" /><path
       style="fill-opacity:1;stroke-dasharray:none;stroke-opacity:1"
       d="m 102.21074,72.931534 -7.489625,10.288462 12.238675,-3.884621 7.77419,10.514687 0.0992,-13.08282 11.8484,-3.989342 -11.82641,-4.126446 -0.14383,-12.983399 -7.76679,10.388132 -12.214063,-3.759368 z"
       id="path1649"
       sodipodi:nodetypes="ccccccccccc"
       class="stars" /><path
       style="fill-opacity:1;stroke-dasharray:none;stroke-opacity:1"
       d="m 129.86647,38.17612 -7.48996,10.288488 12.23874,-3.884598 7.77442,10.514676 0.10001,-13.082839 11.84847,-3.989343 -11.82649,-4.126436 -0.14405,-12.9834 -7.7668,10.388124 -12.21389,-3.759343 z"
       id="path1651"
       sodipodi:nodetypes="ccccccccccc"
       class="stars" /><path
       style="fill-opacity:1;stroke-dasharray:none;stroke-opacity:1"
       d="M 49.168129,92.524501 41.67834,102.81289 53.917106,98.928339 61.691421,109.4431 61.788971,96.360181 73.637448,92.370872 61.810879,88.244454 61.666999,75.261038 53.900132,85.649147 41.686225,81.889809 Z"
       id="path1647-3"
       sodipodi:nodetypes="ccccccccccc"
       class="stars" /><path
       style="fill-opacity:1;stroke-dasharray:none;stroke-opacity:1"
       d="m 49.168129,136.90942 -7.489789,10.28834 12.238766,-3.88456 7.774315,10.51468 0.09761,-13.08285 11.848493,-3.98931 -11.826567,-4.12644 -0.14389,-12.98346 -7.766873,10.38815 -12.213895,-3.75929 z"
       id="path1647-35"
       sodipodi:nodetypes="ccccccccccc"
       class="stars" /><path
       style="fill-opacity:1;stroke-dasharray:none;stroke-opacity:1"
       d="m 124.45548,138.46315 -7.4896,10.28833 12.23883,-3.88448 7.77415,10.51474 0.0993,-13.08288 11.84848,-3.98917 -11.82648,-4.12658 -0.14401,-12.9833 -7.76676,10.38789 -12.21416,-3.75919 z"
       id="path1647-5"
       sodipodi:nodetypes="ccccccccccc"
       class="stars" /><path
       style="fill-opacity:1;stroke-dasharray:none;stroke-opacity:1"
       d="m 124.45556,97.949123 -7.48968,10.288377 12.23883,-3.88465 7.77416,10.51478 0.0988,-13.08274 11.84845,-3.989411 -11.82649,-4.126457 -0.144,-12.983407 -7.76671,10.388149 -12.21414,-3.759363 z"
       id="path1647-7"
       sodipodi:nodetypes="ccccccccccc"
       class="stars" /><path
       style="fill-opacity:1;stroke-dasharray:none;stroke-opacity:1"
       d="m 93.725471,113.38708 -7.489886,10.28818 12.238938,-3.8844 7.774117,10.51473 0.10002,-13.08296 11.84844,-3.98919 -11.82653,-4.12656 -0.14355,-12.983379 -7.767091,10.388039 -12.213874,-3.75924 z"
       id="path1647-6"
       sodipodi:nodetypes="ccccccccccc"
       class="stars" /></g></svg>
