<?xml version="1.0" encoding="UTF-8" standalone="no"?>
<!-- Created with Inkscape (http://www.inkscape.org/) -->

<svg
   width="176mm"
   height="176mm"
   viewBox="0 0 176 176"
   version="1.1"
   id="svg52"
   xml:space="preserve"
   inkscape:version="1.2.2 (b0a8486541, 2022-12-01)"
   sodipodi:docname="starsWinter.svg"
   inkscape:export-filename="starsWinter.png"
   inkscape:export-xdpi="96"
   inkscape:export-ydpi="96"
   xmlns:inkscape="http://www.inkscape.org/namespaces/inkscape"
   xmlns:sodipodi="http://sodipodi.sourceforge.net/DTD/sodipodi-0.dtd"
   xmlns="http://www.w3.org/2000/svg"
   xmlns:svg="http://www.w3.org/2000/svg"><style
     id="style1736">.green { fill:#00713d; }
.stars { stroke-width:0.2;    stroke:#000000;    fill:#ffff00; }
</style><sodipodi:namedview
     id="namedview54"
     pagecolor="#ffffff"
     bordercolor="#000000"
     borderopacity="0.25"
     inkscape:showpageshadow="2"
     inkscape:pageopacity="0.0"
     inkscape:pagecheckerboard="0"
     inkscape:deskcolor="#d1d1d1"
     inkscape:document-units="mm"
     showgrid="false"
     inkscape:zoom="0.53039953"
     inkscape:cx="-23.56714"
     inkscape:cy="438.34881"
     inkscape:window-width="1854"
     inkscape:window-height="1011"
     inkscape:window-x="66"
     inkscape:window-y="32"
     inkscape:window-maximized="1"
     inkscape:current-layer="layer1" /><defs
     id="defs49" /><g
     inkscape:label="Ebene 1"
     inkscape:groupmode="layer"
     id="layer1"><path
       style="display:inline;fill-opacity:1;stroke:#00642f;stroke-width:0.838;stroke-dasharray:none;stroke-opacity:1"
       d="m 34.900235,57.196476 c 14.290371,-15.756215 29.501494,-31.176878 45.276154,-46.27167 4.847782,-4.5196221 10.376937,-7.4965724 18.006174,0.0075 13.172067,11.707828 25.916577,24.200272 41.997417,42.573228 4.42354,5.255924 9.03318,10.455473 -3.00992,11.114578 l -13.73258,1.011279 c -0.73156,0.110652 -1.44107,0.271205 -0.90932,0.734509 0.86472,1.762317 11.00861,11.406679 32.22828,30.499386 1.45911,1.305051 3.91752,5.579894 -2.11762,6.680294 l -10.84393,0.71969 c -0.60168,-0.0204 -0.8889,0.68722 0.17139,1.79341 l 21.28855,25.39478 c 2.91312,3.86993 2.4269,8.82389 -3.87866,9.07626 -20.4674,1.95519 -39.21221,4.48706 -59.13642,4.53857 -1.307881,-0.0731 -2.188449,0.31947 -2.103392,1.76411 l -0.242017,19.18142 -19.42324,8.9e-4 -0.200931,-18.93628 c -0.02704,-1.75443 -1.020667,-2.57467 -3.016571,-2.4262 -23.106411,0.0958 -48.264342,-1.34975 -58.973961,-4.03754 -5.41519,-1.34991 -6.9383434,-5.11156 -3.169687,-9.31437 6.674702,-7.67659 13.144767,-16.13966 20.28757,-24.83572 0.733744,-0.85002 1.111231,-1.60768 -0.452893,-1.86194 l -8.321799,-0.95018 c -5.914077,-0.65871 -6.595831,-4.022375 -2.725308,-7.192989 9.645278,-8.811723 19.259682,-17.515148 29.104919,-27.028278 2.506742,-2.42998 0.098,-3.042239 -1.787268,-3.430001 L 36.547499,64.409706 c -7.561066,-2.14508 -2.929527,-5.817529 -1.647264,-7.21323 z"
       id="path384"
       sodipodi:nodetypes="ccccccccccccccccccccccccccccc"
       class="green" /><path
       style="display:inline;stroke-width:0.352778"
       d="m 110.82848,163.2265 c -0.58209,-0.24356 -1.21709,-0.42798 -1.41111,-0.40983 -0.19403,0.0181 -0.72595,0.16003 -1.18204,0.31529 -0.47379,0.16128 -0.97568,0.13587 -1.17083,-0.0593 -0.22024,-0.22024 0.0873,-1.45449 0.86583,-3.47463 0.66407,-1.72318 1.63211,-4.06081 2.1512,-5.19472 l 0.94379,-2.06165 -1.68592,0.12137 c -0.92726,0.0668 -1.72561,0.002 -1.77412,-0.1432 -0.0485,-0.14552 -0.0882,-0.42333 -0.0882,-0.61736 0,-0.19403 0.72226,-0.35278 1.60502,-0.35278 0.88276,0 2.05411,-0.23223 2.603,-0.51608 0.91206,-0.47164 1.05104,-0.45745 1.61416,0.16479 0.3389,0.37448 0.53257,0.9639 0.43039,1.30983 -0.10218,0.34593 -0.65466,1.89896 -1.22774,3.45118 -0.57307,1.55223 -1.36937,3.49961 -1.76955,4.32753 l -0.7276,1.5053 1.0117,0.52317 c 0.55643,0.28774 1.26268,0.52317 1.56945,0.52317 0.30677,0 0.64913,-0.23813 0.76082,-0.52917 0.11168,-0.29104 0.34482,-0.52916 0.51809,-0.52916 0.17327,0 0.31504,0.31191 0.31504,0.69314 0,0.38123 -0.30707,0.85748 -0.68237,1.05833 -0.3753,0.20086 -0.89123,0.35898 -1.14652,0.35138 -0.25529,-0.008 -0.94042,-0.21307 -1.5225,-0.45662 z m 5.34681,-0.28188 c -0.35773,-0.20794 -0.87367,-0.91239 -1.14653,-1.56544 -0.27286,-0.65305 -0.49263,-2.10527 -0.48837,-3.22717 0.005,-1.23031 0.27177,-2.62126 0.67305,-3.50501 0.37077,-0.81656 0.99968,-1.57135 1.42063,-1.70495 0.46269,-0.14685 1.09036,-0.0202 1.62001,0.32682 0.47557,0.3116 0.86468,0.87893 0.86468,1.26073 0,0.40535 -0.51193,1.02579 -1.23036,1.49117 -0.96917,0.6278 -1.22553,1.02167 -1.20761,1.85533 0.0125,0.58208 0.2105,1.68061 0.43998,2.44117 0.22947,0.76056 0.60513,1.44547 0.83479,1.52202 0.22966,0.0766 0.84775,-0.54572 1.37354,-1.38283 0.52578,-0.83712 1.26156,-1.96891 1.63506,-2.51511 0.37349,-0.54619 0.75557,-1.41931 0.84905,-1.94027 0.0935,-0.52096 0.30219,-1.08097 0.46378,-1.24447 0.16159,-0.16349 0.63853,-0.11277 1.05987,0.11273 0.58159,0.31125 0.72356,0.6377 0.58954,1.3556 -0.0971,0.52008 -0.0625,1.65998 0.0769,2.5331 l 0.25339,1.5875 1.04702,-1.5875 c 0.57586,-0.87312 1.1264,-2.2225 1.22341,-2.99861 0.16243,-1.29942 0.0926,-1.44849 -0.88194,-1.8834 l -1.05834,-0.4723 1.21388,-0.40965 c 1.05117,-0.35473 1.27191,-0.63827 1.64677,-2.1152 0.23808,-0.93806 0.53288,-1.80557 0.65512,-1.9278 0.12223,-0.12224 0.49244,-0.0531 0.82268,0.15363 0.33024,0.20673 0.64962,0.86827 0.70974,1.47007 0.10088,1.00996 0.17734,1.06833 0.9931,0.75818 0.4861,-0.18482 1.03223,-0.33603 1.21362,-0.33603 0.1814,0 0.32981,0.1282 0.32981,0.28489 0,0.15669 -0.63484,0.56498 -1.41075,0.90731 -0.88768,0.39164 -1.46822,0.90733 -1.56574,1.39081 -0.0853,0.42261 -0.24758,1.83024 -0.36075,3.12807 -0.11317,1.29784 -0.10231,3.00669 0.0241,3.79746 0.19078,1.19306 0.31549,1.36675 0.73272,1.02048 0.27654,-0.22951 1.13209,-1.46212 1.90122,-2.73913 0.76913,-1.27701 1.63182,-2.62774 1.91709,-3.00163 0.28527,-0.3739 0.61403,-0.58445 0.73058,-0.4679 0.11654,0.11654 -0.46718,1.51718 -1.29718,3.11253 -0.82999,1.59535 -1.89032,3.35372 -2.35628,3.90749 -0.47072,0.55942 -1.2009,1.00684 -1.64312,1.00684 -0.43775,0 -1.08841,-0.32321 -1.44591,-0.71825 -0.35751,-0.39503 -0.7393,-1.36901 -0.84843,-2.16439 l -0.19842,-1.44614 -0.88355,1.37064 c -0.49072,0.76126 -1.22059,1.41878 -1.64163,1.47891 -0.47446,0.0678 -0.96881,-0.19258 -1.32131,-0.69585 -0.30978,-0.44227 -0.57087,-1.28474 -0.5802,-1.87216 -0.0155,-0.97353 -0.11341,-0.88104 -1.10686,1.04523 -0.59944,1.16229 -1.34587,2.30818 -1.65873,2.54642 -0.31286,0.23823 -0.96571,0.43338 -1.45077,0.43365 -0.48507,2.7e-4 -1.17464,-0.16965 -1.53236,-0.37759 z m 1.17958,-8.24352 c 0.25313,-0.30501 0.28742,-0.52917 0.0809,-0.52917 -0.19703,0 -0.44961,0.23813 -0.56129,0.52917 -0.11169,0.29104 -0.14811,0.52917 -0.0809,0.52917 0.0672,0 0.31974,-0.23813 0.56129,-0.52917 z m 5.09578,-1.25626 c -0.56313,-0.62226 -0.58373,-0.77407 -0.14287,-1.05293 0.28333,-0.17921 0.60386,-0.32827 0.7123,-0.33124 0.10844,-0.003 0.49142,0.20977 0.85107,0.47275 0.40036,0.29275 0.56758,0.70312 0.43128,1.05833 -0.12245,0.3191 -0.44114,0.58018 -0.7082,0.58018 -0.26706,0 -0.78167,-0.32719 -1.14358,-0.72709 z"
       id="path18606"
       class="green" /><path
       style="stroke-width:0.352778"
       d="m 27.59138,163.06722 c -0.3779,-0.45535 -1.808464,-7.9741 -1.812916,-9.52832 -0.0012,-0.41728 -0.238478,-1.21178 -0.527295,-1.76555 -0.589554,-1.1304 -0.435764,-1.63898 0.495612,-1.63898 1.155418,0 1.959327,1.44465 2.914246,5.23699 0.520567,2.06736 0.958563,3.33262 0.973325,2.81167 0.01476,-0.52094 0.178585,-1.34629 0.36405,-1.8341 0.209491,-0.551 0.215658,-1.63377 0.01629,-2.85877 -0.347239,-2.13352 -0.190716,-3.00301 0.540589,-3.00301 0.999868,0 1.801932,1.74456 2.416562,5.25624 0.343738,1.96395 0.747596,3.49503 0.897461,3.40241 0.149865,-0.0926 0.371253,-1.32465 0.491974,-2.73783 0.120722,-1.41319 0.468114,-3.40287 0.771984,-4.42151 0.678788,-2.27546 1.431689,-2.52108 1.0814,-0.35278 -0.133217,0.82462 -0.373,2.68993 -0.532851,4.14514 -0.483771,4.40403 -1.174967,7.46625 -1.733652,7.68064 -0.789125,0.30282 -1.663032,-1.04938 -2.372779,-3.6714 l -0.641172,-2.36868 -0.428913,2.54556 c -0.235902,1.40005 -0.621142,2.77718 -0.856089,3.06027 -0.534275,0.64376 -1.541348,0.66432 -2.057821,0.042 z m 23.614862,-0.45681 c -0.425598,-0.54106 -0.735643,-1.46251 -0.741888,-2.20486 -0.0095,-1.12417 -0.05698,-1.19171 -0.400956,-0.56979 -0.690703,1.24883 -1.81078,2.29306 -2.45962,2.29306 -0.993589,0 -1.362029,-1.13888 -1.362029,-4.21015 0,-1.56497 -0.129518,-2.84541 -0.287817,-2.84541 -0.519253,0 -1.82885,2.71844 -1.82885,3.7963 0,1.77273 -0.404347,3.20356 -0.966245,3.41918 -0.849151,0.32585 -1.503088,-0.49077 -1.504518,-1.87881 l -0.0013,-1.27973 -0.647066,1.05834 c -2.071274,3.38775 -3.936408,2.03546 -3.936408,-2.85405 0,-2.33965 0.267534,-2.80058 1.414268,-2.43662 0.618349,0.19626 0.702399,0.53669 0.702399,2.845 0,1.44213 0.119062,2.6192 0.264583,2.61572 0.51278,-0.0123 2.449188,-3.3612 2.691952,-4.65559 0.295506,-1.57561 0.764214,-1.94143 1.563611,-1.22039 0.517462,0.46674 0.684502,0.47125 1.279919,0.0346 1.829862,-1.34207 3.01938,-0.10443 3.01938,3.14151 0,1.29441 0.130551,2.35347 0.290113,2.35347 0.613423,0 2.079476,-2.79338 2.296305,-4.37532 0.130462,-0.95183 0.09238,-1.5749 -0.08939,-1.46256 -0.394959,0.2441 -1.438691,-0.13448 -1.438691,-0.52183 0,-0.15786 0.463972,-0.38891 1.031048,-0.51346 0.862799,-0.18951 1.068447,-0.44782 1.260233,-1.583 0.126053,-0.74609 0.438652,-1.64299 0.694666,-1.99312 0.394545,-0.53957 0.551939,-0.56482 1.032822,-0.16573 0.312038,0.25897 0.567342,0.92374 0.567342,1.47726 0,0.93454 0.06462,0.98184 0.90491,0.66236 2.024917,-0.76987 2.186658,-0.0262 0.190114,0.87413 -1.038508,0.4683 -1.426497,0.88017 -1.5875,1.68518 -0.305336,1.52668 -0.263605,8.03322 0.0515,8.03034 0.580565,-0.005 3.357915,-4.69746 3.914659,-6.61359 0.538077,-1.85189 1.692825,-2.72046 2.970815,-2.23457 0.492411,0.18721 1.000337,0.51035 1.128724,0.71808 0.403337,0.65262 -0.167355,1.74406 -1.244692,2.38046 -0.845023,0.49917 -1.033184,0.84319 -1.016956,1.85935 0.02752,1.72372 0.759633,3.7163 1.36543,3.7163 0.276867,0 1.191736,-1.1352 2.033037,-2.52267 1.29147,-2.12988 1.476978,-2.66118 1.191419,-3.41226 -0.498479,-1.31109 0.357417,-1.94353 1.562047,-1.15423 0.486043,0.31847 0.883712,0.8135 0.883712,1.10007 0,0.83317 0.480663,0.60181 1.133633,-0.54566 0.332458,-0.58422 0.869975,-1.16411 1.194481,-1.28863 0.662616,-0.25427 1.60648,0.22438 1.843275,0.93477 0.11709,0.35127 -0.115602,0.4149 -0.925163,0.25299 -1.013069,-0.20261 -1.117473,-0.12218 -1.647656,1.26937 -0.311326,0.81713 -0.679305,2.51757 -0.817728,3.77875 -0.236383,2.15371 -0.309411,2.29972 -1.201794,2.40275 -1.000859,0.11555 -1.146447,-0.21855 -1.431361,-3.2847 -0.09493,-1.0216 -0.126305,-0.99727 -0.904134,0.70116 -1.022876,2.23351 -2.076027,3.35579 -3.149075,3.35579 -1.712566,0 -2.780598,-1.09702 -3.262831,-3.35139 l -0.226388,-1.05834 -0.581486,1.10424 c -1.696042,3.22076 -3.464046,4.09322 -4.814836,2.37597 z m 8.79384,-8.3291 c 0,-0.19679 -0.233983,-0.15859 -0.529166,0.0864 -0.291042,0.24155 -0.529167,0.59792 -0.529167,0.79195 0,0.19679 0.233983,0.15859 0.529167,-0.0864 0.291041,-0.24154 0.529166,-0.59792 0.529166,-0.79195 z m -22.208715,-0.42315 c -0.246399,-0.29689 -0.355844,-0.77995 -0.243213,-1.07346 0.399831,-1.04195 2.147603,-0.3736 1.933282,0.73928 -0.162678,0.84472 -1.110775,1.03219 -1.690069,0.33418 z"
       id="path18604"
       class="green" /></g><g
     inkscape:groupmode="layer"
     id="layer2"
     inkscape:label="Stars"><path
       style="fill-opacity:1;stroke-dasharray:none;stroke-opacity:1"
       d="m 50.032489,55.109957 -5.378924,7.388822 8.789497,-2.789793 5.583264,7.551282 0.06998,-9.395626 8.509209,-2.865013 -8.493465,-2.96347 -0.103343,-9.324228 -5.577902,7.460389 -8.771671,-2.699837 z"
       id="path1213"
       sodipodi:nodetypes="ccccccccccc"
       class="stars" /><path
       style="fill-opacity:1;stroke-dasharray:none;stroke-opacity:1"
       d="m 79.973942,66.133292 -5.378924,7.388822 8.789497,-2.789793 5.583264,7.551282 0.06998,-9.395626 8.509209,-2.865013 -8.493465,-2.96347 -0.103343,-9.324228 -5.577902,7.460389 -8.771671,-2.699837 z"
       id="path1647"
       sodipodi:nodetypes="ccccccccccc"
       class="stars" /><path
       style="fill-opacity:1;stroke-dasharray:none;stroke-opacity:1"
       d="m 98.048321,77.092078 -5.378924,7.388822 8.789493,-2.789793 5.58327,7.551282 0.07,-9.395626 8.50921,-2.865013 -8.49347,-2.96347 -0.10334,-9.324228 -5.5779,7.460389 -8.771674,-2.699837 z"
       id="path1649"
       sodipodi:nodetypes="ccccccccccc"
       class="stars" /><path
       style="fill-opacity:1;stroke-dasharray:none;stroke-opacity:1"
       d="m 117.90962,52.131955 -5.37892,7.388822 8.78949,-2.789793 5.58327,7.551282 0.07,-9.395626 8.50921,-2.865013 -8.49347,-2.96347 -0.10334,-9.324228 -5.5779,7.460389 -8.77167,-2.699837 z"
       id="path1651"
       sodipodi:nodetypes="ccccccccccc"
       class="stars" /><path
       style="fill-opacity:1;stroke-dasharray:none;stroke-opacity:1"
       d="m 59.954756,91.163077 -5.378924,7.388822 8.789497,-2.789793 5.583264,7.551284 0.06998,-9.395628 8.509209,-2.865013 -8.493465,-2.96347 -0.103343,-9.324228 -5.577902,7.460389 -8.771671,-2.699837 z"
       id="path1647-3"
       sodipodi:nodetypes="ccccccccccc"
       class="stars" /><path
       style="fill-opacity:1;stroke-dasharray:none;stroke-opacity:1"
       d="m 59.954756,123.03873 -5.378924,7.38882 8.789497,-2.78979 5.583264,7.55128 0.06998,-9.39562 8.509209,-2.86502 -8.493465,-2.96347 -0.103343,-9.32422 -5.577902,7.46038 -8.771671,-2.69983 z"
       id="path1647-35"
       sodipodi:nodetypes="ccccccccccc"
       class="stars" /><path
       style="fill-opacity:1;stroke-dasharray:none;stroke-opacity:1"
       d="m 114.02383,124.15462 -5.37892,7.38882 8.7895,-2.78979 5.58326,7.55128 0.07,-9.39563 8.50921,-2.86501 -8.49347,-2.96347 -0.10334,-9.32423 -5.5779,7.46039 -8.77167,-2.69984 z"
       id="path1647-5"
       sodipodi:nodetypes="ccccccccccc"
       class="stars" /><path
       style="fill-opacity:1;stroke-dasharray:none;stroke-opacity:1"
       d="m 114.02384,95.058834 -5.37893,7.388816 8.7895,-2.789786 5.58327,7.551276 0.07,-9.395626 8.5092,-2.86501 -8.49346,-2.963469 -0.10334,-9.324228 -5.5779,7.460389 -8.77168,-2.699837 z"
       id="path1647-7"
       sodipodi:nodetypes="ccccccccccc"
       class="stars" /><path
       style="fill-opacity:1;stroke-dasharray:none;stroke-opacity:1"
       d="m 91.954408,106.14579 -5.378924,7.38882 8.789497,-2.78979 5.583259,7.55128 0.07,-9.39562 8.50921,-2.86502 -8.49346,-2.96347 -0.10334,-9.324228 -5.577906,7.460388 -8.771671,-2.699834 z"
       id="path1647-6"
       sodipodi:nodetypes="ccccccccccc"
       class="stars" /></g></svg>
